<svg xmlns="http://www.w3.org/2000/svg" width="357" height="52" viewBox="0 0 357 52" fill="none"><g clip-path="url(#clip0_101_10487)"><rect x="279" width="78" height="52" rx="8" fill="white"></rect><path d="M314.1 52.1332L356.977 39.6499V43.7832C356.977 48.3947 353.238 52.1332 348.627 52.1332H314.1Z" fill="#FD6020"></path><path fill-rule="evenodd" clip-rule="evenodd" d="M345.713 21.0407C348.072 21.0407 349.369 22.0905 349.369 24.0734C349.487 25.5897 348.426 26.8728 347.01 27.1061L350.195 31.4218H347.718L345.005 27.2227H344.769V31.4218H342.764V21.0407H345.713ZM344.769 25.823H345.359C346.657 25.823 347.246 25.2398 347.246 24.19C347.246 23.2569 346.657 22.6737 345.359 22.6737H344.769V25.823ZM335.806 31.4218H341.467V29.6722H337.811V26.8728H341.349V25.1231H337.811V22.7903H341.467V21.0407H335.806V31.4218ZM329.908 28.0392L327.195 21.0407H325.072L329.436 31.6551H330.498L334.862 21.0407H332.739L329.908 28.0392ZM305.965 26.2896C305.965 29.2056 308.324 31.6551 311.273 31.6551C312.216 31.6551 313.042 31.4218 313.868 31.0719V28.739C313.278 29.4389 312.452 29.9054 311.509 29.9054C309.622 29.9054 308.088 28.5057 308.088 26.6395V26.4062C307.97 24.5399 309.504 22.907 311.391 22.7903C312.334 22.7903 313.278 23.2569 313.868 23.9567V21.6239C313.16 21.1573 312.216 21.0407 311.391 21.0407C308.324 20.8074 305.965 23.2569 305.965 26.2896ZM302.309 25.0065C301.129 24.5399 300.776 24.3067 300.776 23.7235C300.894 23.0236 301.483 22.4404 302.191 22.557C302.781 22.557 303.37 22.907 303.842 23.3735L304.904 21.9738C304.078 21.274 303.017 20.8074 301.955 20.8074C300.304 20.6908 298.889 21.9738 298.771 23.6068V23.7235C298.771 25.1231 299.36 25.9396 301.247 26.5228C301.719 26.6395 302.191 26.8728 302.663 27.106C303.017 27.3393 303.253 27.6893 303.253 28.1558C303.253 28.9723 302.545 29.6722 301.837 29.6722H301.719C300.776 29.6722 299.95 29.0889 299.596 28.2725L298.299 29.5555C299.006 30.8386 300.422 31.5384 301.837 31.5384C303.724 31.6551 305.258 30.2554 305.376 28.3891V28.0392C305.258 26.6395 304.668 25.9396 302.309 25.0065ZM295.468 31.4218H297.473V21.0407H295.468V31.4218ZM286.15 21.0407H289.689C292.519 21.1574 294.76 23.4902 294.642 26.2896C294.642 27.8059 293.935 29.2056 292.755 30.2554C291.694 31.0719 290.396 31.5384 289.099 31.4218H286.15V21.0407ZM288.745 29.6722C289.689 29.7888 290.75 29.4389 291.458 28.8557C292.166 28.1558 292.519 27.2227 292.519 26.1729C292.519 25.2398 292.166 24.3067 291.458 23.6068C290.75 23.0236 289.689 22.6737 288.745 22.7903H288.155V29.6722H288.745Z" fill="black"></path><path fill-rule="evenodd" clip-rule="evenodd" d="M319.883 20.8C316.934 20.8 314.457 23.1329 314.457 26.1655C314.457 29.0816 316.816 31.531 319.883 31.6477C322.949 31.7643 325.308 29.3149 325.426 26.2822C325.308 23.2495 322.949 20.8 319.883 20.8Z" fill="#FD6020"></path></g><rect width="78" height="52" rx="8" fill="white"></rect><path d="M52.8099 17.0519C51.8492 16.6708 50.3255 16.25 48.4414 16.25C43.6316 16.25 40.2445 18.8148 40.2238 22.4818C40.1838 25.1873 42.6488 26.69 44.4924 27.5921C46.3767 28.5139 47.0173 29.1155 47.0173 29.9372C46.9981 31.1991 45.4946 31.7808 44.0923 31.7808C42.1478 31.7808 41.1059 31.4809 39.5225 30.7788L38.8811 30.4779L38.1996 34.7063C39.3419 35.2267 41.4465 35.6885 43.6316 35.7088C48.7421 35.7088 52.0692 33.1836 52.1086 29.2759C52.1281 27.1316 50.8265 25.4885 48.0203 24.1459C46.3168 23.284 45.2736 22.7029 45.2736 21.821C45.2935 21.0193 46.1559 20.1982 48.0789 20.1982C49.6623 20.158 50.8257 20.5386 51.707 20.9195L52.1475 21.1195L52.8099 17.0519Z" fill="#3362AB"></path><path d="M35.1537 35.428H30.2832L33.3296 16.5914H38.1998L35.1537 35.428Z" fill="#3362AB"></path><path fill-rule="evenodd" clip-rule="evenodd" d="M65.2953 16.5914H61.5279C60.3662 16.5914 59.4835 16.9318 58.9823 18.1543L51.7477 35.4278H56.8582C56.8582 35.4278 57.6996 33.1029 57.8804 32.6022H64.1338C64.2736 33.2635 64.7149 35.4278 64.7149 35.4278H69.2246L65.2953 16.5914ZM59.2832 28.7549C59.6843 27.6728 61.2278 23.4846 61.2278 23.4846C61.2197 23.5007 61.2824 23.3267 61.376 23.0672L61.3772 23.064L61.3779 23.062C61.5177 22.6744 61.7253 22.0991 61.8686 21.6812L62.209 23.3043C62.209 23.3043 63.1313 27.8131 63.3316 28.7549H59.2832Z" fill="#3362AB"></path><path d="M26.2151 16.5914L21.4452 29.4362L20.924 26.8311L20.9235 26.8295L19.2205 18.1748C18.94 16.9718 18.0782 16.6311 17.016 16.5914H9.17978L9.09961 16.972C11.0108 17.4608 12.7203 18.1651 14.2181 19.0407L18.5592 35.4081H23.7097L31.3653 16.5914H26.2151Z" fill="#3362AB"></path><rect x="93" width="78" height="52" rx="8" fill="white"></rect><path d="M158 25.8187C158 34.7011 150.814 41.8873 141.931 41.8873C138.182 41.8873 134.745 40.5929 132.022 38.4504C135.772 35.5045 138.137 30.9517 138.137 25.8187C138.137 20.6856 135.727 16.1328 132.022 13.1869C134.745 11.0444 138.182 9.75 141.931 9.75C150.814 9.75 158 16.9809 158 25.8187Z" fill="#F79E1B"></path><path d="M132.022 13.1869C132.022 13.1869 132.022 13.1869 132.022 13.1869C135.727 16.1328 138.137 20.6856 138.137 25.8187C138.137 30.9517 135.772 35.5045 132.022 38.4504L131.978 38.4504C128.273 35.5491 125.863 30.9518 125.863 25.8188C125.863 20.6857 128.273 16.1329 131.978 13.187C131.978 13.187 131.978 13.187 131.978 13.187L132.022 13.1869Z" fill="#FF5F00"></path><path d="M125.863 25.8188C125.863 20.6857 128.273 16.1329 131.978 13.187C129.255 11.0445 125.818 9.75007 122.069 9.75007C113.186 9.75007 106 16.9363 106 25.8187C106 34.7011 113.186 41.8874 122.069 41.8874C125.818 41.8874 129.255 40.5929 131.978 38.4504C128.273 35.5491 125.863 30.9518 125.863 25.8188Z" fill="#EB001B"></path><rect x="186" width="78" height="52" rx="8" fill="white"></rect><path d="M251 25.8187C251 34.7011 243.814 41.8873 234.931 41.8873C231.182 41.8873 227.745 40.5929 225.022 38.4504C228.772 35.5045 231.137 30.9517 231.137 25.8187C231.137 20.6856 228.727 16.1328 225.022 13.1869C227.745 11.0444 231.182 9.75 234.931 9.75C243.814 9.75 251 16.9809 251 25.8187Z" fill="#0099DF"></path><path d="M225.022 13.1869C225.022 13.1869 225.022 13.1869 225.022 13.1869C228.727 16.1328 231.137 20.6856 231.137 25.8187C231.137 30.9517 228.772 35.5045 225.022 38.4504L224.978 38.4504C221.273 35.5491 218.863 30.9518 218.863 25.8188C218.863 20.6857 221.273 16.1329 224.978 13.187C224.978 13.187 224.978 13.187 224.978 13.187L225.022 13.1869Z" fill="#6C6BBD"></path><path d="M218.863 25.8188C218.863 20.6857 221.273 16.1329 224.978 13.187C222.255 11.0445 218.818 9.75007 215.069 9.75007C206.186 9.75007 199 16.9363 199 25.8187C199 34.7011 206.186 41.8874 215.069 41.8874C218.818 41.8874 222.255 40.5929 224.978 38.4504C221.273 35.5491 218.863 30.9518 218.863 25.8188Z" fill="#EB001B"></path><defs><clipPath id="clip0_101_10487"><rect x="279" width="78" height="52" rx="8" fill="white"></rect></clipPath></defs></svg>