<svg width="70" height="52" viewBox="0 0 70 52" fill="none" xmlns="http://www.w3.org/2000/svg">
<mask id="mask0_20_569" style="mask-type:luminance" maskUnits="userSpaceOnUse" x="0" y="0" width="70" height="52">
<path d="M69.9878 0.293015H0.640137V51.2021H69.9878V0.293015Z" fill="white"/>
</mask>
<g mask="url(#mask0_20_569)">
<path d="M32.9429 24.4457H3.25461C2.02192 24.4457 1.02539 23.4492 1.02539 22.2165V2.90811C1.02539 1.68118 2.02768 0.678894 3.25461 0.678894H32.9429C34.1757 0.678894 35.1721 1.67542 35.1721 2.90811V22.2165C35.1721 23.4492 34.1757 24.4457 32.9429 24.4457Z" fill="#F3FDF0" stroke="#42593A" stroke-width="1.07386" stroke-linecap="round" stroke-linejoin="round"/>
<path d="M35.5062 51.202C54.5495 51.202 69.9871 48.6179 69.9871 45.4303C69.9871 42.2426 54.5495 39.6585 35.5062 39.6585C16.463 39.6585 1.02539 42.2426 1.02539 45.4303C1.02539 48.6179 16.463 51.202 35.5062 51.202Z" fill="#42593A"/>
<path d="M65.3396 40.8106H28.8772C27.3623 40.8106 26.1411 39.5836 26.1411 38.0745V14.3595C26.1411 12.8446 27.368 11.6234 28.8772 11.6234H65.3396C66.8545 11.6234 68.0757 12.8503 68.0757 14.3595V38.0745C68.0757 39.5894 66.8488 40.8106 65.3396 40.8106Z" fill="#F3FDF0" stroke="#42593A" stroke-width="1.07386" stroke-linecap="round" stroke-linejoin="round"/>
<path d="M33.687 40.7243L27.5351 44.9177C26.7632 44.9177 26.1411 44.2957 26.1411 43.5237V35.8626" fill="#F3FDF0"/>
<path d="M33.687 40.7243L27.5351 44.9177C26.7632 44.9177 26.1411 44.2957 26.1411 43.5237V35.8626" stroke="#42593A" stroke-width="1.07386" stroke-linecap="round" stroke-linejoin="round"/>
<path d="M49.6664 7.32043L38.7334 24.1691H47.2585L42.7483 36.6055L58.0936 19.4573H47.6617L49.6664 7.32043Z" fill="#F3FDF0" stroke="#FF6542" stroke-width="1.07386" stroke-linecap="round" stroke-linejoin="round"/>
<path d="M48.6455 37.6656H63.6625" stroke="#42593A" stroke-width="1.07386" stroke-linecap="round" stroke-linejoin="round"/>
<path d="M28.6455 40.3096L32.8274 37.6656H38.438" fill="#F3FDF0"/>
<path d="M28.6455 40.3096L32.8274 37.6656H38.438" stroke="#42593A" stroke-width="1.07386" stroke-linecap="round" stroke-linejoin="round"/>
<path d="M17.3559 14.0601V13.0348C17.3559 10.3736 20.8984 10.0567 20.8984 7.80447C20.8984 6.80219 20.115 5.92087 18.6979 5.92087C16.9641 5.92087 16.1807 6.96923 15.6911 7.38398C15.4953 7.55678 15.2994 7.55678 15.1036 7.38398L14.2972 6.60058C14.1012 6.42778 14.1531 6.1628 14.2972 5.96695C14.2972 5.96695 15.8351 3.81837 18.9399 3.81837C21.4801 3.81837 23.4329 5.43125 23.4329 7.75263C23.4329 10.8286 19.6484 11.3931 19.6484 13.127V14.0313C19.6484 14.3481 19.4295 14.5209 19.1358 14.5209H17.8167C17.5747 14.5209 17.35 14.3251 17.35 14.0544L17.3559 14.0601ZM18.456 18.0174C19.4065 18.0174 20.1668 18.772 20.1668 19.7282C20.1668 20.6844 19.4123 21.4159 18.456 21.4159C17.4998 21.4159 16.7682 20.6613 16.7682 19.7282C16.7682 18.795 17.5229 18.0174 18.456 18.0174Z" fill="#F3FDF0" stroke="#FF6542" stroke-width="1.07386" stroke-linecap="round" stroke-linejoin="round"/>
</g>
</svg>
