<svg width="197" height="166" viewBox="0 0 197 166" fill="none" xmlns="http://www.w3.org/2000/svg">
<g opacity="0.4">
<path opacity="0.4" d="M38.9298 62.2206C37.2298 72.2806 37.8298 82.5905 40.6798 92.3805C43.5298 102.171 48.5598 111.171 55.3798 118.701C62.7998 126.761 72.1098 132.821 81.8098 137.831C91.2798 142.721 101.29 146.691 111.76 148.531C142.26 153.891 175.91 138.331 189.75 110.401C198.41 92.9106 199.15 71.8405 192.77 53.3806C186.39 34.9206 173.17 19.1505 156.76 8.77057C149.28 4.02057 140.87 0.290566 132.03 0.000566169C127.52 -0.0194338 123.03 0.490566 118.64 1.51057C83.2898 8.70057 46.1598 21.4305 38.9298 62.2206Z" fill="#2885C9"/>
</g>
<g opacity="0.38">
<path opacity="0.6" d="M20.4899 77.8505C18.7899 87.9105 19.3899 98.2206 22.2399 108.011C25.0899 117.801 30.1199 126.801 36.9399 134.331C44.3599 142.381 53.6699 148.451 63.3699 153.461C72.8299 158.341 82.8499 162.321 93.3099 164.161C123.81 169.521 157.47 153.961 171.31 126.021C179.97 108.531 180.71 87.4706 174.33 69.0106C167.95 50.5506 154.73 34.7806 138.32 24.3906C130.82 19.6506 122.42 15.9206 113.58 15.6306C109.07 15.6106 104.58 16.1106 100.19 17.1306C64.8399 24.3206 27.7099 37.0505 20.4799 77.8505H20.4899Z" fill="#73D0F8"/>
</g>
<path d="M17.2298 67.9605L16.8098 68.1705C16.5998 68.2805 16.3698 68.4105 16.3198 68.6405C16.3198 68.7605 16.3398 68.8805 16.3998 68.9905C16.4598 69.1005 16.5398 69.1905 16.6398 69.2505C17.5098 69.9905 18.7398 70.1005 19.7698 70.5805C24.0298 72.5905 24.7398 78.3405 26.1298 82.2805C26.2298 82.7405 26.4898 83.1405 26.8598 83.4305C28.2798 84.2605 28.4498 81.4105 28.4698 80.7705C28.4698 77.4005 29.1598 73.7005 31.7198 71.5005C32.9798 70.5505 34.3898 69.8205 35.8898 69.3505C36.5298 69.1105 37.2998 68.6905 37.2398 68.0105C37.1798 67.1705 36.0598 67.0005 35.2398 66.8905C34.4398 66.7705 33.6698 66.4805 32.9898 66.0305C32.3098 65.5805 31.7298 64.9905 31.2998 64.3005C30.2098 62.4305 29.4198 60.3905 28.9598 58.2705C28.6898 57.0205 28.8498 55.4905 28.2598 54.3205C28.1798 54.1105 28.0298 53.9305 27.8398 53.8005C27.6498 53.6805 27.4298 53.6105 27.1998 53.6205C26.6298 53.7205 26.4498 54.4505 26.3898 55.0305C26.0298 58.4505 25.2998 62.6305 22.4598 64.9105C20.8198 66.1005 19.0698 67.1205 17.2298 67.9505V67.9605Z" fill="url(#paint0_linear_40_873)"/>
<path d="M10.3 7.80058C9.15 7.13058 8.88 9.10058 8.78 9.77058C8.53 12.0305 7.81 14.2205 6.67 16.1805C5.96 17.3605 5.02 18.3805 3.91 19.1805C2.92 19.9505 1.68 20.3305 0.43 20.2505C0.34 20.2505 0.26 20.2605 0.18 20.3105C0.06 20.4405 0 20.6005 0 20.7705C0 20.9405 0.07 21.1105 0.18 21.2305C0.4 21.3905 0.66 21.4805 0.92 21.4905C3.18 21.9405 5.19 23.2405 6.54 25.1305C7.75 26.8205 8.29 29.3605 8.78 31.3505C8.81 31.6305 8.9 31.8905 9.05 32.1305C9.2 32.3705 9.39 32.5705 9.63 32.7105C11.04 33.2805 10.94 30.5905 11.13 29.8405C11.48 28.4705 11.98 27.1405 12.62 25.8705C13.87 23.3805 15.28 21.5705 18.13 20.9705C18.48 20.8905 18.91 20.7605 18.98 20.4005C19.04 20.0405 18.67 19.9305 18.38 19.9105C18.1 19.8905 17.81 19.9905 17.53 19.9805C15.48 19.8705 13.7 16.4205 12.93 14.8305C12.08 12.9105 11.4 10.9105 10.92 8.86058C10.85 8.44058 10.63 8.06058 10.3 7.80058Z" fill="url(#paint1_linear_40_873)"/>
<path d="M37.66 41.8205C36.88 42.0005 35.62 41.6905 35.45 42.8505C35.44 43.1805 35.53 43.5105 35.71 43.7905C35.89 44.0705 36.14 44.2905 36.45 44.4205C37.06 44.6705 37.71 44.8305 38.36 44.9005C41.43 45.6405 44.09 47.5605 45.77 50.2605C46.8 51.8705 47.62 53.6005 48.21 55.4205C48.53 56.3505 48.82 57.3305 49.06 58.2905C49.12 59.1605 49.34 60.0205 49.7 60.8105C49.82 61.0005 50 61.1405 50.2 61.2405C50.4 61.3305 50.63 61.3705 50.85 61.3405C51.51 61.1905 51.77 60.4105 51.89 59.7305C52.23 57.9905 51.8 56.2605 52.54 54.5705C53.16 53.1705 53.74 51.0105 54.83 49.9305C55.76 48.3405 56.83 46.8505 58.04 45.4605C59.11 44.2505 60.75 44.2805 61.92 43.0805C62.13 42.8905 62.29 42.6505 62.37 42.3805C62.39 42.0805 62.31 41.7905 62.15 41.5405C61.98 41.2905 61.74 41.1105 61.45 41.0305C60.89 40.8605 60.31 40.7705 59.72 40.7505C57.28 40.4505 55.29 38.5505 54.12 36.3605C53.09 34.1105 52.32 31.7405 51.84 29.3105C51.68 28.4405 51.3 27.6205 50.74 26.9505C48.3 24.4705 47.82 28.8005 47.39 30.2005C46.64 32.7505 45.54 35.1805 44.15 37.4405C43.16 39.0605 41.7 40.3305 39.96 41.0605C39.3 41.4405 38.57 41.6905 37.82 41.7905H37.65L37.66 41.8205Z" fill="url(#paint2_linear_40_873)"/>
<path d="M76.9699 50.4305C70.7399 52.1305 65.0199 56.4905 62.5499 62.6005C61.3199 65.8505 60.7699 69.3205 60.9299 72.8005C61.3199 88.5605 71.1199 102.301 80.5099 114.831C84.8599 120.621 89.1999 126.411 93.5299 132.201C97.2999 137.221 102.16 140.821 105.94 145.901C111.36 137.051 118.92 129.381 124.9 120.811C131.34 111.581 137.2 101.951 142.44 91.9705C149.62 78.2905 154.11 57.3005 137.05 48.9205C126.28 43.6305 116.13 49.4305 109.64 58.4105C108.53 59.9605 103.41 65.5505 104.38 67.6805C101.82 62.2505 97.8899 55.3805 93.0699 51.7205C88.6499 48.3205 82.2399 48.9905 76.9699 50.4205V50.4305Z" fill="url(#paint3_linear_40_873)"/>
<path d="M76.9699 50.4305C70.7399 52.1305 65.0199 56.4905 62.5499 62.6005C61.3199 65.8505 60.7699 69.3205 60.9299 72.8005C61.3199 88.5605 71.1199 102.301 80.5099 114.831C84.8599 120.621 89.1999 126.411 93.5299 132.201C97.2999 137.221 102.16 140.821 105.94 145.901C111.36 137.051 118.92 129.381 124.9 120.811C131.34 111.581 137.2 101.951 142.44 91.9705C149.62 78.2905 154.11 57.3005 137.05 48.9205C126.28 43.6305 116.13 49.4305 109.64 58.4105C108.53 59.9605 103.41 65.5505 104.38 67.6805C101.82 62.2505 97.8899 55.3805 93.0699 51.7205C88.6499 48.3205 82.2399 48.9905 76.9699 50.4205V50.4305Z" fill="url(#paint4_linear_40_873)"/>
<path d="M93.1001 51.6906C93.4101 51.9306 93.7201 52.1806 94.0201 52.4306C93.7201 52.1406 93.4001 51.9306 93.1001 51.6906Z" fill="url(#paint5_linear_40_873)"/>
<path d="M99.3101 58.5706C99.4601 58.7906 99.6101 59.0106 99.7501 59.2306L99.3101 58.5706Z" fill="url(#paint6_linear_40_873)"/>
<path d="M100.36 60.1606C100.23 59.9506 100.09 59.7406 99.96 59.5406L100.36 60.1606Z" fill="url(#paint7_linear_40_873)"/>
<path d="M67.46 55.6505C67.16 55.9305 66.87 56.2205 66.54 56.5005C66.86 56.2105 67.16 55.9305 67.46 55.6505Z" fill="url(#paint8_linear_40_873)"/>
<path d="M104.41 67.6406C104.09 66.9506 103.74 66.2406 103.37 65.5106C103.65 66.2506 104 66.9706 104.41 67.6406C100.24 63.7306 92.0801 59.4106 87.3201 63.8106C81.1501 69.5106 81.3801 92.6006 92.3201 120.711C94.8201 127.141 102.88 139.361 105.96 145.891C106.03 145.771 106.12 145.661 106.19 145.551L104.41 67.6506V67.6406Z" fill="url(#paint9_linear_40_873)"/>
<path d="M137.07 48.9005C126.3 43.6105 116.15 49.4105 109.66 58.3905C108.74 59.7005 104.23 64.1705 104.23 67.3905C128.93 50.9605 133.85 75.9605 127.11 94.6805C123.92 103.521 108.34 140.621 106.63 143.911C105.39 146.291 105.96 145.881 107.15 144.031C112.45 135.951 119.36 128.751 124.92 120.791C131.36 111.561 137.22 101.931 142.46 91.9505C149.64 78.2705 154.18 57.2805 137.07 48.8905V48.9005Z" fill="url(#paint10_linear_40_873)"/>
<path d="M76.9699 49.2505C70.7399 50.9405 65.0199 55.3105 62.5499 61.4205C61.3199 64.6705 60.7699 68.1406 60.9299 71.6206C61.3199 87.4306 71.1199 101.121 80.5099 113.641L93.5299 131.011C97.2999 136.031 102.16 139.631 105.94 144.721C111.36 135.861 118.92 128.201 124.9 119.631C131.34 110.401 137.2 100.761 142.44 90.7805C149.62 77.1005 154.11 56.1205 137.05 47.7305C126.28 42.4505 116.13 48.2505 109.64 57.2305C108.53 58.7705 103.41 64.3605 104.38 66.5005C101.82 61.0605 97.8899 54.2005 93.0699 50.5405C88.6499 47.1305 82.2399 47.8106 76.9699 49.2406V49.2505Z" fill="url(#paint11_linear_40_873)"/>
<path d="M76.9699 49.2505C70.7399 50.9405 65.0199 55.3105 62.5499 61.4205C61.3199 64.6705 60.7699 68.1406 60.9299 71.6206C61.3199 87.4306 71.1199 101.121 80.5099 113.641L93.5299 131.011C97.2999 136.031 102.16 139.631 105.94 144.721C111.36 135.861 118.92 128.201 124.9 119.631C131.34 110.401 137.2 100.761 142.44 90.7805C149.62 77.1005 154.11 56.1205 137.05 47.7305C126.28 42.4505 116.13 48.2505 109.64 57.2305C108.53 58.7705 103.41 64.3605 104.38 66.5005C101.82 61.0605 97.8899 54.2005 93.0699 50.5405C88.6499 47.1305 82.2399 47.8106 76.9699 49.2406V49.2505Z" fill="url(#paint12_linear_40_873)"/>
<path d="M99.3101 57.3906C99.4601 57.6006 99.6101 57.8306 99.7501 58.0406L99.3101 57.3906Z" fill="url(#paint13_linear_40_873)"/>
<path d="M95.2698 133.101C95.0898 132.901 94.9198 132.691 94.7598 132.501C94.9298 132.701 95.0998 132.911 95.2698 133.101Z" fill="url(#paint14_linear_40_873)"/>
<path d="M67.46 54.4806C67.16 54.7606 66.87 55.0406 66.54 55.3306C66.86 55.0306 67.16 54.7606 67.46 54.4806Z" fill="url(#paint15_linear_40_873)"/>
<path d="M104.41 66.4605C104.09 65.7605 103.74 65.0505 103.37 64.3305C103.65 65.0705 104 65.7805 104.41 66.4605C100.24 62.5505 92.0801 58.2205 87.3201 62.6205C81.1501 68.3305 81.3801 91.4205 92.3201 119.531C94.8201 125.961 102.88 138.181 105.96 144.711L106.19 144.361L104.41 66.4605Z" fill="url(#paint16_linear_40_873)"/>
<path d="M136.84 49.0105C126.07 43.7305 115.92 49.5305 109.43 58.5105C108.51 59.8205 104 64.2905 104 67.5105C128.7 51.0805 133.62 76.0805 126.88 94.7905C123.69 103.63 108.11 140.73 106.4 144.02C105.16 146.41 105.73 145.99 106.92 144.15C112.22 136.06 119.13 128.86 124.69 120.91C131.13 111.68 136.99 102.04 142.23 92.0605C149.41 78.3805 153.95 57.4005 136.84 49.0105Z" fill="url(#paint17_linear_40_873)"/>
<path d="M93.6402 119.411C89.6102 108.791 86.2902 97.8406 84.8802 86.5306C83.9602 78.9806 82.9102 68.8006 89.0802 63.1006C93.8302 58.6906 100.24 62.5506 104.41 66.4706C103.95 66.0406 103.59 63.8906 99.8102 58.1306C98.0202 55.2406 95.7502 52.6806 93.1202 50.5506C88.6802 47.1806 82.2702 47.8506 77.0202 49.2906C70.7902 50.9806 65.0702 55.3506 62.6002 61.4606C61.3702 64.7106 60.8202 68.1806 60.9802 71.6606C61.3702 87.4706 71.1702 101.161 80.5602 113.681L93.5802 131.051C95.9602 134.221 103.29 141.991 105.99 144.761C102.88 138.201 96.0702 125.881 93.6402 119.421V119.411Z" fill="url(#paint18_linear_40_873)"/>
<defs>
<linearGradient id="paint0_linear_40_873" x1="16.3198" y1="68.6105" x2="37.2498" y2="68.6105" gradientUnits="userSpaceOnUse">
<stop stop-color="#1053A2"/>
<stop offset="1" stop-color="#FFF3DF"/>
</linearGradient>
<linearGradient id="paint1_linear_40_873" x1="0" y1="20.2305" x2="18.99" y2="20.2305" gradientUnits="userSpaceOnUse">
<stop stop-color="white"/>
<stop offset="1" stop-color="#388C87"/>
</linearGradient>
<linearGradient id="paint2_linear_40_873" x1="35.46" y1="43.7905" x2="62.38" y2="43.7905" gradientUnits="userSpaceOnUse">
<stop stop-color="white"/>
<stop offset="1" stop-color="#229198"/>
</linearGradient>
<linearGradient id="paint3_linear_40_873" x1="60.9099" y1="96.4005" x2="148.84" y2="96.4005" gradientUnits="userSpaceOnUse">
<stop stop-color="#CDD2FF"/>
<stop offset="1" stop-color="#348AA2"/>
</linearGradient>
<linearGradient id="paint4_linear_40_873" x1="60.9099" y1="96.4005" x2="148.84" y2="96.4005" gradientUnits="userSpaceOnUse">
<stop stop-color="#CDD2FF"/>
<stop offset="1" stop-color="#348AA2"/>
</linearGradient>
<linearGradient id="paint5_linear_40_873" x1="93.1001" y1="52.0606" x2="94.0201" y2="52.0606" gradientUnits="userSpaceOnUse">
<stop stop-color="#FFC400"/>
<stop offset="1" stop-color="#1B7E43"/>
</linearGradient>
<linearGradient id="paint6_linear_40_873" x1="99.3101" y1="58.8906" x2="99.7501" y2="58.8906" gradientUnits="userSpaceOnUse">
<stop stop-color="#FFC400"/>
<stop offset="1" stop-color="#1B7E43"/>
</linearGradient>
<linearGradient id="paint7_linear_40_873" x1="99.95" y1="59.8506" x2="100.36" y2="59.8506" gradientUnits="userSpaceOnUse">
<stop stop-color="#FFC400"/>
<stop offset="1" stop-color="#1B7E43"/>
</linearGradient>
<linearGradient id="paint8_linear_40_873" x1="66.54" y1="56.0805" x2="67.46" y2="56.0805" gradientUnits="userSpaceOnUse">
<stop stop-color="#FFC400"/>
<stop offset="1" stop-color="#1B7E43"/>
</linearGradient>
<linearGradient id="paint9_linear_40_873" x1="83.2601" y1="103.921" x2="106.19" y2="103.921" gradientUnits="userSpaceOnUse">
<stop stop-color="#FFC400"/>
<stop offset="1" stop-color="#1B7E43"/>
</linearGradient>
<linearGradient id="paint10_linear_40_873" x1="104.23" y1="96.2305" x2="148.88" y2="96.2305" gradientUnits="userSpaceOnUse">
<stop stop-color="#FFC400"/>
<stop offset="1" stop-color="#1B7E43"/>
</linearGradient>
<linearGradient id="paint11_linear_40_873" x1="60.9099" y1="95.2206" x2="148.84" y2="95.2206" gradientUnits="userSpaceOnUse">
<stop stop-color="#B42F9A"/>
<stop offset="0.82" stop-color="#EB8158"/>
<stop offset="1" stop-color="#F28555"/>
</linearGradient>
<linearGradient id="paint12_linear_40_873" x1="61.2399" y1="96.7805" x2="184.85" y2="93.3305" gradientUnits="userSpaceOnUse">
<stop stop-color="#B845FF"/>
<stop offset="0.356559" stop-color="#CDCFFF"/>
<stop offset="0.71" stop-color="#B845FF"/>
<stop offset="1" stop-color="#348AA2"/>
</linearGradient>
<linearGradient id="paint13_linear_40_873" x1="-366.866" y1="57.7106" x2="-366.656" y2="57.7106" gradientUnits="userSpaceOnUse">
<stop stop-color="#4013B6"/>
<stop offset="0.68" stop-color="#B845FF"/>
<stop offset="0.84" stop-color="#F172C6"/>
<stop offset="0.94" stop-color="#F275D8"/>
</linearGradient>
<linearGradient id="paint14_linear_40_873" x1="-451.718" y1="132.801" x2="-451.438" y2="132.801" gradientUnits="userSpaceOnUse">
<stop stop-color="#4013B6"/>
<stop offset="0.68" stop-color="#B845FF"/>
<stop offset="0.84" stop-color="#348AA2"/>
<stop offset="0.94" stop-color="#B845FF"/>
</linearGradient>
<linearGradient id="paint15_linear_40_873" x1="-937.406" y1="54.9006" x2="-936.536" y2="54.9006" gradientUnits="userSpaceOnUse">
<stop stop-color="#4013B6"/>
<stop offset="0.68" stop-color="#EB5D58"/>
<stop offset="0.84" stop-color="#F172C6"/>
<stop offset="0.94" stop-color="#F275D8"/>
</linearGradient>
<linearGradient id="paint16_linear_40_873" x1="81.8701" y1="103.831" x2="110.49" y2="102.011" gradientUnits="userSpaceOnUse">
<stop stop-color="#CDD2FF"/>
<stop offset="1" stop-color="#B845FF"/>
</linearGradient>
<linearGradient id="paint17_linear_40_873" x1="60.45" y1="96.3405" x2="148.62" y2="96.3405" gradientUnits="userSpaceOnUse">
<stop stop-color="#CDD2FF"/>
<stop offset="1" stop-color="#348AA2"/>
</linearGradient>
<linearGradient id="paint18_linear_40_873" x1="59.2702" y1="97.6306" x2="103.45" y2="96.1506" gradientUnits="userSpaceOnUse">
<stop stop-color="#348AA2"/>
<stop offset="1" stop-color="#CDD2FF"/>
</linearGradient>
</defs>
</svg>
