<svg width="67" height="63" viewBox="0 0 67 63" fill="none" xmlns="http://www.w3.org/2000/svg">
<mask id="mask0_20_631" style="mask-type:luminance" maskUnits="userSpaceOnUse" x="0" y="0" width="67" height="63">
<path d="M66.1978 0.944824H0.669922V62.2305H66.1978V0.944824Z" fill="white"/>
</mask>
<g mask="url(#mask0_20_631)">
<path d="M42.8037 1.41202L48.1191 18.4741C48.1592 18.5995 48.2739 18.685 48.4048 18.685H65.4855C65.7338 18.685 65.8726 18.402 65.7258 18.2045L52.7858 1.06496C52.7297 0.990209 52.6389 0.944824 52.5454 0.944824L43.0893 1.02492C42.8892 1.02492 42.7476 1.22247 42.8064 1.41202H42.8037Z" fill="url(#paint0_linear_20_631)"/>
<path d="M48.0969 20.583L36.1339 59.5794C36.0351 59.8998 36.4569 60.1159 36.6598 59.849L66.1361 20.8526C66.2855 20.6551 66.144 20.3721 65.8985 20.3721H48.3826C48.2517 20.3721 48.1342 20.4575 48.0969 20.583Z" fill="url(#paint1_linear_20_631)"/>
<path d="M18.7704 20.5832L30.7333 59.5795C30.832 59.8999 30.4103 60.1161 30.2074 59.8491L0.731169 20.8501C0.581666 20.6526 0.72316 20.3696 0.968773 20.3696H18.4847C18.6155 20.3696 18.733 20.4551 18.7704 20.5805V20.5832Z" fill="url(#paint2_linear_20_631)"/>
<path d="M24.5397 1.41202L18.4234 18.4741C18.3834 18.5995 18.2686 18.685 18.1377 18.685H1.85792C1.60963 18.685 1.47081 18.402 1.61764 18.2045L14.5604 1.06496C14.6165 0.98754 14.7072 0.944824 14.8006 0.944824L24.2567 1.02492C24.457 1.02492 24.5985 1.22247 24.5397 1.41202Z" fill="url(#paint3_linear_20_631)"/>
<path d="M41.1507 1.1958C41.1106 1.07299 40.9959 0.990234 40.865 0.990234H33.4673H26.0695C25.9414 0.990234 25.8266 1.07299 25.7839 1.1958L20.1482 18.3406C20.0841 18.5355 20.2282 18.7331 20.4338 18.7331H46.4981C46.701 18.7331 46.8452 18.5329 46.7838 18.3406L41.1507 1.1958Z" fill="url(#paint4_linear_20_631)"/>
<path d="M33.4695 20.3696H20.42C20.2171 20.3696 20.073 20.5672 20.1344 20.7594L33.184 62.0196C33.272 62.2973 33.6672 62.2973 33.7552 62.0196L46.8048 20.7594C46.8661 20.5672 46.722 20.3696 46.5191 20.3696H33.4695Z" fill="url(#paint5_linear_20_631)"/>
</g>
<defs>
<linearGradient id="paint0_linear_20_631" x1="70.9424" y1="-5.76681" x2="-0.271961" y2="61.0372" gradientUnits="userSpaceOnUse">
<stop stop-color="#FFC50F"/>
<stop offset="0.0001" stop-color="#CDD2FF"/>
<stop offset="0.953125" stop-color="#348AA2"/>
</linearGradient>
<linearGradient id="paint1_linear_20_631" x1="80.5044" y1="4.42596" x2="9.28738" y2="71.23" gradientUnits="userSpaceOnUse">
<stop stop-color="#CDD2FF"/>
<stop offset="1" stop-color="#348AA2"/>
</linearGradient>
<linearGradient id="paint2_linear_20_631" x1="68.0104" y1="-8.89307" x2="-3.20663" y2="57.911" gradientUnits="userSpaceOnUse">
<stop stop-color="#CDD2FF"/>
<stop offset="1" stop-color="#348AA2"/>
</linearGradient>
<linearGradient id="paint3_linear_20_631" x1="53.2203" y1="-24.6603" x2="-17.9967" y2="42.1437" gradientUnits="userSpaceOnUse">
<stop stop-color="#CDD2FF"/>
<stop offset="1" stop-color="#348AA2"/>
</linearGradient>
<linearGradient id="paint4_linear_20_631" x1="62.5217" y1="-14.745" x2="-8.69533" y2="52.059" gradientUnits="userSpaceOnUse">
<stop stop-color="#CDD2FF"/>
<stop offset="1" stop-color="#348AA2"/>
</linearGradient>
<linearGradient id="paint5_linear_20_631" x1="73.8355" y1="-2.68331" x2="2.61847" y2="64.1207" gradientUnits="userSpaceOnUse">
<stop stop-color="#CDD2FF"/>
<stop offset="1" stop-color="#348AA2"/>
</linearGradient>
</defs>
</svg>
