<svg width="496" height="496" viewBox="0 0 496 496" fill="none" xmlns="http://www.w3.org/2000/svg">
<path d="M248 48C358.532 48 448 137.451 448 248C448 358.532 358.549 448 248 448C137.468 448 48 358.549 48 248C48 137.468 137.451 48 248 48ZM248 0C111.033 0 0 111.033 0 248C0 384.967 111.033 496 248 496C384.967 496 496 384.967 496 248C496 111.033 384.967 0 248 0ZM248 168C203.817 168 168 203.817 168 248C168 292.183 203.817 328 248 328C292.183 328 328 292.183 328 248C328 203.817 292.183 168 248 168Z" fill="#FF0000"/>
</svg>
