<svg xmlns="http://www.w3.org/2000/svg" width="64" height="64" viewBox="0 0 64 64" fill="none"><g clip-path="url(#clip0_15_5211)"><path d="M64 32C64 32.98 62.53 33.88 62.44 34.83C62.35 35.78 63.63 36.96 63.46 37.9C63.28 38.84 61.68 39.48 61.41 40.4C61.15 41.32 62.19 42.71 61.84 43.61C61.49 44.51 59.8 44.82 59.37 45.69C58.94 46.55 59.71 48.1 59.21 48.92C58.7 49.74 56.98 49.73 56.4 50.5C55.82 51.26 56.3 52.94 55.65 53.65C55 54.37 53.31 54.04 52.6 54.69C51.89 55.34 52.06 57.06 51.29 57.65C50.52 58.24 48.92 57.6 48.1 58.11C47.28 58.62 47.14 60.34 46.27 60.77C45.41 61.2 43.95 60.28 43.05 60.64C42.15 60.99 41.69 62.65 40.77 62.92C39.84 63.19 38.59 62.01 37.63 62.19C36.68 62.37 35.93 63.92 34.96 64.01C33.99 64.1 32.98 62.71 32 62.71C31.02 62.71 30 64.1 29.05 64.01C28.09 63.92 27.32 62.37 26.38 62.19C25.44 62.02 24.16 63.18 23.24 62.92C22.32 62.66 21.85 60.99 20.96 60.64C20.07 60.29 18.6 61.21 17.74 60.77C16.88 60.33 16.73 58.62 15.91 58.11C15.09 57.6 13.48 58.23 12.72 57.65C11.96 57.07 12.12 55.35 11.41 54.69C10.7 54.04 9.01 54.37 8.35 53.65C7.69 52.93 8.18 51.28 7.6 50.5C7.02 49.72 5.3 49.74 4.79 48.92C4.28 48.1 5.06 46.56 4.63 45.69C4.2 44.82 2.51 44.52 2.16 43.62C1.81 42.72 2.86 41.35 2.59 40.41C2.32 39.47 0.72 38.87 0.54 37.91C0.36 36.95 1.64 35.81 1.56 34.84C1.47 33.87 0 32.98 0 32.01C0 31.04 1.47 30.13 1.56 29.18C1.65 28.22 0.37 27.05 0.54 26.11C0.72 25.17 2.32 24.53 2.59 23.61C2.85 22.69 1.81 21.3 2.16 20.4C2.51 19.5 4.2 19.19 4.63 18.32C5.06 17.46 4.29 15.91 4.79 15.09C5.3 14.27 7.02 14.28 7.6 13.51C8.18 12.74 7.7 11.07 8.35 10.36C9 9.64004 10.69 9.97004 11.4 9.32004C12.11 8.67004 11.93 6.95004 12.71 6.36004C13.48 5.78004 15.08 6.41004 15.9 5.90004C16.72 5.39004 16.86 3.67004 17.73 3.24004C18.59 2.81004 20.05 3.73004 20.95 3.38004C21.85 3.03004 22.31 1.37004 23.23 1.10004C24.16 0.830039 25.41 2.01004 26.37 1.83004C27.32 1.65004 28.07 0.110039 29.04 0.0100388C30.01 -0.0899612 31.02 1.30004 31.99 1.30004C32.96 1.30004 33.99 -0.0899612 34.95 3.88073e-05C35.9 0.0900388 36.68 1.64004 37.62 1.82004C38.56 2.00004 39.84 0.830039 40.76 1.09004C41.68 1.35004 42.15 3.02004 43.04 3.37004C43.93 3.72004 45.4 2.80004 46.26 3.23004C47.12 3.66004 47.27 5.39004 48.09 5.89004C48.91 6.40004 50.52 5.77004 51.28 6.35004C52.04 6.93004 51.88 8.66004 52.59 9.31004C53.3 9.96004 54.99 9.64004 55.64 10.35C56.29 11.06 55.81 12.72 56.39 13.5C56.97 14.28 58.69 14.26 59.2 15.08C59.71 15.9 58.95 17.45 59.37 18.31C59.8 19.18 61.49 19.48 61.84 20.39C62.19 21.3 61.14 22.66 61.41 23.6C61.68 24.54 63.28 25.14 63.46 26.1C63.64 27.06 62.36 28.2 62.44 29.17C62.53 30.14 63.99 31.03 63.99 32H64Z" fill="#4F703E"></path><path d="M32 2.86011C15.83 2.86011 2.72 16.0301 2.72 32.2601C2.72 48.4901 15.83 61.6701 32 61.6701C48.17 61.6701 61.28 48.5101 61.28 32.2701C61.28 16.0301 48.17 2.86011 32 2.86011Z" fill="#4F703E"></path><path d="M32 49.0499C27.5 49.0499 23.18 47.25 19.99 44.06C16.81 40.86 15.02 36.53 15.02 32C15.02 27.4699 16.81 23.14 19.99 19.94C23.17 16.74 27.49 14.95 32 14.95C36.51 14.95 40.82 16.75 44.01 19.94C47.2 23.13 48.98 27.4699 48.98 32C48.98 34.24 48.54 36.4599 47.69 38.5299C46.84 40.5999 45.59 42.48 44.01 44.06C42.43 45.64 40.56 46.8999 38.5 47.7599C36.44 48.6199 34.23 49.06 32 49.06V49.0499Z" fill="#4F703E"></path><path d="M32 17.5601L32.65 18.8901L34.11 19.1001L33.05 20.1301L33.3 21.5901L32 20.9001L30.69 21.5901L30.94 20.1301L29.88 19.1001L31.34 18.8901L31.99 17.5601H32Z" fill="#FFCA42"></path><path d="M26.47 18.4001L27.12 19.7301L28.58 19.9401L27.52 20.9701L27.77 22.4301L26.47 21.7401L25.17 22.4301L25.42 20.9701L24.36 19.9401L25.82 19.7301L26.47 18.4001Z" fill="#FFCA42"></path><path d="M37.42 18.4001L38.07 19.7301L39.53 19.9401L38.48 20.9701L38.73 22.4301L37.43 21.7401L36.12 22.4301L36.37 20.9701L35.31 19.9401L36.77 19.7301L37.42 18.4001Z" fill="#FFCA42"></path><path d="M28.81 30.3499C28.37 30.3499 28 30.2899 27.71 30.1599C27.41 30.0299 27.19 29.8599 27.04 29.6599C26.89 29.4499 26.81 29.2299 26.8 28.9999C26.8 28.9599 26.81 28.9299 26.84 28.8999C26.87 28.8699 26.9 28.8599 26.94 28.8599H27.68C27.74 28.8599 27.79 28.8699 27.82 28.8999C27.85 28.9299 27.88 28.9599 27.91 28.9899C27.94 29.0699 27.99 29.1399 28.06 29.2199C28.13 29.2899 28.23 29.3499 28.35 29.3999C28.47 29.4499 28.63 29.4699 28.81 29.4699C29.11 29.4699 29.33 29.4199 29.48 29.3299C29.63 29.2299 29.7 29.0999 29.7 28.9399C29.7 28.8199 29.66 28.7199 29.58 28.6499C29.5 28.5799 29.37 28.5099 29.2 28.4499C29.03 28.3899 28.8 28.3299 28.51 28.2599C28.17 28.1899 27.87 28.0899 27.63 27.9699C27.39 27.8499 27.21 27.6999 27.09 27.5199C26.97 27.3399 26.91 27.0999 26.91 26.8299C26.91 26.5599 26.99 26.3099 27.14 26.0999C27.29 25.8899 27.51 25.7199 27.78 25.5999C28.06 25.4799 28.38 25.4199 28.76 25.4199C29.07 25.4199 29.34 25.4599 29.58 25.5399C29.82 25.6199 30.01 25.7299 30.17 25.8599C30.33 25.9899 30.45 26.1399 30.53 26.2899C30.61 26.4399 30.66 26.5899 30.66 26.7299C30.66 26.7699 30.65 26.7999 30.62 26.8299C30.59 26.8599 30.56 26.8699 30.52 26.8699H29.75C29.75 26.8699 29.66 26.8699 29.63 26.8399C29.59 26.8199 29.56 26.7899 29.54 26.7399C29.51 26.6199 29.43 26.5199 29.3 26.4299C29.17 26.3399 28.99 26.2999 28.77 26.2999C28.55 26.2999 28.37 26.3399 28.24 26.4199C28.11 26.4999 28.04 26.6299 28.04 26.7999C28.04 26.9099 28.07 26.9999 28.14 27.0799C28.21 27.1599 28.32 27.2199 28.48 27.2799C28.64 27.3399 28.85 27.3999 29.11 27.4699C29.51 27.5499 29.84 27.6499 30.09 27.7699C30.34 27.8899 30.53 28.0299 30.65 28.2099C30.77 28.3899 30.83 28.6199 30.83 28.8899C30.83 29.1999 30.74 29.4599 30.57 29.6799C30.4 29.8999 30.16 30.0699 29.86 30.1899C29.56 30.3099 29.21 30.3699 28.81 30.3699V30.3499Z" fill="white"></path><path d="M31.73 30.28C31.68 30.28 31.64 30.26 31.61 30.23C31.58 30.2 31.56 30.16 31.56 30.11V25.64C31.56 25.59 31.58 25.55 31.61 25.52C31.64 25.49 31.68 25.47 31.73 25.47H32.51C32.56 25.47 32.6 25.49 32.63 25.52C32.66 25.55 32.68 25.59 32.68 25.64V30.11C32.68 30.16 32.66 30.2 32.63 30.23C32.6 30.26 32.56 30.28 32.51 30.28H31.73Z" fill="white"></path><path d="M33.87 30.28C33.82 30.28 33.78 30.26 33.75 30.23C33.72 30.2 33.7 30.16 33.7 30.11V25.64C33.7 25.59 33.72 25.55 33.75 25.52C33.78 25.49 33.82 25.47 33.87 25.47H34.5C34.57 25.47 34.62 25.49 34.65 25.52C34.68 25.55 34.7 25.58 34.71 25.6L36.55 28.47V25.65C36.55 25.6 36.57 25.56 36.6 25.53C36.63 25.5 36.67 25.48 36.72 25.48H37.42C37.47 25.48 37.51 25.5 37.54 25.53C37.57 25.56 37.59 25.6 37.59 25.65V30.12C37.59 30.12 37.57 30.21 37.54 30.24C37.51 30.27 37.47 30.29 37.42 30.29H36.79C36.72 30.29 36.67 30.27 36.64 30.24C36.61 30.21 36.59 30.18 36.57 30.17L34.74 27.39V30.12C34.74 30.17 34.72 30.21 34.69 30.24C34.66 30.27 34.62 30.29 34.57 30.29H33.87V30.28Z" fill="white"></path><path d="M18.07 38.54C18.02 38.54 17.98 38.52 17.95 38.49C17.92 38.46 17.9 38.42 17.9 38.37V33.89C17.9 33.84 17.92 33.8 17.95 33.77C17.98 33.74 18.02 33.72 18.07 33.72H19.89C20.46 33.72 20.92 33.85 21.25 34.12C21.58 34.38 21.75 34.76 21.75 35.26C21.75 35.59 21.67 35.88 21.51 36.1C21.35 36.32 21.13 36.49 20.86 36.6L21.83 38.32C21.83 38.32 21.85 38.37 21.85 38.4C21.85 38.44 21.84 38.47 21.81 38.5C21.78 38.53 21.75 38.54 21.71 38.54H20.95C20.87 38.54 20.81 38.52 20.76 38.47C20.72 38.43 20.69 38.39 20.67 38.35L19.83 36.77H19V38.36C19 38.41 18.98 38.45 18.95 38.48C18.92 38.51 18.88 38.53 18.83 38.53H18.08L18.07 38.54ZM18.99 35.9H19.87C20.12 35.9 20.31 35.84 20.43 35.73C20.55 35.62 20.61 35.45 20.61 35.25C20.61 35.05 20.55 34.88 20.43 34.76C20.31 34.64 20.12 34.58 19.87 34.58H18.99V35.9Z" fill="white"></path><path d="M22.77 38.54C22.72 38.54 22.68 38.52 22.65 38.49C22.62 38.46 22.6 38.42 22.6 38.37V33.89C22.6 33.84 22.62 33.8 22.65 33.77C22.68 33.74 22.72 33.72 22.77 33.72H23.55C23.6 33.72 23.64 33.74 23.67 33.77C23.7 33.8 23.72 33.84 23.72 33.89V38.37C23.72 38.42 23.7 38.46 23.67 38.49C23.64 38.52 23.6 38.54 23.55 38.54H22.77Z" fill="white"></path><path d="M24.91 38.54C24.86 38.54 24.82 38.52 24.79 38.49C24.76 38.46 24.74 38.42 24.74 38.37V33.89C24.74 33.84 24.76 33.8 24.79 33.77C24.82 33.74 24.86 33.72 24.91 33.72H28.03C28.08 33.72 28.12 33.74 28.15 33.77C28.18 33.8 28.2 33.84 28.2 33.89V34.44C28.2 34.44 28.18 34.52 28.15 34.56C28.12 34.59 28.08 34.61 28.03 34.61H25.8V35.69H27.88C27.93 35.69 27.97 35.71 28 35.74C28.03 35.77 28.05 35.81 28.05 35.86V36.37C28.05 36.37 28.03 36.45 28 36.49C27.97 36.53 27.93 36.54 27.88 36.54H25.8V37.66H28.09C28.14 37.66 28.18 37.68 28.21 37.71C28.24 37.74 28.26 37.78 28.26 37.83V38.37C28.26 38.42 28.24 38.46 28.21 38.49C28.18 38.52 28.14 38.54 28.09 38.54H24.92H24.91Z" fill="white"></path><path d="M30.81 38.6099C30.37 38.6099 30 38.5499 29.71 38.4199C29.41 38.2899 29.19 38.1199 29.04 37.9199C28.89 37.7099 28.81 37.4899 28.8 37.2599C28.8 37.2199 28.81 37.1899 28.84 37.1599C28.87 37.1299 28.9 37.1199 28.94 37.1199H29.68C29.74 37.1199 29.79 37.1299 29.82 37.1599C29.85 37.1899 29.88 37.2199 29.91 37.2499C29.94 37.3299 29.99 37.3999 30.06 37.4799C30.13 37.5499 30.23 37.6099 30.35 37.6599C30.47 37.7099 30.63 37.7299 30.81 37.7299C31.11 37.7299 31.33 37.6799 31.48 37.5899C31.63 37.4899 31.7 37.3599 31.7 37.1999C31.7 37.0799 31.66 36.9799 31.58 36.9099C31.5 36.8399 31.37 36.7699 31.2 36.7099C31.03 36.6499 30.8 36.5899 30.51 36.5199C30.17 36.4499 29.87 36.3499 29.63 36.2299C29.39 36.1099 29.21 35.9599 29.09 35.7699C28.97 35.5799 28.91 35.3499 28.91 35.0799C28.91 34.8099 28.99 34.5599 29.14 34.3499C29.29 34.1399 29.51 33.9699 29.78 33.8499C30.06 33.7299 30.38 33.6699 30.76 33.6699C31.07 33.6699 31.34 33.7099 31.58 33.7899C31.82 33.8699 32.01 33.9799 32.17 34.1099C32.33 34.2399 32.45 34.3899 32.53 34.5399C32.61 34.6899 32.66 34.8399 32.66 34.9799C32.66 35.0199 32.65 35.0499 32.62 35.0799C32.59 35.1099 32.56 35.1199 32.52 35.1199H31.75C31.75 35.1199 31.66 35.1199 31.63 35.0899C31.59 35.0699 31.56 35.0399 31.54 34.9899C31.51 34.8699 31.43 34.7699 31.3 34.6799C31.16 34.5899 30.99 34.5499 30.77 34.5499C30.55 34.5499 30.37 34.5899 30.24 34.6699C30.11 34.7499 30.04 34.8799 30.04 35.0499C30.04 35.1599 30.07 35.2499 30.14 35.3299C30.21 35.4099 30.32 35.4699 30.48 35.5299C30.64 35.5899 30.85 35.6499 31.11 35.7199C31.51 35.7999 31.84 35.8999 32.09 36.0199C32.34 36.1399 32.53 36.2799 32.65 36.4599C32.77 36.6399 32.83 36.8699 32.83 37.1499C32.83 37.4599 32.74 37.7199 32.57 37.9399C32.4 38.1599 32.16 38.3299 31.86 38.4499C31.56 38.5699 31.21 38.6299 30.81 38.6299V38.6099Z" fill="white"></path><path d="M35.5 38.6099C35.07 38.6099 34.7 38.5399 34.39 38.3899C34.09 38.2499 33.85 38.0299 33.68 37.7599C33.51 37.4799 33.42 37.1499 33.41 36.7499C33.41 36.5499 33.41 36.3399 33.41 36.1199C33.41 35.8999 33.41 35.6799 33.41 35.4799C33.42 35.0899 33.51 34.7699 33.68 34.4899C33.85 34.2199 34.09 34.0099 34.4 33.8699C34.71 33.7299 35.08 33.6499 35.5 33.6499C35.84 33.6499 36.14 33.6899 36.39 33.7799C36.65 33.8699 36.86 33.9799 37.04 34.1199C37.21 34.2599 37.35 34.4099 37.44 34.5799C37.53 34.7499 37.58 34.8999 37.58 35.0599C37.58 35.0999 37.57 35.1399 37.54 35.1699C37.51 35.1999 37.48 35.2099 37.43 35.2099H36.58C36.58 35.2099 36.5 35.2099 36.47 35.1799C36.45 35.1599 36.42 35.1399 36.41 35.0999C36.38 35.0199 36.33 34.9299 36.25 34.8499C36.18 34.7699 36.08 34.6899 35.96 34.6299C35.84 34.5699 35.68 34.5399 35.49 34.5399C35.2 34.5399 34.97 34.6199 34.8 34.7699C34.63 34.9199 34.54 35.1699 34.53 35.5099C34.52 35.8999 34.52 36.3099 34.53 36.7199C34.54 37.0799 34.64 37.3399 34.81 37.4899C34.98 37.6499 35.21 37.7199 35.5 37.7199C35.69 37.7199 35.86 37.6899 36.01 37.6199C36.16 37.5499 36.28 37.4499 36.36 37.3099C36.44 37.1699 36.49 36.9899 36.49 36.7699V36.5999H35.74C35.74 36.5999 35.66 36.5799 35.62 36.5499C35.58 36.5199 35.57 36.4799 35.57 36.4299V35.9899C35.57 35.9899 35.59 35.8999 35.62 35.8699C35.65 35.8399 35.69 35.8199 35.74 35.8199H37.43C37.48 35.8199 37.52 35.8399 37.55 35.8699C37.58 35.8999 37.6 35.9399 37.6 35.9899V36.7399C37.6 37.1299 37.51 37.4699 37.34 37.7499C37.17 38.0299 36.92 38.2499 36.6 38.3899C36.28 38.5399 35.91 38.6099 35.48 38.6099H35.5Z" fill="white"></path><path d="M40.37 38.6099C39.95 38.6099 39.59 38.5399 39.29 38.3999C38.99 38.2599 38.75 38.0499 38.58 37.7799C38.41 37.4999 38.32 37.1499 38.3 36.7299C38.3 36.5299 38.3 36.3399 38.3 36.1399C38.3 35.9399 38.3 35.7499 38.3 35.5399C38.31 35.1299 38.41 34.7799 38.58 34.4999C38.75 34.2199 38.99 34.0099 39.3 33.8599C39.61 33.7199 39.96 33.6499 40.37 33.6499C40.78 33.6499 41.13 33.7199 41.43 33.8599C41.73 33.9999 41.97 34.2099 42.15 34.4999C42.32 34.7799 42.42 35.1299 42.43 35.5399C42.43 35.7399 42.44 35.9399 42.44 36.1399C42.44 36.3399 42.44 36.5299 42.43 36.7299C42.42 37.1499 42.32 37.4999 42.15 37.7799C41.98 38.0599 41.74 38.2699 41.44 38.3999C41.14 38.5399 40.78 38.6099 40.37 38.6099ZM40.37 37.7199C40.64 37.7199 40.86 37.6399 41.03 37.4799C41.2 37.3199 41.29 37.0599 41.3 36.6999C41.3 36.4999 41.31 36.3099 41.31 36.1299C41.31 35.9499 41.31 35.7699 41.3 35.5699C41.3 35.3299 41.25 35.1399 41.17 34.9899C41.09 34.8399 40.98 34.7299 40.84 34.6599C40.7 34.5899 40.55 34.5499 40.37 34.5499C40.19 34.5499 40.03 34.5899 39.89 34.6599C39.75 34.7299 39.64 34.8399 39.56 34.9899C39.48 35.1399 39.44 35.3399 39.43 35.5699C39.43 35.7699 39.43 35.9499 39.43 36.1299C39.43 36.3099 39.43 36.4999 39.43 36.6999C39.44 37.0599 39.54 37.3199 39.71 37.4799C39.88 37.6399 40.1 37.7199 40.37 37.7199Z" fill="white"></path><path d="M45.03 38.6099C44.59 38.6099 44.22 38.5499 43.93 38.4199C43.63 38.2899 43.41 38.1199 43.26 37.9199C43.11 37.7099 43.03 37.4899 43.02 37.2599C43.02 37.2199 43.03 37.1899 43.06 37.1599C43.09 37.1299 43.12 37.1199 43.16 37.1199H43.9C43.96 37.1199 44.01 37.1299 44.04 37.1599C44.07 37.1899 44.1 37.2199 44.13 37.2499C44.16 37.3299 44.21 37.3999 44.28 37.4799C44.35 37.5599 44.45 37.6099 44.57 37.6599C44.69 37.7099 44.85 37.7299 45.03 37.7299C45.33 37.7299 45.55 37.6799 45.7 37.5899C45.85 37.4899 45.92 37.3599 45.92 37.1999C45.92 37.0799 45.88 36.9799 45.8 36.9099C45.72 36.8399 45.59 36.7699 45.42 36.7099C45.25 36.6499 45.02 36.5899 44.73 36.5199C44.39 36.4499 44.09 36.3499 43.85 36.2299C43.61 36.1099 43.43 35.9599 43.31 35.7699C43.19 35.5799 43.13 35.3499 43.13 35.0799C43.13 34.8099 43.21 34.5599 43.36 34.3499C43.51 34.1399 43.73 33.9699 44 33.8499C44.28 33.7299 44.6 33.6699 44.98 33.6699C45.29 33.6699 45.56 33.7099 45.8 33.7899C46.04 33.8699 46.23 33.9799 46.39 34.1099C46.55 34.2399 46.67 34.3899 46.75 34.5399C46.83 34.6899 46.88 34.8399 46.88 34.9799C46.88 35.0199 46.87 35.0499 46.84 35.0799C46.81 35.1099 46.78 35.1199 46.74 35.1199H45.97C45.97 35.1199 45.88 35.1199 45.85 35.0899C45.81 35.0699 45.78 35.0399 45.76 34.9899C45.73 34.8699 45.65 34.7699 45.51 34.6799C45.38 34.5899 45.2 34.5499 44.98 34.5499C44.76 34.5499 44.58 34.5899 44.45 34.6699C44.32 34.7499 44.25 34.8799 44.25 35.0499C44.25 35.1599 44.28 35.2499 44.35 35.3299C44.42 35.4099 44.53 35.4699 44.69 35.5299C44.85 35.5899 45.06 35.6499 45.32 35.7199C45.72 35.7999 46.05 35.8999 46.3 36.0199C46.55 36.1399 46.74 36.2799 46.86 36.4599C46.98 36.6399 47.04 36.8699 47.04 37.1499C47.04 37.4599 46.95 37.7199 46.78 37.9399C46.61 38.1599 46.37 38.3299 46.07 38.4499C45.77 38.5699 45.42 38.6299 45.02 38.6299L45.03 38.6099Z" fill="white"></path><path d="M16.33 16.5202C16.06 16.7902 15.78 16.9702 15.5 17.0702C15.22 17.1702 14.94 17.1902 14.66 17.1202C14.38 17.0502 14.12 16.9002 13.87 16.6602C13.75 16.5402 13.62 16.4102 13.48 16.2702C13.34 16.1302 13.21 16.0002 13.09 15.8702C12.86 15.6202 12.72 15.3602 12.66 15.0902C12.6 14.8202 12.63 14.5402 12.73 14.2602C12.84 13.9802 13.03 13.7102 13.29 13.4402C13.51 13.2302 13.72 13.0702 13.94 12.9602C14.16 12.8502 14.36 12.7902 14.56 12.7702C14.76 12.7502 14.93 12.7602 15.09 12.8102C15.25 12.8502 15.38 12.9202 15.47 13.0202C15.5 13.0502 15.51 13.0802 15.51 13.1102C15.51 13.1502 15.5 13.1802 15.47 13.2102L14.93 13.7402C14.93 13.7402 14.87 13.7902 14.85 13.7902C14.82 13.7902 14.79 13.7902 14.76 13.7802C14.69 13.7502 14.6 13.7302 14.51 13.7202C14.41 13.7202 14.31 13.7202 14.2 13.7602C14.09 13.8002 13.97 13.8802 13.85 14.0002C13.67 14.1802 13.57 14.3702 13.55 14.5702C13.53 14.7702 13.63 14.9802 13.83 15.2002C14.06 15.4502 14.31 15.7002 14.57 15.9502C14.8 16.1602 15.01 16.2702 15.22 16.2602C15.42 16.2502 15.62 16.1502 15.8 15.9702C15.92 15.8502 16.01 15.7302 16.06 15.5902C16.11 15.4602 16.12 15.3202 16.09 15.1702C16.06 15.0302 15.97 14.8902 15.84 14.7502L15.74 14.6402L15.26 15.1102C15.26 15.1102 15.2 15.1502 15.15 15.1502C15.11 15.1502 15.07 15.1302 15.05 15.1102L14.78 14.8402C14.78 14.8402 14.73 14.7702 14.74 14.7302C14.74 14.6902 14.76 14.6602 14.78 14.6302L15.85 13.5802C15.85 13.5802 15.92 13.5302 15.96 13.5302C16 13.5302 16.04 13.5502 16.07 13.5802L16.53 14.0502C16.77 14.3002 16.92 14.5602 16.98 14.8402C17.04 15.1202 17.02 15.4102 16.91 15.7002C16.8 15.9902 16.61 16.2702 16.34 16.5402L16.33 16.5202Z" fill="white"></path><path d="M17.77 15.0301C17.77 15.0301 17.71 15.0601 17.67 15.0501C17.63 15.0501 17.61 15.0301 17.59 15.0001C17.58 14.9801 17.57 14.9701 17.57 14.9501L16.63 10.9401C16.63 10.9401 16.61 10.8501 16.63 10.8001C16.64 10.7501 16.68 10.7101 16.73 10.6801L17.38 10.2401C17.43 10.2001 17.49 10.1901 17.53 10.2001C17.58 10.2001 17.62 10.2201 17.65 10.2501L21.01 12.6401C21.01 12.6401 21.04 12.6701 21.05 12.6801C21.07 12.7101 21.07 12.7401 21.07 12.7701C21.07 12.8101 21.05 12.8301 21.02 12.8501L20.49 13.2101C20.44 13.2401 20.39 13.2601 20.36 13.2501C20.33 13.2401 20.29 13.2301 20.27 13.2101L19.68 12.8001L18.25 13.7601L18.41 14.4601C18.41 14.4601 18.41 14.5201 18.41 14.5601C18.41 14.6001 18.37 14.6401 18.32 14.6701L17.79 15.0201L17.77 15.0301ZM17.99 13.0001L19.04 12.2901L17.55 11.2101L17.98 13.0001H17.99Z" fill="white"></path><path d="M21.56 12.61C21.56 12.61 21.48 12.63 21.44 12.61C21.4 12.6 21.38 12.57 21.36 12.53L19.81 8.95005C19.81 8.95005 19.79 8.87005 19.81 8.83005C19.82 8.79005 19.85 8.77005 19.89 8.75005L21.38 8.11005C21.85 7.91005 22.26 7.86005 22.62 7.95005C22.98 8.04005 23.25 8.29005 23.42 8.69005C23.54 8.96005 23.57 9.21005 23.51 9.45005C23.46 9.69005 23.34 9.90005 23.16 10.08L24.55 11.12C24.55 11.12 24.59 11.16 24.59 11.17C24.6 11.2 24.6 11.23 24.59 11.26C24.58 11.29 24.55 11.32 24.52 11.33L23.9 11.6C23.83 11.63 23.77 11.63 23.73 11.61C23.68 11.59 23.64 11.57 23.62 11.55L22.39 10.58L21.71 10.87L22.26 12.14C22.26 12.14 22.28 12.22 22.26 12.26C22.24 12.3 22.22 12.32 22.18 12.34L21.57 12.6L21.56 12.61ZM21.4 10.18L22.12 9.87005C22.33 9.78005 22.46 9.67005 22.52 9.54005C22.58 9.41005 22.57 9.25005 22.5 9.09005C22.43 8.92005 22.32 8.82005 22.19 8.76005C22.05 8.71005 21.88 8.72005 21.67 8.82005L20.95 9.13005L21.41 10.19L21.4 10.18Z" fill="white"></path><path d="M24.81 11.2201C24.81 11.2201 24.74 11.2201 24.71 11.2001C24.68 11.1801 24.66 11.1601 24.65 11.1201C24.65 11.1001 24.65 11.0801 24.65 11.0701L25.21 6.98007C25.21 6.98007 25.23 6.89007 25.26 6.85007C25.29 6.81007 25.34 6.78007 25.4 6.77007L26.16 6.60007C26.22 6.59007 26.28 6.59007 26.32 6.61007C26.36 6.63007 26.4 6.66007 26.42 6.70007L28.7 10.1401C28.7 10.1401 28.71 10.1701 28.72 10.1901C28.72 10.2201 28.72 10.2501 28.7 10.2801C28.68 10.3101 28.65 10.3301 28.62 10.3401L28 10.4801C27.94 10.4901 27.89 10.4801 27.86 10.4801C27.83 10.4601 27.8 10.4401 27.79 10.4201L27.38 9.82007L25.7 10.2101L25.59 10.9201C25.59 10.9201 25.57 10.9701 25.55 11.0101C25.53 11.0401 25.49 11.0701 25.43 11.0801L24.81 11.2201ZM25.74 9.40007L26.97 9.12007L25.97 7.58007L25.74 9.41007V9.40007Z" fill="white"></path><path d="M29.2 10.3C29.2 10.3 29.12 10.29 29.09 10.26C29.06 10.23 29.05 10.2 29.04 10.15L28.89 6.24998C28.89 6.24998 28.9 6.16998 28.93 6.13998C28.96 6.10998 28.99 6.09998 29.04 6.08998L29.6 6.06998C29.66 6.06998 29.71 6.06998 29.74 6.10998C29.77 6.13998 29.79 6.15998 29.8 6.16998L31.53 8.60998L31.44 6.14998C31.44 6.14998 31.45 6.06998 31.48 6.03998C31.51 6.00998 31.54 5.99998 31.58 5.99998L32.2 5.97998C32.2 5.97998 32.28 5.98998 32.31 6.01998C32.34 6.04998 32.36 6.07998 32.36 6.12998L32.51 10.03C32.51 10.03 32.5 10.11 32.47 10.14C32.44 10.17 32.41 10.19 32.36 10.19L31.8 10.21C31.74 10.21 31.69 10.2 31.67 10.17C31.64 10.14 31.62 10.12 31.61 10.11L29.89 7.74998L29.98 10.13C29.98 10.13 29.97 10.21 29.94 10.24C29.91 10.27 29.88 10.28 29.83 10.29L29.21 10.31L29.2 10.3Z" fill="white"></path><path d="M34.29 10.38C34.29 10.38 34.21 10.35 34.19 10.32C34.17 10.29 34.16 10.25 34.16 10.21L34.59 7.02003L33.49 6.87003C33.49 6.87003 33.42 6.85003 33.39 6.81003C33.37 6.78003 33.36 6.74003 33.36 6.70003L33.43 6.16003C33.43 6.16003 33.45 6.08003 33.49 6.06003C33.52 6.04003 33.56 6.03003 33.6 6.03003L36.78 6.46003C36.78 6.46003 36.86 6.49003 36.88 6.52003C36.91 6.55003 36.91 6.59003 36.91 6.63003L36.84 7.16003C36.84 7.16003 36.82 7.23003 36.78 7.26003C36.74 7.29003 36.71 7.29003 36.67 7.29003L35.57 7.14003L35.14 10.33C35.14 10.33 35.12 10.41 35.08 10.43C35.05 10.45 35.01 10.46 34.97 10.46L34.3 10.37L34.29 10.38Z" fill="white"></path><path d="M36.97 10.87C36.97 10.87 36.89 10.84 36.87 10.8C36.85 10.77 36.84 10.73 36.86 10.68L37.84 6.91005C37.84 6.91005 37.87 6.84005 37.91 6.82005C37.95 6.80005 37.98 6.80005 38.03 6.81005L38.7 6.99005C38.7 6.99005 38.78 7.02005 38.8 7.06005C38.82 7.09005 38.83 7.13005 38.81 7.18005L37.83 10.95C37.83 10.95 37.8 11.02 37.76 11.04C37.73 11.06 37.69 11.06 37.64 11.05L36.97 10.87ZM38.12 6.52005C38.06 6.50005 38.03 6.46005 38.05 6.40005C38.05 6.37005 38.07 6.35005 38.1 6.33005L38.76 5.86005C38.76 5.86005 38.85 5.80005 38.88 5.80005C38.91 5.80005 38.96 5.80005 39.01 5.81005L39.74 6.00005C39.81 6.02005 39.84 6.07005 39.82 6.15005C39.82 6.18005 39.8 6.20005 39.77 6.21005L38.85 6.62005C38.85 6.62005 38.77 6.65005 38.74 6.66005C38.7 6.66005 38.66 6.66005 38.61 6.65005L38.12 6.52005Z" fill="white"></path><path d="M38.33 11.16C38.33 11.16 38.27 11.12 38.26 11.09C38.25 11.06 38.25 11.02 38.26 11C38.26 10.98 38.28 10.97 38.29 10.95L41.1 7.94002C41.1 7.94002 41.16 7.88002 41.21 7.86002C41.26 7.84002 41.31 7.85002 41.37 7.87002L42.09 8.17002C42.15 8.19002 42.19 8.23002 42.21 8.27002C42.23 8.31002 42.24 8.36002 42.23 8.40002L42.11 12.52C42.11 12.52 42.11 12.55 42.1 12.57C42.09 12.6 42.06 12.62 42.03 12.64C42 12.65 41.96 12.65 41.93 12.64L41.34 12.4C41.28 12.38 41.25 12.35 41.23 12.31C41.21 12.27 41.21 12.24 41.21 12.22V11.5L39.63 10.84L39.13 11.36C39.13 11.36 39.09 11.4 39.05 11.41C39.01 11.42 38.97 11.42 38.91 11.4L38.32 11.16H38.33ZM40.14 10.21L41.31 10.69L41.38 8.85002L40.13 10.21H40.14Z" fill="white"></path><path d="M43.5 13.5701C43.5 13.5701 43.44 13.5101 43.44 13.4701C43.44 13.4301 43.44 13.3901 43.47 13.3601L45.77 10.2101C45.77 10.2101 45.83 10.1501 45.87 10.1501C45.91 10.1501 45.95 10.1501 45.98 10.1801L47.22 11.0901C47.55 11.3301 47.79 11.5801 47.93 11.8501C48.08 12.1101 48.14 12.3901 48.11 12.6701C48.08 12.9501 47.97 13.2401 47.77 13.5301C47.67 13.6701 47.58 13.8001 47.5 13.9101C47.42 14.0201 47.33 14.1401 47.23 14.2701C47 14.5601 46.76 14.7701 46.5 14.8801C46.24 15.0001 45.97 15.0201 45.69 14.9601C45.4 14.9001 45.1 14.7501 44.77 14.5101L43.51 13.5901L43.5 13.5701ZM44.62 13.4301L45.2 13.8501C45.36 13.9701 45.52 14.0401 45.66 14.0701C45.8 14.1001 45.93 14.0701 46.06 14.0101C46.19 13.9401 46.31 13.8301 46.44 13.6601C46.51 13.5701 46.58 13.4901 46.63 13.4101C46.69 13.3401 46.74 13.2601 46.79 13.1901C46.84 13.1101 46.9 13.0301 46.96 12.9401C47.13 12.6901 47.2 12.4701 47.16 12.2701C47.12 12.0701 46.98 11.8701 46.73 11.6901L46.18 11.2901L44.61 13.4301H44.62Z" fill="white"></path><path d="M46.76 16.1C46.76 16.1 46.71 16.03 46.72 15.99C46.72 15.95 46.74 15.91 46.77 15.88L49.59 13.19C49.59 13.19 49.66 13.14 49.7 13.15C49.74 13.15 49.78 13.17 49.81 13.2L51.72 15.21C51.72 15.21 51.77 15.28 51.77 15.32C51.77 15.36 51.75 15.4 51.72 15.43L51.37 15.76C51.37 15.76 51.31 15.8 51.27 15.8C51.23 15.8 51.19 15.78 51.16 15.75L49.79 14.32L49.11 14.97L50.39 16.31C50.39 16.31 50.44 16.38 50.44 16.42C50.44 16.46 50.42 16.5 50.39 16.52L50.07 16.83C50.07 16.83 50.01 16.87 49.97 16.87C49.93 16.87 49.89 16.85 49.86 16.82L48.58 15.48L47.88 16.15L49.28 17.62C49.28 17.62 49.33 17.69 49.33 17.73C49.33 17.77 49.31 17.81 49.28 17.84L48.94 18.17C48.94 18.17 48.87 18.21 48.83 18.21C48.79 18.21 48.75 18.19 48.72 18.16L46.77 16.12L46.76 16.1Z" fill="white"></path><path d="M5.87 34.0799C5.83 33.6899 5.85 33.3599 5.93 33.0799C6.01 32.8099 6.14 32.5899 6.3 32.4399C6.47 32.2899 6.65 32.1999 6.85 32.1699C6.88 32.1699 6.91 32.1699 6.94 32.1999C6.97 32.2199 6.98 32.2499 6.99 32.2899L7.06 32.9399C7.06 32.9899 7.06 33.0299 7.04 33.0599C7.02 33.0899 7 33.1199 6.97 33.1499C6.91 33.1899 6.85 33.2399 6.79 33.3099C6.73 33.3799 6.69 33.4699 6.66 33.5899C6.63 33.6999 6.62 33.8399 6.64 33.9999C6.67 34.2599 6.73 34.4599 6.83 34.5799C6.93 34.6999 7.05 34.7599 7.19 34.7399C7.29 34.7299 7.37 34.6899 7.43 34.6099C7.49 34.5299 7.53 34.4099 7.57 34.2599C7.61 34.0999 7.64 33.8899 7.67 33.6399C7.7 33.3299 7.76 33.0599 7.84 32.8399C7.92 32.6199 8.03 32.4399 8.18 32.3199C8.33 32.1999 8.52 32.1199 8.76 32.0999C9 32.0799 9.22 32.1199 9.42 32.2299C9.62 32.3399 9.78 32.5199 9.92 32.7499C10.05 32.9799 10.13 33.2699 10.17 33.5999C10.2 33.8699 10.19 34.1199 10.14 34.3299C10.09 34.5499 10.02 34.7299 9.91 34.8799C9.81 35.0299 9.7 35.1499 9.57 35.2399C9.45 35.3299 9.32 35.3799 9.2 35.3999C9.17 35.3999 9.14 35.3999 9.11 35.3699C9.08 35.3499 9.07 35.3199 9.06 35.2799L8.99 34.5999C8.99 34.5999 8.99 34.5199 9 34.4899C9.01 34.4599 9.04 34.4299 9.08 34.3999C9.18 34.3599 9.26 34.2799 9.33 34.1499C9.39 34.0199 9.42 33.8599 9.4 33.6699C9.38 33.4699 9.33 33.3199 9.24 33.2099C9.16 33.0999 9.04 33.0499 8.89 33.0699C8.79 33.0799 8.72 33.1199 8.66 33.1799C8.6 33.2499 8.55 33.3499 8.52 33.4999C8.48 33.6499 8.45 33.8399 8.41 34.0699C8.38 34.4299 8.32 34.7299 8.24 34.9699C8.16 35.1999 8.05 35.3799 7.91 35.4999C7.76 35.6199 7.57 35.6999 7.33 35.7199C7.06 35.7499 6.83 35.6999 6.62 35.5599C6.41 35.4299 6.24 35.2299 6.12 34.9799C5.99 34.7299 5.91 34.4199 5.87 34.0699V34.0799Z" fill="white"></path><path d="M6.28 36.7398C6.28 36.7398 6.28 36.6698 6.29 36.6398C6.31 36.6098 6.33 36.5898 6.36 36.5798C6.38 36.5798 6.4 36.5798 6.41 36.5798L10.52 36.8798C10.52 36.8798 10.61 36.8898 10.65 36.9198C10.69 36.9498 10.72 36.9898 10.74 37.0498L10.96 37.7998C10.98 37.8598 10.98 37.9198 10.96 37.9598C10.94 37.9998 10.91 38.0398 10.87 38.0598L7.59 40.5598C7.59 40.5598 7.56 40.5798 7.54 40.5798C7.51 40.5798 7.48 40.5798 7.45 40.5798C7.42 40.5598 7.4 40.5398 7.39 40.4998L7.21 39.8898C7.19 39.8298 7.19 39.7798 7.21 39.7498C7.23 39.7098 7.25 39.6898 7.27 39.6798L7.84 39.2398L7.35 37.5898L6.63 37.5298C6.63 37.5298 6.57 37.5198 6.54 37.4998C6.51 37.4798 6.48 37.4398 6.46 37.3798L6.28 36.7698V36.7398ZM8.16 37.5598L8.52 38.7698L10 37.6698L8.16 37.5498V37.5598Z" fill="white"></path><path d="M8.17 42.1299C8.17 42.1299 8.15 42.0499 8.16 42.0099C8.17 41.9699 8.2 41.9399 8.24 41.9199L11.13 40.5199L10.64 39.5199C10.64 39.5199 10.62 39.4499 10.64 39.4099C10.65 39.3699 10.68 39.3399 10.71 39.3299L11.2 39.0899C11.2 39.0899 11.28 39.0699 11.32 39.0899C11.36 39.0999 11.39 39.1299 11.4 39.1699L12.8 42.0599C12.8 42.0599 12.82 42.1399 12.81 42.1799C12.8 42.2199 12.77 42.2499 12.73 42.2599L12.24 42.4999C12.24 42.4999 12.17 42.5199 12.13 42.4999C12.09 42.4899 12.06 42.4599 12.04 42.4199L11.56 41.4199L8.67 42.8199C8.67 42.8199 8.59 42.8399 8.55 42.8199C8.51 42.8099 8.48 42.7799 8.46 42.7399L8.16 42.1299H8.17Z" fill="white"></path><path d="M9.72999 44.97C9.72999 44.97 9.7 44.8899 9.71 44.8499C9.71 44.8099 9.73999 44.7799 9.77999 44.7599L13.05 42.63C13.05 42.63 13.12 42.6 13.16 42.61C13.2 42.61 13.23 42.64 13.25 42.68L13.63 43.2599C13.63 43.2599 13.66 43.34 13.65 43.38C13.65 43.42 13.62 43.45 13.58 43.47L10.31 45.5999C10.31 45.5999 10.24 45.6299 10.2 45.6199C10.16 45.6199 10.13 45.5899 10.11 45.5499L9.72999 44.97Z" fill="white"></path><path d="M11.88 47.9898C11.63 47.6898 11.46 47.4098 11.37 47.1298C11.28 46.8498 11.27 46.6098 11.32 46.3898C11.37 46.1698 11.47 45.9898 11.62 45.8498C11.64 45.8298 11.67 45.8198 11.71 45.8198C11.75 45.8198 11.78 45.8398 11.8 45.8598L12.23 46.3598C12.23 46.3598 12.28 46.4398 12.28 46.4798C12.28 46.5198 12.28 46.5498 12.28 46.5898C12.25 46.6598 12.23 46.7298 12.22 46.8198C12.22 46.9098 12.22 47.0098 12.27 47.1198C12.31 47.2298 12.38 47.3498 12.49 47.4698C12.66 47.6698 12.82 47.7998 12.97 47.8398C13.12 47.8898 13.25 47.8598 13.36 47.7698C13.44 47.6998 13.48 47.6198 13.48 47.5198C13.48 47.4198 13.45 47.2998 13.39 47.1498C13.33 46.9998 13.24 46.8098 13.12 46.5798C12.97 46.3098 12.86 46.0498 12.8 45.8298C12.74 45.5998 12.73 45.3898 12.79 45.2098C12.84 45.0198 12.96 44.8498 13.14 44.6898C13.32 44.5298 13.53 44.4498 13.76 44.4298C13.99 44.4098 14.22 44.4598 14.46 44.5798C14.7 44.6998 14.93 44.8798 15.15 45.1398C15.33 45.3498 15.46 45.5598 15.54 45.7598C15.62 45.9698 15.66 46.1598 15.67 46.3398C15.67 46.5198 15.65 46.6798 15.6 46.8298C15.55 46.9698 15.48 47.0798 15.38 47.1698C15.35 47.1898 15.33 47.1998 15.29 47.1998C15.25 47.1998 15.22 47.1798 15.2 47.1598L14.75 46.6398C14.75 46.6398 14.71 46.5798 14.7 46.5398C14.7 46.4998 14.7 46.4698 14.71 46.4198C14.77 46.3298 14.79 46.2198 14.78 46.0798C14.76 45.9398 14.69 45.7898 14.56 45.6498C14.43 45.4998 14.3 45.3998 14.17 45.3598C14.04 45.3198 13.92 45.3498 13.81 45.4398C13.74 45.4998 13.69 45.5798 13.68 45.6698C13.67 45.7598 13.68 45.8698 13.74 46.0098C13.79 46.1498 13.87 46.3298 13.98 46.5398C14.16 46.8598 14.28 47.1398 14.35 47.3698C14.42 47.6098 14.43 47.8198 14.38 47.9998C14.33 48.1798 14.21 48.3498 14.03 48.5098C13.83 48.6798 13.6 48.7798 13.36 48.7798C13.11 48.7798 12.87 48.7198 12.61 48.5898C12.36 48.4498 12.12 48.2498 11.89 47.9798L11.88 47.9898Z" fill="white"></path><path d="M14.08 50.22C14.08 50.22 14.03 50.16 14.02 50.12C14.02 50.08 14.02 50.04 14.06 50.01L16.56 47.01C16.56 47.01 16.62 46.96 16.66 46.96C16.7 46.96 16.74 46.96 16.77 47L18.87 48.75C18.87 48.75 18.92 48.81 18.93 48.85C18.93 48.89 18.93 48.93 18.89 48.96L18.56 49.35C18.56 49.35 18.5 49.4 18.46 49.4C18.42 49.4 18.38 49.4 18.35 49.36L16.87 48.12L16.22 48.9L17.61 50.06C17.61 50.06 17.66 50.12 17.67 50.16C17.67 50.2 17.67 50.24 17.63 50.27L17.3 50.66C17.3 50.66 17.24 50.71 17.2 50.71C17.16 50.71 17.12 50.71 17.09 50.67L15.7 49.51L14.79 50.6C14.79 50.6 14.73 50.65 14.69 50.66C14.65 50.66 14.61 50.66 14.58 50.62L14.08 50.2V50.22Z" fill="white"></path><path d="M16.85 52.4999C16.85 52.4999 16.8 52.4499 16.79 52.4199C16.79 52.3799 16.79 52.3499 16.8 52.3299C16.81 52.3099 16.82 52.2999 16.83 52.2899L20.04 49.6999C20.04 49.6999 20.11 49.6499 20.16 49.6399C20.21 49.6399 20.26 49.6399 20.32 49.6799L20.99 50.0799C21.05 50.1099 21.08 50.1499 21.1 50.1999C21.12 50.2499 21.12 50.2899 21.1 50.3299L20.4 54.3899C20.4 54.3899 20.39 54.4199 20.38 54.4399C20.36 54.4699 20.34 54.4899 20.3 54.4999C20.27 54.5099 20.23 54.4999 20.2 54.4899L19.65 54.1699C19.6 54.1399 19.57 54.0999 19.56 54.0699C19.55 54.0299 19.55 53.9999 19.56 53.9699L19.67 53.2599L18.18 52.3799L17.61 52.8299C17.61 52.8299 17.56 52.8599 17.52 52.8699C17.48 52.8699 17.44 52.8699 17.38 52.8399L16.83 52.5199L16.85 52.4999ZM18.78 51.8199L19.87 52.4599L20.2 50.6499L18.77 51.8199H18.78Z" fill="white"></path><path d="M22.8 55.57C22.44 55.44 22.16 55.27 21.95 55.06C21.74 54.85 21.61 54.6 21.56 54.33C21.51 54.05 21.53 53.75 21.63 53.41C21.68 53.25 21.74 53.09 21.81 52.91C21.87 52.73 21.94 52.57 22 52.41C22.13 52.09 22.31 51.85 22.54 51.67C22.77 51.49 23.02 51.39 23.32 51.37C23.62 51.34 23.94 51.39 24.29 51.52C24.55 51.61 24.77 51.73 24.96 51.87C25.15 52.01 25.3 52.17 25.4 52.35C25.51 52.53 25.58 52.71 25.6 52.9C25.62 53.09 25.6 53.29 25.54 53.49C25.53 53.52 25.51 53.55 25.47 53.56C25.44 53.57 25.4 53.57 25.37 53.56L24.72 53.32C24.72 53.32 24.64 53.28 24.62 53.25C24.6 53.22 24.59 53.17 24.6 53.11C24.62 52.87 24.58 52.68 24.48 52.55C24.38 52.42 24.23 52.32 24.03 52.24C23.79 52.15 23.58 52.15 23.4 52.22C23.22 52.29 23.06 52.48 22.94 52.77C22.82 53.07 22.7 53.39 22.59 53.72C22.49 54.02 22.49 54.26 22.59 54.44C22.68 54.62 22.84 54.75 23.08 54.84C23.28 54.91 23.46 54.93 23.63 54.9C23.8 54.86 23.95 54.75 24.08 54.55C24.12 54.5 24.15 54.47 24.19 54.46C24.22 54.45 24.26 54.46 24.31 54.46L24.97 54.7C24.97 54.7 25.03 54.74 25.05 54.77C25.07 54.8 25.07 54.83 25.05 54.87C24.97 55.07 24.86 55.23 24.71 55.36C24.57 55.49 24.4 55.59 24.2 55.65C24 55.71 23.79 55.74 23.55 55.73C23.31 55.72 23.07 55.66 22.81 55.57H22.8Z" fill="white"></path><path d="M27.4 56.79C27.02 56.72 26.71 56.61 26.47 56.44C26.23 56.27 26.06 56.05 25.95 55.79C25.85 55.53 25.82 55.22 25.86 54.88C25.88 54.72 25.91 54.54 25.94 54.36C25.97 54.17 26 54 26.04 53.83C26.12 53.49 26.25 53.22 26.43 53.01C26.62 52.8 26.86 52.65 27.14 52.57C27.43 52.49 27.76 52.48 28.13 52.55C28.4 52.6 28.64 52.67 28.85 52.78C29.06 52.88 29.23 53.02 29.37 53.17C29.51 53.32 29.61 53.49 29.67 53.68C29.73 53.86 29.74 54.06 29.72 54.27C29.72 54.31 29.7 54.33 29.67 54.35C29.64 54.37 29.61 54.38 29.57 54.37L28.88 54.25C28.88 54.25 28.8 54.22 28.77 54.19C28.75 54.16 28.73 54.12 28.72 54.06C28.7 53.82 28.63 53.64 28.5 53.53C28.37 53.42 28.21 53.34 28 53.31C27.75 53.27 27.54 53.3 27.37 53.41C27.2 53.52 27.09 53.73 27.02 54.04C26.95 54.36 26.89 54.69 26.85 55.03C26.81 55.34 26.85 55.58 26.97 55.74C27.09 55.9 27.28 56 27.53 56.04C27.74 56.08 27.92 56.06 28.08 56C28.24 55.94 28.37 55.79 28.46 55.58C28.49 55.52 28.52 55.49 28.55 55.47C28.58 55.45 28.62 55.45 28.67 55.46L29.36 55.58C29.36 55.58 29.43 55.6 29.45 55.63C29.47 55.66 29.48 55.69 29.47 55.73C29.43 55.94 29.34 56.12 29.23 56.27C29.11 56.42 28.96 56.55 28.78 56.65C28.6 56.75 28.39 56.81 28.16 56.84C27.93 56.87 27.68 56.86 27.41 56.81L27.4 56.79Z" fill="white"></path><path d="M30.52 57.0899C30.52 57.0899 30.44 57.0699 30.41 57.0399C30.38 57.0099 30.37 56.9699 30.37 56.9299L30.53 53.0299C30.53 53.0299 30.55 52.9499 30.58 52.9199C30.61 52.8899 30.65 52.8799 30.69 52.8799L31.38 52.9099C31.38 52.9099 31.46 52.9299 31.49 52.9599C31.52 52.9899 31.53 53.0299 31.53 53.0699L31.37 56.9699C31.37 56.9699 31.35 57.0499 31.32 57.0799C31.29 57.1099 31.25 57.1199 31.21 57.1199L30.52 57.0899Z" fill="white"></path><path d="M34.42 57.0699C34.05 57.0999 33.73 57.0699 33.45 56.9799C33.17 56.8899 32.94 56.7199 32.77 56.4999C32.6 56.2799 32.49 55.9799 32.44 55.6099C32.42 55.4399 32.4 55.2699 32.39 55.0999C32.37 54.9299 32.36 54.7599 32.35 54.5799C32.33 54.2199 32.38 53.9099 32.51 53.6499C32.64 53.3899 32.83 53.1899 33.09 53.0399C33.35 52.8899 33.66 52.7999 34.02 52.7699C34.38 52.7399 34.7 52.7699 34.98 52.8699C35.26 52.9699 35.49 53.1299 35.67 53.3599C35.85 53.5899 35.96 53.8799 36 54.2399C36.02 54.4099 36.04 54.5899 36.06 54.7599C36.08 54.9299 36.09 55.0999 36.1 55.2699C36.12 55.6399 36.07 55.9499 35.94 56.1999C35.81 56.4499 35.62 56.6499 35.36 56.7999C35.1 56.9399 34.79 57.0299 34.43 57.0699H34.42ZM34.35 56.2999C34.59 56.2799 34.77 56.1899 34.91 56.0299C35.05 55.8699 35.11 55.6399 35.09 55.3299C35.09 55.1499 35.07 54.9899 35.06 54.8399C35.05 54.6899 35.03 54.5299 35 54.3499C34.98 54.1399 34.92 53.9799 34.84 53.8499C34.76 53.7299 34.65 53.6399 34.52 53.5899C34.39 53.5399 34.25 53.5199 34.09 53.5399C33.93 53.5499 33.79 53.5999 33.68 53.6699C33.56 53.7399 33.48 53.8499 33.42 53.9899C33.36 54.1299 33.34 54.2999 33.35 54.5099C33.36 54.6799 33.37 54.8399 33.39 54.9999C33.4 55.1499 33.42 55.3199 33.44 55.4899C33.48 55.7999 33.58 56.0199 33.75 56.1499C33.91 56.2799 34.12 56.3299 34.36 56.3099L34.35 56.2999Z" fill="white"></path><path d="M37.67 56.5499C37.67 56.5499 37.59 56.5499 37.55 56.5499C37.51 56.5299 37.49 56.4999 37.48 56.4599L36.41 52.7099C36.41 52.7099 36.41 52.6299 36.42 52.5899C36.44 52.5599 36.47 52.5299 36.51 52.5199L37.05 52.3699C37.11 52.3499 37.16 52.3499 37.19 52.3699C37.22 52.3899 37.25 52.4099 37.26 52.4199L39.52 54.3799L38.84 52.0199C38.84 52.0199 38.84 51.9399 38.85 51.8999C38.87 51.8699 38.9 51.8399 38.94 51.8299L39.54 51.6599C39.54 51.6599 39.62 51.6599 39.66 51.6599C39.7 51.6799 39.72 51.7099 39.73 51.7499L40.8 55.4999C40.8 55.4999 40.8 55.5799 40.79 55.6099C40.77 55.6499 40.74 55.6699 40.7 55.6799L40.16 55.8299C40.1 55.8499 40.05 55.8499 40.02 55.8299C39.99 55.8099 39.96 55.7899 39.95 55.7899L37.72 53.9099L38.38 56.1999C38.38 56.1999 38.38 56.2799 38.37 56.3199C38.35 56.3599 38.32 56.3799 38.28 56.3899L37.69 56.5599L37.67 56.5499Z" fill="white"></path><path d="M43.32 54.6299C43.32 54.6299 43.25 54.6499 43.22 54.6399C43.19 54.6399 43.16 54.6099 43.14 54.5799C43.14 54.5599 43.12 54.5499 43.12 54.5299L42.46 50.4599C42.46 50.4599 42.46 50.3699 42.46 50.3299C42.48 50.2799 42.51 50.2399 42.57 50.2099L43.25 49.8199C43.31 49.7899 43.36 49.7799 43.41 49.7899C43.46 49.7899 43.5 49.8199 43.53 49.8499L46.72 52.4699C46.72 52.4699 46.74 52.4999 46.75 52.5099C46.77 52.5399 46.77 52.5699 46.76 52.5999C46.76 52.6299 46.73 52.6599 46.7 52.6799L46.15 52.9999C46.1 53.0299 46.05 53.0399 46.01 53.0299C45.97 53.0199 45.94 53.0099 45.92 52.9899L45.36 52.5399L43.86 53.3999L43.97 54.1099C43.97 54.1099 43.97 54.1699 43.97 54.1999C43.96 54.2399 43.93 54.2699 43.87 54.2999L43.32 54.6199V54.6299ZM43.68 52.6199L44.78 51.9899L43.37 50.8099L43.68 52.6299V52.6199Z" fill="white"></path><path d="M47.77 51.8599C47.77 51.8599 47.7 51.8999 47.66 51.8999C47.62 51.8999 47.59 51.8799 47.56 51.8399L45.06 48.8399C45.06 48.8399 45.02 48.7699 45.02 48.7299C45.02 48.6899 45.04 48.6599 45.08 48.6299L45.6 48.1999C45.6 48.1999 45.67 48.1599 45.71 48.1599C45.75 48.1599 45.78 48.1799 45.81 48.2199L47.89 50.7099L49.35 49.4999C49.35 49.4999 49.42 49.4599 49.46 49.4599C49.5 49.4599 49.53 49.4799 49.56 49.5199L49.88 49.9099C49.88 49.9099 49.92 49.9799 49.92 50.0199C49.92 50.0599 49.9 50.0899 49.86 50.1199L47.76 51.8699L47.77 51.8599Z" fill="white"></path><path d="M52.47 47.19C52.47 47.19 52.41 47.24 52.37 47.25C52.33 47.25 52.29 47.25 52.26 47.22L49.93 45.36L49.9 46.46C49.9 46.46 49.88 46.54 49.85 46.57C49.82 46.59 49.78 46.61 49.74 46.61H49.24C49.24 46.61 49.16 46.59 49.13 46.56C49.1 46.53 49.09 46.49 49.09 46.45L49.13 44.7C49.13 44.7 49.13 44.65 49.15 44.62C49.15 44.6 49.17 44.58 49.19 44.55L49.59 44.04C49.59 44.04 49.65 43.99 49.69 43.99C49.73 43.99 49.77 43.99 49.8 44.02L52.85 46.45C52.85 46.45 52.9 46.51 52.91 46.55C52.91 46.59 52.91 46.63 52.88 46.66L52.46 47.19H52.47Z" fill="white"></path><path d="M54.6 44.1099C54.45 44.3599 54.3 44.5699 54.12 44.7099C53.94 44.8499 53.76 44.9499 53.57 44.9899C53.38 45.0399 53.18 45.0399 52.97 45.0099C52.77 44.9699 52.57 44.9099 52.37 44.8099C52.27 44.7599 52.17 44.6999 52.05 44.6399C51.93 44.5799 51.82 44.5099 51.7 44.4399C51.58 44.3699 51.48 44.3099 51.38 44.2499C51.19 44.1299 51.03 43.9999 50.9 43.8399C50.77 43.6799 50.67 43.5099 50.62 43.3199C50.56 43.1299 50.55 42.9199 50.58 42.6999C50.61 42.4799 50.7 42.2399 50.84 41.9899C50.98 41.7399 51.14 41.5499 51.31 41.4099C51.48 41.2699 51.67 41.1699 51.86 41.1199C52.05 41.0699 52.25 41.0599 52.45 41.0899C52.65 41.1199 52.85 41.1899 53.05 41.2899C53.15 41.3399 53.26 41.3999 53.38 41.4599C53.5 41.5299 53.62 41.5899 53.73 41.6599C53.85 41.7299 53.95 41.7899 54.04 41.8499C54.23 41.9699 54.39 42.1099 54.52 42.2599C54.65 42.4199 54.75 42.5899 54.81 42.7799C54.87 42.9699 54.88 43.1799 54.85 43.3999C54.82 43.6199 54.73 43.8599 54.59 44.1099H54.6ZM53.92 43.7299C54.04 43.5199 54.06 43.3399 53.98 43.1699C53.9 42.9999 53.75 42.8499 53.53 42.7099C53.43 42.6499 53.33 42.5899 53.22 42.5199C53.11 42.4499 53 42.3999 52.9 42.3399C52.79 42.2799 52.69 42.2299 52.59 42.1799C52.37 42.0699 52.17 42.0199 51.98 42.0399C51.79 42.0599 51.63 42.1699 51.51 42.3699C51.39 42.5799 51.38 42.7699 51.46 42.9399C51.54 43.1099 51.69 43.2599 51.9 43.3899C51.99 43.4499 52.09 43.5099 52.2 43.5699C52.31 43.6299 52.41 43.6899 52.52 43.7499C52.63 43.8099 52.73 43.8699 52.84 43.9199C53.07 44.0399 53.28 44.0899 53.46 44.0699C53.65 44.0499 53.8 43.9399 53.91 43.7299H53.92Z" fill="white"></path><path d="M56.51 39.8698C56.42 40.1498 56.29 40.3698 56.15 40.5498C56 40.7198 55.84 40.8498 55.66 40.9298C55.48 41.0098 55.28 41.0498 55.08 41.0498C54.88 41.0498 54.67 41.0198 54.45 40.9598C54.35 40.9298 54.23 40.8898 54.1 40.8498C53.97 40.8098 53.84 40.7698 53.72 40.7198C53.59 40.6698 53.48 40.6298 53.37 40.5898C53.16 40.5098 52.98 40.4098 52.82 40.2798C52.66 40.1498 52.54 39.9998 52.44 39.8198C52.35 39.6398 52.3 39.4398 52.29 39.2198C52.28 38.9998 52.32 38.7498 52.41 38.4798C52.5 38.2098 52.62 37.9898 52.77 37.8198C52.92 37.6498 53.08 37.5198 53.26 37.4398C53.44 37.3598 53.63 37.3098 53.84 37.2998C54.04 37.2998 54.25 37.3198 54.46 37.3798C54.57 37.4098 54.69 37.4498 54.82 37.4898C54.95 37.5298 55.08 37.5698 55.2 37.6198C55.33 37.6698 55.44 37.7098 55.54 37.7498C55.74 37.8298 55.93 37.9398 56.09 38.0698C56.25 38.1998 56.38 38.3498 56.47 38.5298C56.56 38.7098 56.62 38.9098 56.63 39.1298C56.63 39.3598 56.6 39.6098 56.5 39.8798L56.51 39.8698ZM55.77 39.6198C55.85 39.3998 55.83 39.2098 55.72 39.0498C55.61 38.8998 55.44 38.7698 55.19 38.6798C55.08 38.6398 54.97 38.5998 54.85 38.5598C54.73 38.5198 54.62 38.4798 54.5 38.4398C54.38 38.3998 54.27 38.3698 54.17 38.3398C53.93 38.2698 53.72 38.2598 53.54 38.3098C53.36 38.3598 53.23 38.4998 53.14 38.7198C53.07 38.9498 53.09 39.1398 53.2 39.2898C53.31 39.4398 53.49 39.5598 53.72 39.6498C53.82 39.6898 53.93 39.7298 54.05 39.7698C54.17 39.8098 54.28 39.8498 54.4 39.8898C54.52 39.9298 54.63 39.9598 54.74 39.9998C54.99 40.0798 55.2 40.0898 55.38 40.0298C55.56 39.9798 55.69 39.8398 55.76 39.6098L55.77 39.6198Z" fill="white"></path><path d="M55.37 35.8998C55.33 36.1798 55.24 36.3798 55.07 36.5298C54.9 36.6798 54.71 36.7398 54.47 36.7198C54.37 36.7198 54.28 36.7098 54.2 36.6898C54.12 36.6798 54.03 36.6598 53.92 36.6398C53.68 36.5998 53.5 36.4898 53.37 36.3098C53.25 36.1398 53.2 35.8998 53.24 35.6198C53.28 35.3298 53.38 35.1198 53.54 34.9798C53.71 34.8498 53.91 34.7898 54.15 34.8098C54.26 34.8098 54.36 34.8198 54.43 34.8298C54.51 34.8298 54.6 34.8598 54.7 34.8798C54.94 34.9198 55.12 35.0398 55.23 35.2098C55.34 35.3798 55.39 35.6198 55.36 35.8898L55.37 35.8998ZM57.37 36.6598C57.36 36.7498 57.31 36.7898 57.23 36.7798C57.21 36.7798 57.19 36.7698 57.17 36.7498L53.69 33.2498C53.69 33.2498 53.63 33.1798 53.62 33.1498C53.6 33.1198 53.6 33.0798 53.61 33.0198L53.66 32.6398C53.67 32.5498 53.72 32.5098 53.8 32.5198C53.82 32.5198 53.84 32.5298 53.86 32.5498L57.34 36.0498C57.34 36.0498 57.4 36.1098 57.41 36.1398C57.43 36.1698 57.43 36.2098 57.42 36.2698L57.37 36.6498V36.6598ZM54.89 35.8398C54.89 35.7598 54.89 35.6998 54.87 35.6498C54.85 35.5998 54.81 35.5598 54.76 35.5298C54.71 35.4998 54.66 35.4798 54.61 35.4698C54.52 35.4498 54.43 35.4298 54.36 35.4298C54.29 35.4298 54.21 35.4098 54.12 35.4098C54.04 35.4098 53.96 35.4098 53.88 35.4598C53.8 35.4998 53.76 35.5798 53.74 35.6898C53.72 35.7998 53.74 35.8898 53.81 35.9398C53.87 35.9898 53.95 36.0298 54.03 36.0498C54.12 36.0698 54.2 36.0798 54.27 36.0898C54.34 36.0998 54.43 36.1098 54.52 36.1198C54.57 36.1198 54.63 36.1198 54.68 36.0998C54.73 36.0898 54.78 36.0598 54.82 36.0198C54.86 35.9798 54.88 35.9198 54.89 35.8398ZM57.79 33.6798C57.75 33.9598 57.65 34.1598 57.49 34.2998C57.33 34.4398 57.12 34.5098 56.89 34.4898C56.79 34.4898 56.69 34.4798 56.62 34.4598C56.54 34.4498 56.45 34.4298 56.34 34.4098C56.1 34.3698 55.92 34.2598 55.8 34.0798C55.67 33.9098 55.63 33.6698 55.67 33.3898C55.71 33.0998 55.81 32.8898 55.98 32.7498C56.15 32.6098 56.35 32.5498 56.59 32.5698C56.7 32.5698 56.8 32.5798 56.88 32.5898C56.96 32.5898 57.05 32.6198 57.15 32.6398C57.39 32.6798 57.57 32.7998 57.69 32.9798C57.81 33.1598 57.86 33.3898 57.82 33.6598L57.79 33.6798ZM57.3 33.6198C57.3 33.5398 57.3 33.4798 57.28 33.4298C57.25 33.3798 57.22 33.3398 57.17 33.3098C57.12 33.2798 57.07 33.2598 57.01 33.2498C56.92 33.2298 56.84 33.2198 56.76 33.2098C56.69 33.2098 56.6 33.1898 56.51 33.1898C56.43 33.1898 56.35 33.1898 56.27 33.2398C56.2 33.2798 56.15 33.3598 56.14 33.4698C56.13 33.5798 56.14 33.6698 56.21 33.7198C56.28 33.7698 56.34 33.8098 56.43 33.8298C56.52 33.8498 56.6 33.8598 56.68 33.8698C56.75 33.8698 56.84 33.8898 56.93 33.8998C56.99 33.8998 57.04 33.8998 57.1 33.8798C57.15 33.8698 57.2 33.8398 57.24 33.7998C57.28 33.7598 57.3 33.6998 57.31 33.6198H57.3Z" fill="white"></path><path d="M9.19 25.3399C9.99634 25.3399 10.65 24.6863 10.65 23.8799C10.65 23.0736 9.99634 22.4199 9.19 22.4199C8.38367 22.4199 7.73 23.0736 7.73 23.8799C7.73 24.6863 8.38367 25.3399 9.19 25.3399Z" fill="white"></path><path d="M54.2 25.3399C55.0063 25.3399 55.66 24.6863 55.66 23.8799C55.66 23.0736 55.0063 22.4199 54.2 22.4199C53.3937 22.4199 52.74 23.0736 52.74 23.8799C52.74 24.6863 53.3937 25.3399 54.2 25.3399Z" fill="white"></path><path d="M22.5 43.4099H43.05" stroke="white" stroke-width="0.5" stroke-miterlimit="10"></path></g><defs><clipPath id="clip0_15_5211"><rect width="64" height="64" fill="white"></rect></clipPath></defs></svg>