<?xml version="1.0" encoding="UTF-8"?>
<svg id="Camada_1" data-name="Camada 1" xmlns="http://www.w3.org/2000/svg" xmlns:xlink="http://www.w3.org/1999/xlink" viewBox="0 0 215.5 108.7">
  <defs>
    <style>
      .cls-1, .cls-2, .cls-3, .cls-4, .cls-5 {
        fill: none;
      }

      .cls-2, .cls-5 {
        opacity: .31;
      }

      .cls-6, .cls-7, .cls-8 {
        fill: #252525;
      }

      .cls-6, .cls-8 {
        font-family: Arial-BoldMT, Arial;
        font-size: 8px;
        font-weight: 700;
      }

      .cls-3 {
        opacity: .6;
      }

      .cls-4, .cls-8, .cls-5 {
        isolation: isolate;
      }

      .cls-9 {
        fill: url(#Gradiente_sem_nome_2);
      }

      .cls-10 {
        fill: url(#Gradiente_sem_nome);
      }

      .cls-11 {
        fill: #a0dae8;
      }

      .cls-12 {
        fill: #1ca6c9;
      }

      .cls-5 {
        stroke: #a0dae8;
        stroke-dasharray: 0 0 0 0 0 0 0 0 0 0 0 0;
        stroke-width: .5px;
      }
    </style>
    <linearGradient id="Gradiente_sem_nome" data-name="Gradiente sem nome" x1="74.57" y1="-1219.19" x2="82.63" y2="-1264.89" gradientTransform="translate(0 -1154) scale(1 -1)" gradientUnits="userSpaceOnUse">
      <stop offset="0" stop-color="#cca990"/>
      <stop offset="1" stop-color="#e28610" stop-opacity=".6"/>
    </linearGradient>
    <linearGradient id="Gradiente_sem_nome_2" data-name="Gradiente sem nome 2" x1="152.3" y1="-1188.4" x2="152.3" y2="-1262.69" gradientTransform="translate(0 -1154) scale(1 -1)" gradientUnits="userSpaceOnUse">
      <stop offset="0" stop-color="#00edff"/>
      <stop offset="1" stop-color="#1ca6c9" stop-opacity=".6"/>
    </linearGradient>
  </defs>
  <rect class="cls-5" x="22.6" y="17.2" width="190.6" height=".3"/>
  <rect class="cls-5" x="22.6" y="43.4" width="190.6" height=".3"/>
  <g class="cls-3">
    <rect class="cls-11" x="22.6" y="108.1" width="190.6" height=".6"/>
    <path class="cls-11" d="m213.2,108.1h-2c-.1,0-.2.1-.2.2s.1.2.2.2c0,.1.1.1.2.1h1.8v-.5h0Zm-4,0h-2c-.1,0-.2.1-.2.2s.1.2.2.2c0,.1.1.1.2.1h2c.1,0,.2-.1.2-.2s-.1-.2-.2-.2c0-.1-.1-.1-.2-.1h0Zm-4,0h-2c-.1,0-.2.1-.2.2s.1.2.2.2c0,.1.1.1.2.1h2c.1,0,.2-.1.2-.2s-.1-.2-.2-.2c0-.1-.1-.1-.2-.1h0Zm-4,0h-2c-.1,0-.2.1-.2.2s.1.2.2.2c0,.1.1.1.2.1h2c.1,0,.2-.1.2-.2s-.1-.2-.2-.2c0-.1-.1-.1-.2-.1h0Zm-4,0h-2c-.1,0-.2.1-.2.2s.1.2.2.2c0,.1.1.1.2.1h2c.1,0,.2-.1.2-.2s-.1-.2-.2-.2c0-.1-.1-.1-.2-.1h0Zm-4,0h-2c-.1,0-.2.1-.2.2s.1.2.2.2c0,.1.1.1.2.1h2c.1,0,.2-.1.2-.2s-.1-.2-.2-.2c0-.1-.1-.1-.2-.1h0Zm-4,0h-2c-.1,0-.2.1-.2.2s.1.2.2.2c0,.1.1.1.2.1h2c.1,0,.2-.1.2-.2s-.1-.2-.2-.2c0-.1-.1-.1-.2-.1h0Zm-4,0h-2c-.1,0-.2.1-.2.2s.1.2.2.2c0,.1.1.1.2.1h2c.1,0,.2-.1.2-.2s-.1-.2-.2-.2c0-.1-.1-.1-.2-.1h0Zm-4,0h-2c-.1,0-.2.1-.2.2s.1.2.2.2c0,.1.1.1.2.1h2c.1,0,.2-.1.2-.2s-.1-.2-.2-.2c0-.1-.1-.1-.2-.1h0Zm-4,0h-2c-.1,0-.2.1-.2.2s.1.2.2.2c0,.1.1.1.2.1h2c.1,0,.2-.1.2-.2s-.1-.2-.2-.2c0-.1-.1-.1-.2-.1h0Zm-4,0h-2c-.1,0-.2.1-.2.2s.1.2.2.2c0,.1.1.1.2.1h2c.1,0,.2-.1.2-.2s-.1-.2-.2-.2c0-.1-.1-.1-.2-.1h0Zm-4,0h-2c-.1,0-.2.1-.2.2s.1.2.2.2c0,.1.1.1.2.1h2c.1,0,.2-.1.2-.2s-.1-.2-.2-.2c0-.1-.1-.1-.2-.1h0Zm-4,0h-2c-.1,0-.2.1-.2.2s.1.2.2.2c0,.1.1.1.2.1h2c.1,0,.2-.1.2-.2s-.1-.2-.2-.2c0-.1-.1-.1-.2-.1h0Zm-4,0h-2c-.1,0-.2.1-.2.2s.1.2.2.2c0,.1.1.1.2.1h2c.1,0,.2-.1.2-.2s-.1-.2-.2-.2c0-.1-.1-.1-.2-.1h0Zm-4,0h-2c-.1,0-.2.1-.2.2s.1.2.2.2c0,.1.1.1.2.1h2c.1,0,.2-.1.2-.2s-.1-.2-.2-.2c0-.1-.1-.1-.2-.1h0Zm-4,0h-2c-.1,0-.2.1-.2.2s.1.2.2.2c0,.1.1.1.2.1h2c.1,0,.2-.1.2-.2s-.1-.2-.2-.2c0-.1-.1-.1-.2-.1h0Zm-4,0h-2c-.1,0-.2.1-.2.2s.1.2.2.2c0,.1.1.1.2.1h2c.1,0,.2-.1.2-.2s-.1-.2-.2-.2c0-.1-.1-.1-.2-.1h0Zm-4,0h-2c-.1,0-.2.1-.2.2s.1.2.2.2c0,.1.1.1.2.1h2c.1,0,.2-.1.2-.2s-.1-.2-.2-.2c0-.1-.1-.1-.2-.1h0Zm-4,0h-2c-.1,0-.2.1-.2.2s.1.2.2.2c0,.1.1.1.2.1h2c.1,0,.2-.1.2-.2s-.1-.2-.2-.2c0-.1-.1-.1-.2-.1h0Zm-4,0h-2c-.1,0-.2.1-.2.2s.1.2.2.2c0,.1.1.1.2.1h2c.1,0,.2-.1.2-.2s-.1-.2-.2-.2c0-.1-.1-.1-.2-.1h0Zm-4,0h-2c-.1,0-.2.1-.2.2s.1.2.2.2c0,.1.1.1.2.1h2c.1,0,.2-.1.2-.2s-.1-.2-.2-.2c0-.1-.1-.1-.2-.1h0Zm-4,0h-2c-.1,0-.2.1-.2.2s.1.2.2.2c0,.1.1.1.2.1h2c.1,0,.2-.1.2-.2s-.1-.2-.2-.2c0-.1-.1-.1-.2-.1h0Zm-4,0h-2c-.1,0-.2.1-.2.2s.1.2.2.2c0,.1.1.1.2.1h2c.1,0,.2-.1.2-.2s-.1-.2-.2-.2c0-.1-.1-.1-.2-.1h0Zm-4,0h-2c-.1,0-.2.1-.2.2s.1.2.2.2c0,.1.1.1.2.1h2c.1,0,.2-.1.2-.2s-.1-.2-.2-.2c0-.1-.1-.1-.2-.1h0Zm-4,0h-2c-.1,0-.2.1-.2.2s.1.2.2.2c0,.1.1.1.2.1h2c.1,0,.2-.1.2-.2s-.1-.2-.2-.2c0-.1-.1-.1-.2-.1h0Zm-4,0h-2c-.1,0-.2.1-.2.2s.1.2.2.2c0,.1.1.1.2.1h2c.1,0,.2-.1.2-.2s-.1-.2-.2-.2c0-.1-.1-.1-.2-.1h0Zm-4,0h-2c-.1,0-.2.1-.2.2s.1.2.2.2c0,.1.1.1.2.1h2c.1,0,.2-.1.2-.2s-.1-.2-.2-.2c0-.1-.1-.1-.2-.1h0Zm-4,0h-2c-.1,0-.2.1-.2.2s.1.2.2.2c0,.1.1.1.2.1h2c.1,0,.2-.1.2-.2s-.1-.2-.2-.2c0-.1-.1-.1-.2-.1h0Zm-4,0h-2c-.1,0-.2.1-.2.2s.1.2.2.2c0,.1.1.1.2.1h2c.1,0,.2-.1.2-.2s-.1-.2-.2-.2c0-.1-.1-.1-.2-.1h0Zm-4,0h-2c-.1,0-.2.1-.2.2s.1.2.2.2c0,.1.1.1.2.1h2c.1,0,.2-.1.2-.2s-.1-.2-.2-.2c0-.1-.1-.1-.2-.1h0Zm-4,0h-2c-.1,0-.2.1-.2.2s.1.2.2.2c0,.1.1.1.2.1h2c.1,0,.2-.1.2-.2s-.1-.2-.2-.2c0-.1-.1-.1-.2-.1h0Zm-4,0h-2c-.1,0-.2.1-.2.2s.1.2.2.2c0,.1.1.1.2.1h2c.1,0,.2-.1.2-.2s-.1-.2-.2-.2c0-.1-.1-.1-.2-.1h0Zm-4,0h-2c-.1,0-.2.1-.2.2s.1.2.2.2c0,.1.1.1.2.1h2c.1,0,.2-.1.2-.2s-.1-.2-.2-.2c0-.1-.1-.1-.2-.1h0Zm-4,0h-2c-.1,0-.2.1-.2.2s.1.2.2.2c0,.1.1.1.2.1h2c.1,0,.2-.1.2-.2s-.1-.2-.2-.2c0-.1-.1-.1-.2-.1h0Zm-4,0h-2c-.1,0-.2.1-.2.2s.1.2.2.2c0,.1.1.1.2.1h2c.1,0,.2-.1.2-.2s-.1-.2-.2-.2c0-.1-.1-.1-.2-.1h0Zm-4,0h-2c-.1,0-.2.1-.2.2s.1.2.2.2c0,.1.1.1.2.1h2c.1,0,.2-.1.2-.2s-.1-.2-.2-.2c0-.1-.1-.1-.2-.1h0Zm-4,0h-2c-.1,0-.2.1-.2.2s.1.2.2.2c0,.1.1.1.2.1h2c.1,0,.2-.1.2-.2s-.1-.2-.2-.2c0-.1-.1-.1-.2-.1h0Zm-4,0h-2c-.1,0-.2.1-.2.2s.1.2.2.2c0,.1.1.1.2.1h2c.1,0,.2-.1.2-.2s-.1-.2-.2-.2c0-.1-.1-.1-.2-.1h0Zm-4,0h-2c-.1,0-.2.1-.2.2s.1.2.2.2c0,.1.1.1.2.1h2c.1,0,.2-.1.2-.2s-.1-.2-.2-.2c0-.1-.1-.1-.2-.1h0Zm-4,0h-2c-.1,0-.2.1-.2.2s.1.2.2.2c0,.1.1.1.2.1h2c.1,0,.2-.1.2-.2s-.1-.2-.2-.2c0-.1-.1-.1-.2-.1h0Zm-4,0h-2c-.1,0-.2.1-.2.2s.1.2.2.2c0,.1.1.1.2.1h2c.1,0,.2-.1.2-.2s-.1-.2-.2-.2c0-.1-.1-.1-.2-.1h0Zm-4,0h-2c-.1,0-.2.1-.2.2s.1.2.2.2c0,.1.1.1.2.1h2c.1,0,.2-.1.2-.2s-.1-.2-.2-.2c0-.1-.1-.1-.2-.1h0Zm-4,0h-2c-.1,0-.2.1-.2.2s.1.2.2.2c0,.1.1.1.2.1h2c.1,0,.2-.1.2-.2s-.1-.2-.2-.2c0-.1-.1-.1-.2-.1h0Zm-4,0h-2c-.1,0-.2.1-.2.2s.1.2.2.2c0,.1.1.1.2.1h2c.1,0,.2-.1.2-.2s-.1-.2-.2-.2c0-.1-.1-.1-.2-.1h0Zm-4,0h-2c-.1,0-.2.1-.2.2s.1.2.2.2c0,.1.1.1.2.1h2c.1,0,.2-.1.2-.2s-.1-.2-.2-.2c0-.1-.1-.1-.2-.1h0Zm-4,0h-2c-.1,0-.2.1-.2.2s.1.2.2.2c0,.1.1.1.2.1h2c.1,0,.2-.1.2-.2s-.1-.2-.2-.2c0-.1-.1-.1-.2-.1h0Zm-4,0h-2c-.1,0-.2.1-.2.2s.1.2.2.2c0,.1.1.1.2.1h2c.1,0,.2-.1.2-.2s-.1-.2-.2-.2c0-.1-.1-.1-.2-.1h0Zm-4,0h-2c-.1,0-.2.1-.2.2s.1.2.2.2c0,.1.1.1.2.1h2c.1,0,.2-.1.2-.2s-.1-.2-.2-.2c0-.1-.1-.1-.2-.1h0Z"/>
  </g>
  <g class="cls-2">
    <rect class="cls-11" x="22.6" y="82.5" width="190.6" height=".6"/>
    <path class="cls-11" d="m213.2,82.5h-2c-.1,0-.2.1-.2.2s.1.2.2.2c0,.1.1.1.2.1h1.8v-.5h0Zm-4,0h-2c-.1,0-.2.1-.2.2s.1.2.2.2c0,.1.1.1.2.1h2c.1,0,.2-.1.2-.2s-.1-.2-.2-.2c0,0-.1-.1-.2-.1h0Zm-4,0h-2c-.1,0-.2.1-.2.2s.1.2.2.2c0,.1.1.1.2.1h2c.1,0,.2-.1.2-.2s-.1-.2-.2-.2c0,0-.1-.1-.2-.1h0Zm-4,0h-2c-.1,0-.2.1-.2.2s.1.2.2.2c0,.1.1.1.2.1h2c.1,0,.2-.1.2-.2s-.1-.2-.2-.2c0,0-.1-.1-.2-.1h0Zm-4,0h-2c-.1,0-.2.1-.2.2s.1.2.2.2c0,.1.1.1.2.1h2c.1,0,.2-.1.2-.2s-.1-.2-.2-.2c0,0-.1-.1-.2-.1h0Zm-4,0h-2c-.1,0-.2.1-.2.2s.1.2.2.2c0,.1.1.1.2.1h2c.1,0,.2-.1.2-.2s-.1-.2-.2-.2c0,0-.1-.1-.2-.1h0Zm-4,0h-2c-.1,0-.2.1-.2.2s.1.2.2.2c0,.1.1.1.2.1h2c.1,0,.2-.1.2-.2s-.1-.2-.2-.2c0,0-.1-.1-.2-.1h0Zm-4,0h-2c-.1,0-.2.1-.2.2s.1.2.2.2c0,.1.1.1.2.1h2c.1,0,.2-.1.2-.2s-.1-.2-.2-.2c0,0-.1-.1-.2-.1h0Zm-4,0h-2c-.1,0-.2.1-.2.2s.1.2.2.2c0,.1.1.1.2.1h2c.1,0,.2-.1.2-.2s-.1-.2-.2-.2c0,0-.1-.1-.2-.1h0Zm-4,0h-2c-.1,0-.2.1-.2.2s.1.2.2.2c0,.1.1.1.2.1h2c.1,0,.2-.1.2-.2s-.1-.2-.2-.2c0,0-.1-.1-.2-.1h0Zm-4,0h-2c-.1,0-.2.1-.2.2s.1.2.2.2c0,.1.1.1.2.1h2c.1,0,.2-.1.2-.2s-.1-.2-.2-.2c0,0-.1-.1-.2-.1h0Zm-4,0h-2c-.1,0-.2.1-.2.2s.1.2.2.2c0,.1.1.1.2.1h2c.1,0,.2-.1.2-.2s-.1-.2-.2-.2c0,0-.1-.1-.2-.1h0Zm-4,0h-2c-.1,0-.2.1-.2.2s.1.2.2.2c0,.1.1.1.2.1h2c.1,0,.2-.1.2-.2s-.1-.2-.2-.2c0,0-.1-.1-.2-.1h0Zm-4,0h-2c-.1,0-.2.1-.2.2s.1.2.2.2c0,.1.1.1.2.1h2c.1,0,.2-.1.2-.2s-.1-.2-.2-.2c0,0-.1-.1-.2-.1h0Zm-4,0h-2c-.1,0-.2.1-.2.2s.1.2.2.2c0,.1.1.1.2.1h2c.1,0,.2-.1.2-.2s-.1-.2-.2-.2c0,0-.1-.1-.2-.1h0Zm-4,0h-2c-.1,0-.2.1-.2.2s.1.2.2.2c0,.1.1.1.2.1h2c.1,0,.2-.1.2-.2s-.1-.2-.2-.2c0,0-.1-.1-.2-.1h0Zm-4,0h-2c-.1,0-.2.1-.2.2s.1.2.2.2c0,.1.1.1.2.1h2c.1,0,.2-.1.2-.2s-.1-.2-.2-.2c0,0-.1-.1-.2-.1h0Zm-4,0h-2c-.1,0-.2.1-.2.2s.1.2.2.2c0,.1.1.1.2.1h2c.1,0,.2-.1.2-.2s-.1-.2-.2-.2c0,0-.1-.1-.2-.1h0Zm-4,0h-2c-.1,0-.2.1-.2.2s.1.2.2.2c0,.1.1.1.2.1h2c.1,0,.2-.1.2-.2s-.1-.2-.2-.2c0,0-.1-.1-.2-.1h0Zm-4,0h-2c-.1,0-.2.1-.2.2s.1.2.2.2c0,.1.1.1.2.1h2c.1,0,.2-.1.2-.2s-.1-.2-.2-.2c0,0-.1-.1-.2-.1h0Zm-4,0h-2c-.1,0-.2.1-.2.2s.1.2.2.2c0,.1.1.1.2.1h2c.1,0,.2-.1.2-.2s-.1-.2-.2-.2c0,0-.1-.1-.2-.1h0Zm-4,0h-2c-.1,0-.2.1-.2.2s.1.2.2.2c0,.1.1.1.2.1h2c.1,0,.2-.1.2-.2s-.1-.2-.2-.2c0,0-.1-.1-.2-.1h0Zm-4,0h-2c-.1,0-.2.1-.2.2s.1.2.2.2c0,.1.1.1.2.1h2c.1,0,.2-.1.2-.2s-.1-.2-.2-.2c0,0-.1-.1-.2-.1h0Zm-4,0h-2c-.1,0-.2.1-.2.2s.1.2.2.2c0,.1.1.1.2.1h2c.1,0,.2-.1.2-.2s-.1-.2-.2-.2c0,0-.1-.1-.2-.1h0Zm-4,0h-2c-.1,0-.2.1-.2.2s.1.2.2.2c0,.1.1.1.2.1h2c.1,0,.2-.1.2-.2s-.1-.2-.2-.2c0,0-.1-.1-.2-.1h0Zm-4,0h-2c-.1,0-.2.1-.2.2s.1.2.2.2c0,.1.1.1.2.1h2c.1,0,.2-.1.2-.2s-.1-.2-.2-.2c0,0-.1-.1-.2-.1h0Zm-4,0h-2c-.1,0-.2.1-.2.2s.1.2.2.2c0,.1.1.1.2.1h2c.1,0,.2-.1.2-.2s-.1-.2-.2-.2c0,0-.1-.1-.2-.1h0Zm-4,0h-2c-.1,0-.2.1-.2.2s.1.2.2.2c0,.1.1.1.2.1h2c.1,0,.2-.1.2-.2s-.1-.2-.2-.2c0,0-.1-.1-.2-.1h0Zm-4,0h-2c-.1,0-.2.1-.2.2s.1.2.2.2c0,.1.1.1.2.1h2c.1,0,.2-.1.2-.2s-.1-.2-.2-.2c0,0-.1-.1-.2-.1h0Zm-4,0h-2c-.1,0-.2.1-.2.2s.1.2.2.2c0,.1.1.1.2.1h2c.1,0,.2-.1.2-.2s-.1-.2-.2-.2c0,0-.1-.1-.2-.1h0Zm-4,0h-2c-.1,0-.2.1-.2.2s.1.2.2.2c0,.1.1.1.2.1h2c.1,0,.2-.1.2-.2s-.1-.2-.2-.2c0,0-.1-.1-.2-.1h0Zm-4,0h-2c-.1,0-.2.1-.2.2s.1.2.2.2c0,.1.1.1.2.1h2c.1,0,.2-.1.2-.2s-.1-.2-.2-.2c0,0-.1-.1-.2-.1h0Zm-4,0h-2c-.1,0-.2.1-.2.2s.1.2.2.2c0,.1.1.1.2.1h2c.1,0,.2-.1.2-.2s-.1-.2-.2-.2c0,0-.1-.1-.2-.1h0Zm-4,0h-2c-.1,0-.2.1-.2.2s.1.2.2.2c0,.1.1.1.2.1h2c.1,0,.2-.1.2-.2s-.1-.2-.2-.2c0,0-.1-.1-.2-.1h0Zm-4,0h-2c-.1,0-.2.1-.2.2s.1.2.2.2c0,.1.1.1.2.1h2c.1,0,.2-.1.2-.2s-.1-.2-.2-.2c0,0-.1-.1-.2-.1h0Zm-4,0h-2c-.1,0-.2.1-.2.2s.1.2.2.2c0,.1.1.1.2.1h2c.1,0,.2-.1.2-.2s-.1-.2-.2-.2c0,0-.1-.1-.2-.1h0Zm-4,0h-2c-.1,0-.2.1-.2.2s.1.2.2.2c0,.1.1.1.2.1h2c.1,0,.2-.1.2-.2s-.1-.2-.2-.2c0,0-.1-.1-.2-.1h0Zm-4,0h-2c-.1,0-.2.1-.2.2s.1.2.2.2c0,.1.1.1.2.1h2c.1,0,.2-.1.2-.2s-.1-.2-.2-.2c0,0-.1-.1-.2-.1h0Zm-4,0h-2c-.1,0-.2.1-.2.2s.1.2.2.2c0,.1.1.1.2.1h2c.1,0,.2-.1.2-.2s-.1-.2-.2-.2c0,0-.1-.1-.2-.1h0Zm-4,0h-2c-.1,0-.2.1-.2.2s.1.2.2.2c0,.1.1.1.2.1h2c.1,0,.2-.1.2-.2s-.1-.2-.2-.2c0,0-.1-.1-.2-.1h0Zm-4,0h-2c-.1,0-.2.1-.2.2s.1.2.2.2c0,.1.1.1.2.1h2c.1,0,.2-.1.2-.2s-.1-.2-.2-.2c0,0-.1-.1-.2-.1h0Zm-4,0h-2c-.1,0-.2.1-.2.2s.1.2.2.2c0,.1.1.1.2.1h2c.1,0,.2-.1.2-.2s-.1-.2-.2-.2c0,0-.1-.1-.2-.1h0Zm-4,0h-2c-.1,0-.2.1-.2.2s.1.2.2.2c0,.1.1.1.2.1h2c.1,0,.2-.1.2-.2s-.1-.2-.2-.2c0,0-.1-.1-.2-.1h0Zm-4,0h-2c-.1,0-.2.1-.2.2s.1.2.2.2c0,.1.1.1.2.1h2c.1,0,.2-.1.2-.2s-.1-.2-.2-.2c0,0-.1-.1-.2-.1h0Zm-4,0h-2c-.1,0-.2.1-.2.2s.1.2.2.2c0,.1.1.1.2.1h2c.1,0,.2-.1.2-.2s-.1-.2-.2-.2c0,0-.1-.1-.2-.1h0Zm-4,0h-2c-.1,0-.2.1-.2.2s.1.2.2.2c0,.1.1.1.2.1h2c.1,0,.2-.1.2-.2s-.1-.2-.2-.2c0,0-.1-.1-.2-.1h0Zm-4,0h-2c-.1,0-.2.1-.2.2s.1.2.2.2c0,.1.1.1.2.1h2c.1,0,.2-.1.2-.2s-.1-.2-.2-.2c0,0-.1-.1-.2-.1h0Zm-4,0h-2c-.1,0-.2.1-.2.2s.1.2.2.2c0,.1.1.1.2.1h2c.1,0,.2-.1.2-.2s-.1-.2-.2-.2c0,0-.1-.1-.2-.1h0Z"/>
  </g>
  <g class="cls-2">
    <rect class="cls-11" x="22.6" y="56.3" width="190.6" height=".6"/>
    <path class="cls-11" d="m213.2,56.3h-2c-.1,0-.2.1-.2.2s.1.2.2.2c0,.1.1.1.2.1h1.8v-.5h0Zm-4,0h-2c-.1,0-.2.1-.2.2s.1.2.2.2c0,.1.1.1.2.1h2c.1,0,.2-.1.2-.2s-.1-.2-.2-.2c0,0-.1-.1-.2-.1h0Zm-4,0h-2c-.1,0-.2.1-.2.2s.1.2.2.2c0,.1.1.1.2.1h2c.1,0,.2-.1.2-.2s-.1-.2-.2-.2c0,0-.1-.1-.2-.1h0Zm-4,0h-2c-.1,0-.2.1-.2.2s.1.2.2.2c0,.1.1.1.2.1h2c.1,0,.2-.1.2-.2s-.1-.2-.2-.2c0,0-.1-.1-.2-.1h0Zm-4,0h-2c-.1,0-.2.1-.2.2s.1.2.2.2c0,.1.1.1.2.1h2c.1,0,.2-.1.2-.2s-.1-.2-.2-.2c0,0-.1-.1-.2-.1h0Zm-4,0h-2c-.1,0-.2.1-.2.2s.1.2.2.2c0,.1.1.1.2.1h2c.1,0,.2-.1.2-.2s-.1-.2-.2-.2c0,0-.1-.1-.2-.1h0Zm-4,0h-2c-.1,0-.2.1-.2.2s.1.2.2.2c0,.1.1.1.2.1h2c.1,0,.2-.1.2-.2s-.1-.2-.2-.2c0,0-.1-.1-.2-.1h0Zm-4,0h-2c-.1,0-.2.1-.2.2s.1.2.2.2c0,.1.1.1.2.1h2c.1,0,.2-.1.2-.2s-.1-.2-.2-.2c0,0-.1-.1-.2-.1h0Zm-4,0h-2c-.1,0-.2.1-.2.2s.1.2.2.2c0,.1.1.1.2.1h2c.1,0,.2-.1.2-.2s-.1-.2-.2-.2c0,0-.1-.1-.2-.1h0Zm-4,0h-2c-.1,0-.2.1-.2.2s.1.2.2.2c0,.1.1.1.2.1h2c.1,0,.2-.1.2-.2s-.1-.2-.2-.2c0,0-.1-.1-.2-.1h0Zm-4,0h-2c-.1,0-.2.1-.2.2s.1.2.2.2c0,.1.1.1.2.1h2c.1,0,.2-.1.2-.2s-.1-.2-.2-.2c0,0-.1-.1-.2-.1h0Zm-4,0h-2c-.1,0-.2.1-.2.2s.1.2.2.2c0,.1.1.1.2.1h2c.1,0,.2-.1.2-.2s-.1-.2-.2-.2c0,0-.1-.1-.2-.1h0Zm-4,0h-2c-.1,0-.2.1-.2.2s.1.2.2.2c0,.1.1.1.2.1h2c.1,0,.2-.1.2-.2s-.1-.2-.2-.2c0,0-.1-.1-.2-.1h0Zm-4,0h-2c-.1,0-.2.1-.2.2s.1.2.2.2c0,.1.1.1.2.1h2c.1,0,.2-.1.2-.2s-.1-.2-.2-.2c0,0-.1-.1-.2-.1h0Zm-4,0h-2c-.1,0-.2.1-.2.2s.1.2.2.2c0,.1.1.1.2.1h2c.1,0,.2-.1.2-.2s-.1-.2-.2-.2c0,0-.1-.1-.2-.1h0Zm-4,0h-2c-.1,0-.2.1-.2.2s.1.2.2.2c0,.1.1.1.2.1h2c.1,0,.2-.1.2-.2s-.1-.2-.2-.2c0,0-.1-.1-.2-.1h0Zm-4,0h-2c-.1,0-.2.1-.2.2s.1.2.2.2c0,.1.1.1.2.1h2c.1,0,.2-.1.2-.2s-.1-.2-.2-.2c0,0-.1-.1-.2-.1h0Zm-4,0h-2c-.1,0-.2.1-.2.2s.1.2.2.2c0,.1.1.1.2.1h2c.1,0,.2-.1.2-.2s-.1-.2-.2-.2c0,0-.1-.1-.2-.1h0Zm-4,0h-2c-.1,0-.2.1-.2.2s.1.2.2.2c0,.1.1.1.2.1h2c.1,0,.2-.1.2-.2s-.1-.2-.2-.2c0,0-.1-.1-.2-.1h0Zm-4,0h-2c-.1,0-.2.1-.2.2s.1.2.2.2c0,.1.1.1.2.1h2c.1,0,.2-.1.2-.2s-.1-.2-.2-.2c0,0-.1-.1-.2-.1h0Zm-4,0h-2c-.1,0-.2.1-.2.2s.1.2.2.2c0,.1.1.1.2.1h2c.1,0,.2-.1.2-.2s-.1-.2-.2-.2c0,0-.1-.1-.2-.1h0Zm-4,0h-2c-.1,0-.2.1-.2.2s.1.2.2.2c0,.1.1.1.2.1h2c.1,0,.2-.1.2-.2s-.1-.2-.2-.2c0,0-.1-.1-.2-.1h0Zm-4,0h-2c-.1,0-.2.1-.2.2s.1.2.2.2c0,.1.1.1.2.1h2c.1,0,.2-.1.2-.2s-.1-.2-.2-.2c0,0-.1-.1-.2-.1h0Zm-4,0h-2c-.1,0-.2.1-.2.2s.1.2.2.2c0,.1.1.1.2.1h2c.1,0,.2-.1.2-.2s-.1-.2-.2-.2c0,0-.1-.1-.2-.1h0Zm-4,0h-2c-.1,0-.2.1-.2.2s.1.2.2.2c0,.1.1.1.2.1h2c.1,0,.2-.1.2-.2s-.1-.2-.2-.2c0,0-.1-.1-.2-.1h0Zm-4,0h-2c-.1,0-.2.1-.2.2s.1.2.2.2c0,.1.1.1.2.1h2c.1,0,.2-.1.2-.2s-.1-.2-.2-.2c0,0-.1-.1-.2-.1h0Zm-4,0h-2c-.1,0-.2.1-.2.2s.1.2.2.2c0,.1.1.1.2.1h2c.1,0,.2-.1.2-.2s-.1-.2-.2-.2c0,0-.1-.1-.2-.1h0Zm-4,0h-2c-.1,0-.2.1-.2.2s.1.2.2.2c0,.1.1.1.2.1h2c.1,0,.2-.1.2-.2s-.1-.2-.2-.2c0,0-.1-.1-.2-.1h0Zm-4,0h-2c-.1,0-.2.1-.2.2s.1.2.2.2c0,.1.1.1.2.1h2c.1,0,.2-.1.2-.2s-.1-.2-.2-.2c0,0-.1-.1-.2-.1h0Zm-4,0h-2c-.1,0-.2.1-.2.2s.1.2.2.2c0,.1.1.1.2.1h2c.1,0,.2-.1.2-.2s-.1-.2-.2-.2c0,0-.1-.1-.2-.1h0Zm-4,0h-2c-.1,0-.2.1-.2.2s.1.2.2.2c0,.1.1.1.2.1h2c.1,0,.2-.1.2-.2s-.1-.2-.2-.2c0,0-.1-.1-.2-.1h0Zm-4,0h-2c-.1,0-.2.1-.2.2s.1.2.2.2c0,.1.1.1.2.1h2c.1,0,.2-.1.2-.2s-.1-.2-.2-.2c0,0-.1-.1-.2-.1h0Zm-4,0h-2c-.1,0-.2.1-.2.2s.1.2.2.2c0,.1.1.1.2.1h2c.1,0,.2-.1.2-.2s-.1-.2-.2-.2c0,0-.1-.1-.2-.1h0Zm-4,0h-2c-.1,0-.2.1-.2.2s.1.2.2.2c0,.1.1.1.2.1h2c.1,0,.2-.1.2-.2s-.1-.2-.2-.2c0,0-.1-.1-.2-.1h0Zm-4,0h-2c-.1,0-.2.1-.2.2s.1.2.2.2c0,.1.1.1.2.1h2c.1,0,.2-.1.2-.2s-.1-.2-.2-.2c0,0-.1-.1-.2-.1h0Zm-4,0h-2c-.1,0-.2.1-.2.2s.1.2.2.2c0,.1.1.1.2.1h2c.1,0,.2-.1.2-.2s-.1-.2-.2-.2c0,0-.1-.1-.2-.1h0Zm-4,0h-2c-.1,0-.2.1-.2.2s.1.2.2.2c0,.1.1.1.2.1h2c.1,0,.2-.1.2-.2s-.1-.2-.2-.2c0,0-.1-.1-.2-.1h0Zm-4,0h-2c-.1,0-.2.1-.2.2s.1.2.2.2c0,.1.1.1.2.1h2c.1,0,.2-.1.2-.2s-.1-.2-.2-.2c0,0-.1-.1-.2-.1h0Zm-4,0h-2c-.1,0-.2.1-.2.2s.1.2.2.2c0,.1.1.1.2.1h2c.1,0,.2-.1.2-.2s-.1-.2-.2-.2c0,0-.1-.1-.2-.1h0Zm-4,0h-2c-.1,0-.2.1-.2.2s.1.2.2.2c0,.1.1.1.2.1h2c.1,0,.2-.1.2-.2s-.1-.2-.2-.2c0,0-.1-.1-.2-.1h0Zm-4,0h-2c-.1,0-.2.1-.2.2s.1.2.2.2c0,.1.1.1.2.1h2c.1,0,.2-.1.2-.2s-.1-.2-.2-.2c0,0-.1-.1-.2-.1h0Zm-4,0h-2c-.1,0-.2.1-.2.2s.1.2.2.2c0,.1.1.1.2.1h2c.1,0,.2-.1.2-.2s-.1-.2-.2-.2c0,0-.1-.1-.2-.1h0Zm-4,0h-2c-.1,0-.2.1-.2.2s.1.2.2.2c0,.1.1.1.2.1h2c.1,0,.2-.1.2-.2s-.1-.2-.2-.2c0,0-.1-.1-.2-.1h0Zm-4,0h-2c-.1,0-.2.1-.2.2s.1.2.2.2c0,.1.1.1.2.1h2c.1,0,.2-.1.2-.2s-.1-.2-.2-.2c0,0-.1-.1-.2-.1h0Zm-4,0h-2c-.1,0-.2.1-.2.2s.1.2.2.2c0,.1.1.1.2.1h2c.1,0,.2-.1.2-.2s-.1-.2-.2-.2c0,0-.1-.1-.2-.1h0Zm-4,0h-2c-.1,0-.2.1-.2.2s.1.2.2.2c0,.1.1.1.2.1h2c.1,0,.2-.1.2-.2s-.1-.2-.2-.2c0,0-.1-.1-.2-.1h0Zm-4,0h-2c-.1,0-.2.1-.2.2s.1.2.2.2c0,.1.1.1.2.1h2c.1,0,.2-.1.2-.2s-.1-.2-.2-.2c0,0-.1-.1-.2-.1h0Zm-4,0h-2c-.1,0-.2.1-.2.2s.1.2.2.2c0,.1.1.1.2.1h2c.1,0,.2-.1.2-.2s-.1-.2-.2-.2c0,0-.1-.1-.2-.1h0Z"/>
  </g>
  <g class="cls-2">
    <rect class="cls-11" x="22.6" y="30.1" width="190.6" height=".6"/>
    <path class="cls-11" d="m213.2,30.1h-2c-.1,0-.2.1-.2.2s.1.2.2.2c0,.1.1.1.2.1h1.8v-.5h0Zm-4,0h-2c-.1,0-.2.1-.2.2s.1.2.2.2c0,.1.1.1.2.1h2c.1,0,.2-.1.2-.2s-.1-.2-.2-.2c0,0-.1-.1-.2-.1h0Zm-4,0h-2c-.1,0-.2.1-.2.2s.1.2.2.2c0,.1.1.1.2.1h2c.1,0,.2-.1.2-.2s-.1-.2-.2-.2c0,0-.1-.1-.2-.1h0Zm-4,0h-2c-.1,0-.2.1-.2.2s.1.2.2.2c0,.1.1.1.2.1h2c.1,0,.2-.1.2-.2s-.1-.2-.2-.2c0,0-.1-.1-.2-.1h0Zm-4,0h-2c-.1,0-.2.1-.2.2s.1.2.2.2c0,.1.1.1.2.1h2c.1,0,.2-.1.2-.2s-.1-.2-.2-.2c0,0-.1-.1-.2-.1h0Zm-4,0h-2c-.1,0-.2.1-.2.2s.1.2.2.2c0,.1.1.1.2.1h2c.1,0,.2-.1.2-.2s-.1-.2-.2-.2c0,0-.1-.1-.2-.1h0Zm-4,0h-2c-.1,0-.2.1-.2.2s.1.2.2.2c0,.1.1.1.2.1h2c.1,0,.2-.1.2-.2s-.1-.2-.2-.2c0,0-.1-.1-.2-.1h0Zm-4,0h-2c-.1,0-.2.1-.2.2s.1.2.2.2c0,.1.1.1.2.1h2c.1,0,.2-.1.2-.2s-.1-.2-.2-.2c0,0-.1-.1-.2-.1h0Zm-4,0h-2c-.1,0-.2.1-.2.2s.1.2.2.2c0,.1.1.1.2.1h2c.1,0,.2-.1.2-.2s-.1-.2-.2-.2c0,0-.1-.1-.2-.1h0Zm-4,0h-2c-.1,0-.2.1-.2.2s.1.2.2.2c0,.1.1.1.2.1h2c.1,0,.2-.1.2-.2s-.1-.2-.2-.2c0,0-.1-.1-.2-.1h0Zm-4,0h-2c-.1,0-.2.1-.2.2s.1.2.2.2c0,.1.1.1.2.1h2c.1,0,.2-.1.2-.2s-.1-.2-.2-.2c0,0-.1-.1-.2-.1h0Zm-4,0h-2c-.1,0-.2.1-.2.2s.1.2.2.2c0,.1.1.1.2.1h2c.1,0,.2-.1.2-.2s-.1-.2-.2-.2c0,0-.1-.1-.2-.1h0Zm-4,0h-2c-.1,0-.2.1-.2.2s.1.2.2.2c0,.1.1.1.2.1h2c.1,0,.2-.1.2-.2s-.1-.2-.2-.2c0,0-.1-.1-.2-.1h0Zm-4,0h-2c-.1,0-.2.1-.2.2s.1.2.2.2c0,.1.1.1.2.1h2c.1,0,.2-.1.2-.2s-.1-.2-.2-.2c0,0-.1-.1-.2-.1h0Zm-4,0h-2c-.1,0-.2.1-.2.2s.1.2.2.2c0,.1.1.1.2.1h2c.1,0,.2-.1.2-.2s-.1-.2-.2-.2c0,0-.1-.1-.2-.1h0Zm-4,0h-2c-.1,0-.2.1-.2.2s.1.2.2.2c0,.1.1.1.2.1h2c.1,0,.2-.1.2-.2s-.1-.2-.2-.2c0,0-.1-.1-.2-.1h0Zm-4,0h-2c-.1,0-.2.1-.2.2s.1.2.2.2c0,.1.1.1.2.1h2c.1,0,.2-.1.2-.2s-.1-.2-.2-.2c0,0-.1-.1-.2-.1h0Zm-4,0h-2c-.1,0-.2.1-.2.2s.1.2.2.2c0,.1.1.1.2.1h2c.1,0,.2-.1.2-.2s-.1-.2-.2-.2c0,0-.1-.1-.2-.1h0Zm-4,0h-2c-.1,0-.2.1-.2.2s.1.2.2.2c0,.1.1.1.2.1h2c.1,0,.2-.1.2-.2s-.1-.2-.2-.2c0,0-.1-.1-.2-.1h0Zm-4,0h-2c-.1,0-.2.1-.2.2s.1.2.2.2c0,.1.1.1.2.1h2c.1,0,.2-.1.2-.2s-.1-.2-.2-.2c0,0-.1-.1-.2-.1h0Zm-4,0h-2c-.1,0-.2.1-.2.2s.1.2.2.2c0,.1.1.1.2.1h2c.1,0,.2-.1.2-.2s-.1-.2-.2-.2c0,0-.1-.1-.2-.1h0Zm-4,0h-2c-.1,0-.2.1-.2.2s.1.2.2.2c0,.1.1.1.2.1h2c.1,0,.2-.1.2-.2s-.1-.2-.2-.2c0,0-.1-.1-.2-.1h0Zm-4,0h-2c-.1,0-.2.1-.2.2s.1.2.2.2c0,.1.1.1.2.1h2c.1,0,.2-.1.2-.2s-.1-.2-.2-.2c0,0-.1-.1-.2-.1h0Zm-4,0h-2c-.1,0-.2.1-.2.2s.1.2.2.2c0,.1.1.1.2.1h2c.1,0,.2-.1.2-.2s-.1-.2-.2-.2c0,0-.1-.1-.2-.1h0Zm-4,0h-2c-.1,0-.2.1-.2.2s.1.2.2.2c0,.1.1.1.2.1h2c.1,0,.2-.1.2-.2s-.1-.2-.2-.2c0,0-.1-.1-.2-.1h0Zm-4,0h-2c-.1,0-.2.1-.2.2s.1.2.2.2c0,.1.1.1.2.1h2c.1,0,.2-.1.2-.2s-.1-.2-.2-.2c0,0-.1-.1-.2-.1h0Zm-4,0h-2c-.1,0-.2.1-.2.2s.1.2.2.2c0,.1.1.1.2.1h2c.1,0,.2-.1.2-.2s-.1-.2-.2-.2c0,0-.1-.1-.2-.1h0Zm-4,0h-2c-.1,0-.2.1-.2.2s.1.2.2.2c0,.1.1.1.2.1h2c.1,0,.2-.1.2-.2s-.1-.2-.2-.2c0,0-.1-.1-.2-.1h0Zm-4,0h-2c-.1,0-.2.1-.2.2s.1.2.2.2c0,.1.1.1.2.1h2c.1,0,.2-.1.2-.2s-.1-.2-.2-.2c0,0-.1-.1-.2-.1h0Zm-4,0h-2c-.1,0-.2.1-.2.2s.1.2.2.2c0,.1.1.1.2.1h2c.1,0,.2-.1.2-.2s-.1-.2-.2-.2c0,0-.1-.1-.2-.1h0Zm-4,0h-2c-.1,0-.2.1-.2.2s.1.2.2.2c0,.1.1.1.2.1h2c.1,0,.2-.1.2-.2s-.1-.2-.2-.2c0,0-.1-.1-.2-.1h0Zm-4,0h-2c-.1,0-.2.1-.2.2s.1.2.2.2c0,.1.1.1.2.1h2c.1,0,.2-.1.2-.2s-.1-.2-.2-.2c0,0-.1-.1-.2-.1h0Zm-4,0h-2c-.1,0-.2.1-.2.2s.1.2.2.2c0,.1.1.1.2.1h2c.1,0,.2-.1.2-.2s-.1-.2-.2-.2c0,0-.1-.1-.2-.1h0Zm-4,0h-2c-.1,0-.2.1-.2.2s.1.2.2.2c0,.1.1.1.2.1h2c.1,0,.2-.1.2-.2s-.1-.2-.2-.2c0,0-.1-.1-.2-.1h0Zm-4,0h-2c-.1,0-.2.1-.2.2s.1.2.2.2c0,.1.1.1.2.1h2c.1,0,.2-.1.2-.2s-.1-.2-.2-.2c0,0-.1-.1-.2-.1h0Zm-4,0h-2c-.1,0-.2.1-.2.2s.1.2.2.2c0,.1.1.1.2.1h2c.1,0,.2-.1.2-.2s-.1-.2-.2-.2c0,0-.1-.1-.2-.1h0Zm-4,0h-2c-.1,0-.2.1-.2.2s.1.2.2.2c0,.1.1.1.2.1h2c.1,0,.2-.1.2-.2s-.1-.2-.2-.2c0,0-.1-.1-.2-.1h0Zm-4,0h-2c-.1,0-.2.1-.2.2s.1.2.2.2c0,.1.1.1.2.1h2c.1,0,.2-.1.2-.2s-.1-.2-.2-.2c0,0-.1-.1-.2-.1h0Zm-4,0h-2c-.1,0-.2.1-.2.2s.1.2.2.2c0,.1.1.1.2.1h2c.1,0,.2-.1.2-.2s-.1-.2-.2-.2c0,0-.1-.1-.2-.1h0Zm-4,0h-2c-.1,0-.2.1-.2.2s.1.2.2.2c0,.1.1.1.2.1h2c.1,0,.2-.1.2-.2s-.1-.2-.2-.2c0,0-.1-.1-.2-.1h0Zm-4,0h-2c-.1,0-.2.1-.2.2s.1.2.2.2c0,.1.1.1.2.1h2c.1,0,.2-.1.2-.2s-.1-.2-.2-.2c0,0-.1-.1-.2-.1h0Zm-4,0h-2c-.1,0-.2.1-.2.2s.1.2.2.2c0,.1.1.1.2.1h2c.1,0,.2-.1.2-.2s-.1-.2-.2-.2c0,0-.1-.1-.2-.1h0Zm-4,0h-2c-.1,0-.2.1-.2.2s.1.2.2.2c0,.1.1.1.2.1h2c.1,0,.2-.1.2-.2s-.1-.2-.2-.2c0,0-.1-.1-.2-.1h0Zm-4,0h-2c-.1,0-.2.1-.2.2s.1.2.2.2c0,.1.1.1.2.1h2c.1,0,.2-.1.2-.2s-.1-.2-.2-.2c0,0-.1-.1-.2-.1h0Zm-4,0h-2c-.1,0-.2.1-.2.2s.1.2.2.2c0,.1.1.1.2.1h2c.1,0,.2-.1.2-.2s-.1-.2-.2-.2c0,0-.1-.1-.2-.1h0Zm-4,0h-2c-.1,0-.2.1-.2.2s.1.2.2.2c0,.1.1.1.2.1h2c.1,0,.2-.1.2-.2s-.1-.2-.2-.2c0,0-.1-.1-.2-.1h0Zm-4,0h-2c-.1,0-.2.1-.2.2s.1.2.2.2c0,.1.1.1.2.1h2c.1,0,.2-.1.2-.2s-.1-.2-.2-.2c0,0-.1-.1-.2-.1h0Zm-4,0h-2c-.1,0-.2.1-.2.2s.1.2.2.2c0,.1.1.1.2.1h2c.1,0,.2-.1.2-.2s-.1-.2-.2-.2c0,0-.1-.1-.2-.1h0Z"/>
  </g>
  <g class="cls-2">
    <rect class="cls-11" x="22.6" y="4" width="190.6" height=".6"/>
    <path class="cls-11" d="m213.2,4h-2c-.1,0-.2.1-.2.2s.1.2.2.2c0,.1.1.1.2.1h1.8v-.5h0Zm-4,0h-2c-.1,0-.2.1-.2.2s.1.2.2.2c0,.1.1.1.2.1h2c.1,0,.2-.1.2-.2s-.1-.2-.2-.2c0-.1-.1-.1-.2-.1h0Zm-4,0h-2c-.1,0-.2.1-.2.2s.1.2.2.2c0,.1.1.1.2.1h2c.1,0,.2-.1.2-.2s-.1-.2-.2-.2c0-.1-.1-.1-.2-.1h0Zm-4,0h-2c-.1,0-.2.1-.2.2s.1.2.2.2c0,.1.1.1.2.1h2c.1,0,.2-.1.2-.2s-.1-.2-.2-.2c0-.1-.1-.1-.2-.1h0Zm-4,0h-2c-.1,0-.2.1-.2.2s.1.2.2.2c0,.1.1.1.2.1h2c.1,0,.2-.1.2-.2s-.1-.2-.2-.2c0-.1-.1-.1-.2-.1h0Zm-4,0h-2c-.1,0-.2.1-.2.2s.1.2.2.2c0,.1.1.1.2.1h2c.1,0,.2-.1.2-.2s-.1-.2-.2-.2c0-.1-.1-.1-.2-.1h0Zm-4,0h-2c-.1,0-.2.1-.2.2s.1.2.2.2c0,.1.1.1.2.1h2c.1,0,.2-.1.2-.2s-.1-.2-.2-.2c0-.1-.1-.1-.2-.1h0Zm-4,0h-2c-.1,0-.2.1-.2.2s.1.2.2.2c0,.1.1.1.2.1h2c.1,0,.2-.1.2-.2s-.1-.2-.2-.2c0-.1-.1-.1-.2-.1h0Zm-4,0h-2c-.1,0-.2.1-.2.2s.1.2.2.2c0,.1.1.1.2.1h2c.1,0,.2-.1.2-.2s-.1-.2-.2-.2c0-.1-.1-.1-.2-.1h0Zm-4,0h-2c-.1,0-.2.1-.2.2s.1.2.2.2c0,.1.1.1.2.1h2c.1,0,.2-.1.2-.2s-.1-.2-.2-.2c0-.1-.1-.1-.2-.1h0Zm-4,0h-2c-.1,0-.2.1-.2.2s.1.2.2.2c0,.1.1.1.2.1h2c.1,0,.2-.1.2-.2s-.1-.2-.2-.2c0-.1-.1-.1-.2-.1h0Zm-4,0h-2c-.1,0-.2.1-.2.2s.1.2.2.2c0,.1.1.1.2.1h2c.1,0,.2-.1.2-.2s-.1-.2-.2-.2c0-.1-.1-.1-.2-.1h0Zm-4,0h-2c-.1,0-.2.1-.2.2s.1.2.2.2c0,.1.1.1.2.1h2c.1,0,.2-.1.2-.2s-.1-.2-.2-.2c0-.1-.1-.1-.2-.1h0Zm-4,0h-2c-.1,0-.2.1-.2.2s.1.2.2.2c0,.1.1.1.2.1h2c.1,0,.2-.1.2-.2s-.1-.2-.2-.2c0-.1-.1-.1-.2-.1h0Zm-4,0h-2c-.1,0-.2.1-.2.2s.1.2.2.2c0,.1.1.1.2.1h2c.1,0,.2-.1.2-.2s-.1-.2-.2-.2c0-.1-.1-.1-.2-.1h0Zm-4,0h-2c-.1,0-.2.1-.2.2s.1.2.2.2c0,.1.1.1.2.1h2c.1,0,.2-.1.2-.2s-.1-.2-.2-.2c0-.1-.1-.1-.2-.1h0Zm-4,0h-2c-.1,0-.2.1-.2.2s.1.2.2.2c0,.1.1.1.2.1h2c.1,0,.2-.1.2-.2s-.1-.2-.2-.2c0-.1-.1-.1-.2-.1h0Zm-4,0h-2c-.1,0-.2.1-.2.2s.1.2.2.2c0,.1.1.1.2.1h2c.1,0,.2-.1.2-.2s-.1-.2-.2-.2c0-.1-.1-.1-.2-.1h0Zm-4,0h-2c-.1,0-.2.1-.2.2s.1.2.2.2c0,.1.1.1.2.1h2c.1,0,.2-.1.2-.2s-.1-.2-.2-.2c0-.1-.1-.1-.2-.1h0Zm-4,0h-2c-.1,0-.2.1-.2.2s.1.2.2.2c0,.1.1.1.2.1h2c.1,0,.2-.1.2-.2s-.1-.2-.2-.2c0-.1-.1-.1-.2-.1h0Zm-4,0h-2c-.1,0-.2.1-.2.2s.1.2.2.2c0,.1.1.1.2.1h2c.1,0,.2-.1.2-.2s-.1-.2-.2-.2c0-.1-.1-.1-.2-.1h0Zm-4,0h-2c-.1,0-.2.1-.2.2s.1.2.2.2c0,.1.1.1.2.1h2c.1,0,.2-.1.2-.2s-.1-.2-.2-.2c0-.1-.1-.1-.2-.1h0Zm-4,0h-2c-.1,0-.2.1-.2.2s.1.2.2.2c0,.1.1.1.2.1h2c.1,0,.2-.1.2-.2s-.1-.2-.2-.2c0-.1-.1-.1-.2-.1h0Zm-4,0h-2c-.1,0-.2.1-.2.2s.1.2.2.2c0,.1.1.1.2.1h2c.1,0,.2-.1.2-.2s-.1-.2-.2-.2c0-.1-.1-.1-.2-.1h0Zm-4,0h-2c-.1,0-.2.1-.2.2s.1.2.2.2c0,.1.1.1.2.1h2c.1,0,.2-.1.2-.2s-.1-.2-.2-.2c0-.1-.1-.1-.2-.1h0Zm-4,0h-2c-.1,0-.2.1-.2.2s.1.2.2.2c0,.1.1.1.2.1h2c.1,0,.2-.1.2-.2s-.1-.2-.2-.2c0-.1-.1-.1-.2-.1h0Zm-4,0h-2c-.1,0-.2.1-.2.2s.1.2.2.2c0,.1.1.1.2.1h2c.1,0,.2-.1.2-.2s-.1-.2-.2-.2c0-.1-.1-.1-.2-.1h0Zm-4,0h-2c-.1,0-.2.1-.2.2s.1.2.2.2c0,.1.1.1.2.1h2c.1,0,.2-.1.2-.2s-.1-.2-.2-.2c0-.1-.1-.1-.2-.1h0Zm-4,0h-2c-.1,0-.2.1-.2.2s.1.2.2.2c0,.1.1.1.2.1h2c.1,0,.2-.1.2-.2s-.1-.2-.2-.2c0-.1-.1-.1-.2-.1h0Zm-4,0h-2c-.1,0-.2.1-.2.2s.1.2.2.2c0,.1.1.1.2.1h2c.1,0,.2-.1.2-.2s-.1-.2-.2-.2c0-.1-.1-.1-.2-.1h0Zm-4,0h-2c-.1,0-.2.1-.2.2s.1.2.2.2c0,.1.1.1.2.1h2c.1,0,.2-.1.2-.2s-.1-.2-.2-.2c0-.1-.1-.1-.2-.1h0Zm-4,0h-2c-.1,0-.2.1-.2.2s.1.2.2.2c0,.1.1.1.2.1h2c.1,0,.2-.1.2-.2s-.1-.2-.2-.2c0-.1-.1-.1-.2-.1h0Zm-4,0h-2c-.1,0-.2.1-.2.2s.1.2.2.2c0,.1.1.1.2.1h2c.1,0,.2-.1.2-.2s-.1-.2-.2-.2c0-.1-.1-.1-.2-.1h0Zm-4,0h-2c-.1,0-.2.1-.2.2s.1.2.2.2c0,.1.1.1.2.1h2c.1,0,.2-.1.2-.2s-.1-.2-.2-.2c0-.1-.1-.1-.2-.1h0Zm-4,0h-2c-.1,0-.2.1-.2.2s.1.2.2.2c0,.1.1.1.2.1h2c.1,0,.2-.1.2-.2s-.1-.2-.2-.2c0-.1-.1-.1-.2-.1h0Zm-4,0h-2c-.1,0-.2.1-.2.2s.1.2.2.2c0,.1.1.1.2.1h2c.1,0,.2-.1.2-.2s-.1-.2-.2-.2c0-.1-.1-.1-.2-.1h0Zm-4,0h-2c-.1,0-.2.1-.2.2s.1.2.2.2c0,.1.1.1.2.1h2c.1,0,.2-.1.2-.2s-.1-.2-.2-.2c0-.1-.1-.1-.2-.1h0Zm-4,0h-2c-.1,0-.2.1-.2.2s.1.2.2.2c0,.1.1.1.2.1h2c.1,0,.2-.1.2-.2s-.1-.2-.2-.2c0-.1-.1-.1-.2-.1h0Zm-4,0h-2c-.1,0-.2.1-.2.2s.1.2.2.2c0,.1.1.1.2.1h2c.1,0,.2-.1.2-.2s-.1-.2-.2-.2c0-.1-.1-.1-.2-.1h0Zm-4,0h-2c-.1,0-.2.1-.2.2s.1.2.2.2c0,.1.1.1.2.1h2c.1,0,.2-.1.2-.2s-.1-.2-.2-.2c0-.1-.1-.1-.2-.1h0Zm-4,0h-2c-.1,0-.2.1-.2.2s.1.2.2.2c0,.1.1.1.2.1h2c.1,0,.2-.1.2-.2s-.1-.2-.2-.2c0-.1-.1-.1-.2-.1h0Zm-4,0h-2c-.1,0-.2.1-.2.2s.1.2.2.2c0,.1.1.1.2.1h2c.1,0,.2-.1.2-.2s-.1-.2-.2-.2c0-.1-.1-.1-.2-.1h0Zm-4,0h-2c-.1,0-.2.1-.2.2s.1.2.2.2c0,.1.1.1.2.1h2c.1,0,.2-.1.2-.2s-.1-.2-.2-.2c0-.1-.1-.1-.2-.1h0Zm-4,0h-2c-.1,0-.2.1-.2.2s.1.2.2.2c0,.1.1.1.2.1h2c.1,0,.2-.1.2-.2s-.1-.2-.2-.2c0-.1-.1-.1-.2-.1h0Zm-4,0h-2c-.1,0-.2.1-.2.2s.1.2.2.2c0,.1.1.1.2.1h2c.1,0,.2-.1.2-.2s-.1-.2-.2-.2c0-.1-.1-.1-.2-.1h0Zm-4,0h-2c-.1,0-.2.1-.2.2s.1.2.2.2c0,.1.1.1.2.1h2c.1,0,.2-.1.2-.2s-.1-.2-.2-.2c0-.1-.1-.1-.2-.1h0Zm-4,0h-2c-.1,0-.2.1-.2.2s.1.2.2.2c0,.1.1.1.2.1h2c.1,0,.2-.1.2-.2s-.1-.2-.2-.2c0-.1-.1-.1-.2-.1h0Zm-4,0h-2c-.1,0-.2.1-.2.2s.1.2.2.2c0,.1.1.1.2.1h2c.1,0,.2-.1.2-.2s-.1-.2-.2-.2c0-.1-.1-.1-.2-.1h0Z"/>
  </g>
  <rect class="cls-5" x="22.6" y="95.8" width="190.6" height=".3"/>
  <rect class="cls-5" x="22.6" y="70.1" width="190.6" height=".3"/>
  <rect class="cls-1" x="187.1" y="69" width="28.4" height="26.6"/>
  <rect class="cls-1" x="166.7" y="35.8" width="40.9" height="23.9"/>
  <g>
    <path class="cls-12" d="m9.7,108.7c-.5,0-.8-.1-1.2-.3-.3-.2-.6-.5-.7-.9-.2-.4-.3-.8-.3-1.3s.1-.9.3-1.3c.2-.4.4-.7.7-.9s.7-.3,1.2-.3.8.1,1.2.3c.3.2.6.5.7.9.2.4.3.8.3,1.3s-.1.9-.3,1.3-.4.7-.7.9-.7.3-1.2.3Zm0-.8c.4,0,.7-.2.9-.5s.3-.7.3-1.3c0-.5-.1-1-.3-1.3s-.5-.5-.9-.5-.7.2-.9.5-.3.7-.3,1.3c0,.5.1,1,.3,1.3.2.4.5.5.9.5Z"/>
    <path class="cls-12" d="m13.7,106.2c-.2,0-.4,0-.6-.2s-.3-.2-.4-.4-.2-.4-.2-.7.1-.5.2-.7c.1-.2.3-.3.4-.4.2-.1.4-.2.6-.2s.4.1.6.2c.2.1.3.2.4.4.1.2.2.4.2.7s-.1.5-.2.7-.3.3-.4.4c-.2.1-.4.2-.6.2Zm0-.7c.1,0,.3-.1.4-.2.1-.1.1-.3.1-.5s0-.4-.1-.5-.2-.2-.4-.2c-.1,0-.3.1-.4.2s-.1.3-.1.5,0,.4.1.5c.1.2.2.2.4.2Zm-.3,3.1l2.8-4.9h.9l-2.8,4.9s-.9,0-.9,0Zm3.4.1c-.2,0-.4,0-.6-.2-.2-.1-.3-.2-.4-.4-.1-.2-.2-.4-.2-.7s.1-.5.2-.7.3-.3.4-.4c.2-.1.4-.2.6-.2s.4.1.6.2.3.2.4.4.2.4.2.7-.1.5-.2.7-.3.3-.4.4-.4.2-.6.2Zm0-.6c.1,0,.3-.1.4-.2s.1-.3.1-.5,0-.4-.1-.5-.2-.2-.4-.2c-.1,0-.3.1-.4.2s-.1.3-.1.5,0,.4.1.5c.2.2.3.2.4.2Z"/>
  </g>
  <g>
    <path class="cls-12" d="m4.2,83.6v-.7c.3-.2.6-.5.9-.7.3-.3.5-.5.7-.8.2-.2.4-.5.5-.7s.2-.4.2-.7c0-.2-.1-.4-.2-.5-.1-.2-.3-.2-.5-.2-.3,0-.5.1-.6.3s-.2.4-.2.6h-.8c0-.4.1-.7.2-.9s.3-.4.6-.5c.2-.1.5-.2.8-.2.5,0,.9.1,1.2.4s.4.6.4,1.1c0,.3-.1.5-.2.8s-.3.5-.5.7-.4.5-.7.7-.5.4-.7.6h2.1v.7s-3.2,0-3.2,0Z"/>
    <path class="cls-12" d="m10.1,83.6c-.4,0-.7-.1-.9-.2-.3-.1-.5-.3-.6-.5s-.2-.5-.3-.8h.9c0,.2.1.4.3.5s.4.2.6.2c.3,0,.5-.1.6-.3s.2-.4.2-.7-.1-.5-.2-.7-.3-.2-.6-.2c-.2,0-.4.1-.5.2-.2.1-.3.2-.3.4h-.9l.4-2.8h2.7v.8h-2l-.2,1.1c.1-.1.2-.2.4-.3s.4-.1.6-.1c.4,0,.6.1.9.2s.4.4.5.6c.1.3.2.5.2.8s-.1.6-.2.9c-.1.3-.4.5-.6.6-.4.3-.7.3-1,.3Z"/>
    <path class="cls-12" d="m13.7,81.1c-.2,0-.4,0-.6-.2s-.3-.2-.4-.4-.2-.4-.2-.7.1-.5.2-.7c.1-.2.3-.3.4-.4.2-.1.4-.2.6-.2s.4.1.6.2c.2.1.3.2.4.4.1.2.2.4.2.7s-.1.5-.2.7-.3.3-.4.4c-.2.1-.4.2-.6.2Zm0-.7c.1,0,.3-.1.4-.2.1-.1.1-.3.1-.5s0-.4-.1-.5-.2-.2-.4-.2c-.1,0-.3.1-.4.2-.1.1-.1.3-.1.5s0,.4.1.5c.1.2.2.2.4.2Zm-.3,3.2l2.8-4.9h.9l-2.8,4.9s-.9,0-.9,0Zm3.4,0c-.2,0-.4,0-.6-.2-.2-.1-.3-.2-.4-.4-.1-.2-.2-.4-.2-.7s.1-.5.2-.7.3-.3.4-.4c.2-.1.4-.2.6-.2s.4.1.6.2.3.2.4.4.2.4.2.7-.1.5-.2.7-.3.3-.4.4-.4.2-.6.2Zm0-.6c.1,0,.3-.1.4-.2s.1-.3.1-.5,0-.4-.1-.5-.2-.2-.4-.2c-.1,0-.3.1-.4.2s-.1.3-.1.5,0,.4.1.5c.2.2.3.2.4.2Z"/>
  </g>
  <g>
    <path class="cls-12" d="m5.1,57.3c-.4,0-.7-.1-.9-.2-.3-.1-.5-.3-.6-.5-.2-.2-.2-.5-.3-.8h.9c0,.2.1.4.3.5.2.1.4.2.6.2.3,0,.5-.1.6-.3s.2-.4.2-.7-.1-.5-.2-.7-.3-.2-.6-.2c-.2,0-.4.1-.5.2-.2.1-.3.2-.3.4h-.9l.4-2.8h2.7v.8h-2l-.2,1.1c.1-.2.2-.3.4-.4s.4-.1.6-.1c.4,0,.6.1.9.2s.4.4.5.6c.1.3.2.5.2.8s-.1.6-.2.9-.4.5-.6.6c-.3.3-.6.4-1,.4Z"/>
    <path class="cls-12" d="m9.7,57.3c-.5,0-.8-.1-1.2-.3-.3-.2-.6-.5-.7-.9-.2-.4-.3-.8-.3-1.3s.1-.9.3-1.3c.2-.4.4-.7.7-.9s.7-.3,1.2-.3.8.1,1.2.3c.3.2.6.5.7.9.2.4.3.8.3,1.3s-.1.9-.3,1.3-.4.7-.7.9-.7.3-1.2.3Zm0-.8c.4,0,.7-.2.9-.5s.3-.7.3-1.3c0-.5-.1-1-.3-1.3s-.5-.5-.9-.5-.7.2-.9.5-.3.7-.3,1.3c0,.5.1,1,.3,1.3s.5.5.9.5Z"/>
    <path class="cls-12" d="m13.7,54.7c-.2,0-.4,0-.6-.2s-.3-.2-.4-.4-.2-.4-.2-.7.1-.5.2-.7c.1-.2.3-.3.4-.4.2-.1.4-.2.6-.2s.4.1.6.2c.2.1.3.2.4.4s.2.4.2.7-.1.5-.2.7-.3.3-.4.4c-.2.2-.4.2-.6.2Zm0-.6c.1,0,.3-.1.4-.2.1-.1.1-.3.1-.5s0-.4-.1-.5-.2-.2-.4-.2c-.1,0-.3.1-.4.2s-.1.3-.1.5,0,.4.1.5.2.2.4.2Zm-.3,3.1l2.8-4.9h.9l-2.8,4.9s-.9,0-.9,0Zm3.4.1c-.2,0-.4,0-.6-.2-.2-.1-.3-.2-.4-.4s-.2-.4-.2-.7.1-.5.2-.7.3-.3.4-.4c.2-.1.4-.2.6-.2s.4.1.6.2.3.2.4.4.2.4.2.7-.1.5-.2.7-.3.3-.4.4-.4.2-.6.2Zm0-.6c.1,0,.3-.1.4-.2s.1-.3.1-.5,0-.4-.1-.5-.2-.2-.4-.2c-.1,0-.3.1-.4.2s-.1.3-.1.5,0,.4.1.5c.2.1.3.2.4.2Z"/>
  </g>
  <g>
    <path class="cls-12" d="m5,31.5l1.8-4.1h-2.3v-.8h3.3v.6l-1.8,4.3h-1Z"/>
    <path class="cls-12" d="m10.1,31.6c-.4,0-.7-.1-.9-.2-.3-.1-.5-.3-.6-.5s-.2-.5-.3-.8h.9c0,.2.1.4.3.5s.4.2.6.2c.3,0,.5-.1.6-.3s.2-.4.2-.7-.1-.5-.2-.7-.4-.3-.6-.3-.4.1-.5.2c-.2.1-.3.2-.3.4h-.9l.4-2.8h2.7v.8h-2l-.2,1.1c.1-.1.2-.2.4-.3s.4-.1.6-.1c.4,0,.6.1.9.2s.4.4.5.6c.1.3.2.5.2.8s-.1.6-.2.9c-.1.3-.4.5-.6.6-.4.3-.7.4-1,.4Z"/>
    <path class="cls-12" d="m13.7,29c-.2,0-.4,0-.6-.2s-.3-.2-.4-.4-.2-.4-.2-.7.1-.5.2-.7c.1-.2.3-.3.4-.4.2-.1.4-.2.6-.2s.4.1.6.2c.2.1.3.2.4.4s.2.4.2.7-.1.5-.2.7-.3.3-.4.4c-.2.1-.4.2-.6.2Zm0-.6c.1,0,.3-.1.4-.2.1-.1.1-.3.1-.5s0-.4-.1-.5-.2-.2-.4-.2c-.1,0-.3.1-.4.2s-.1.3-.1.5,0,.4.1.5.2.2.4.2Zm-.3,3.1l2.8-4.9h.9l-2.8,4.9s-.9,0-.9,0Zm3.4.1c-.2,0-.4,0-.6-.2-.2-.1-.3-.2-.4-.4s-.2-.4-.2-.7.1-.5.2-.7.3-.3.4-.4c.2-.1.4-.2.6-.2s.4.1.6.2.3.2.4.4.2.4.2.7-.1.5-.2.7-.3.3-.4.4-.4.2-.6.2Zm0-.7c.1,0,.3-.1.4-.2s.1-.3.1-.5,0-.4-.1-.5-.2-.2-.4-.2c-.1,0-.3.1-.4.2s-.1.3-.1.5,0,.4.1.5c.2.2.3.2.4.2Z"/>
  </g>
  <g>
    <path class="cls-12" d="m.9,5.1V1.3l-.9.1v-.6l1.2-.5h.6v4.9h-.9s0-.1,0-.1Z"/>
    <path class="cls-12" d="m4.7,5.2c-.4,0-.8-.1-1.1-.3s-.6-.5-.8-.9c-.1-.4-.2-.8-.2-1.3s.1-.9.3-1.3.4-.7.7-.9.7-.3,1.2-.3.8.1,1.2.3c.3.2.6.5.7.9.2.4.3.8.3,1.3s-.1.9-.3,1.3-.5.7-.8.9-.7.3-1.2.3Zm0-.8c.4,0,.7-.1.9-.5.2-.3.3-.7.3-1.3,0-.5-.1-1-.3-1.3-.2-.2-.5-.4-.9-.4-.3,0-.6.2-.9.5-.2.3-.3.7-.3,1.3,0,.5.1,1,.3,1.3.3.3.6.4.9.4Z"/>
    <path class="cls-12" d="m9.7,5.2c-.5,0-.8-.1-1.2-.3-.3-.2-.5-.5-.7-.9s-.3-.8-.3-1.3.1-.9.3-1.3c.2-.4.4-.7.7-.9s.7-.3,1.2-.3.8.1,1.2.3c.3.2.6.5.7.9.2.4.3.8.3,1.3s-.1.9-.3,1.3-.4.7-.7.9-.7.3-1.2.3Zm0-.8c.4,0,.7-.2.9-.5s.3-.7.3-1.3c0-.5-.1-1-.3-1.3-.2-.2-.5-.4-.9-.4s-.7.2-.9.5-.3.7-.3,1.3c0,.5.1,1,.3,1.3s.5.4.9.4Z"/>
    <path class="cls-12" d="m13.7,2.6c-.2,0-.4,0-.6-.2s-.3-.2-.4-.4-.2-.4-.2-.7.1-.5.2-.7c.1-.2.3-.3.4-.4.2-.1.4-.2.6-.2s.4.1.6.2c.2.1.3.2.4.4s.2.4.2.7-.1.5-.2.7-.3.3-.4.4c-.2.2-.4.2-.6.2Zm0-.6c.1,0,.3-.1.4-.2.1-.1.1-.3.1-.5s0-.4-.1-.5-.2-.2-.4-.2c-.1,0-.3.1-.4.2-.1.1-.1.3-.1.5s0,.4.1.5c.1.2.2.2.4.2Zm-.3,3.1L16.2.2h.9l-2.8,4.9h-.9Zm3.4.1c-.2,0-.4,0-.6-.2-.2-.1-.3-.2-.4-.4-.1-.2-.2-.4-.2-.7s.1-.5.2-.7.3-.3.4-.4c.2-.1.4-.2.6-.2s.4.1.6.2c.2.1.3.2.4.4s.2.4.2.7-.1.5-.2.7-.2.4-.4.5-.4.1-.6.1Zm0-.6c.1,0,.3-.1.4-.2s.1-.3.1-.5,0-.4-.1-.5-.2-.2-.4-.2c-.1,0-.3.1-.4.2s-.1.3-.1.5,0,.4.1.5c.2.1.3.2.4.2Z"/>
  </g>
  <path class="cls-10" d="m95.1,108.6h-33c-1.8,0-3.2-1.4-3.2-3.2v-34.7c0-1.8,1.4-3.2,3.2-3.2h33c1.8,0,3.2,1.4,3.2,3.2v34.8c0,1.7-1.5,3.1-3.2,3.1h0Z"/>
  <path class="cls-9" d="m168.8,108.6h-33c-1.8,0-3.2-1.4-3.2-3.2V37.6c0-1.8,1.4-3.2,3.2-3.2h33c1.8,0,3.2,1.4,3.2,3.2v67.9c0,1.7-1.4,3.1-3.2,3.1h0Z"/>
  <g>
    <path class="cls-7" d="m69.2,94v-1.6h-4.1v-1.2l3.9-5.6h1.7v5.5h1.1v1.3h-1.1v1.6s-1.5,0-1.5,0Zm-2.5-2.8h2.6v-3.8l-2.6,3.8Z"/>
    <path class="cls-7" d="m76.5,94.2c-.8,0-1.4-.2-2-.5-.6-.4-1-.9-1.3-1.5-.3-.7-.5-1.4-.5-2.3s.1-1.6.5-2.3c.3-.7.7-1.2,1.3-1.5.6-.4,1.2-.5,2-.5s1.4.2,2,.5c.6.4,1,.9,1.3,1.5.3.7.5,1.4.5,2.3s-.1,1.6-.5,2.3c-.3.7-.7,1.2-1.3,1.5-.5.3-1.2.5-2,.5Zm0-1.4c.6,0,1.1-.3,1.5-.8s.6-1.3.6-2.2-.2-1.6-.6-2.2c-.4-.5-.9-.8-1.5-.8s-1.2.3-1.6.8-.5,1.3-.5,2.2.2,1.6.6,2.2c.4.5.9.8,1.5.8Z"/>
    <path class="cls-7" d="m83.3,89.8c-.4,0-.7-.1-1-.3s-.6-.4-.7-.7c-.2-.3-.3-.7-.3-1.1s.1-.8.3-1.1.4-.6.7-.7.7-.3,1.1-.3.7.1,1,.3.6.4.7.7.3.7.3,1.1-.1.8-.3,1.1c-.2.3-.4.6-.7.7-.3.2-.7.3-1.1.3Zm0-1.1c.2,0,.4-.1.6-.3s.3-.4.3-.8-.1-.6-.2-.8-.4-.3-.6-.3-.4.1-.6.3-.2.5-.2.8c0,.4.1.6.2.8s.3.3.5.3Zm-.4,5.3l4.7-8.4h1.5l-4.7,8.4h-1.5Zm5.8.2c-.4,0-.7-.1-1-.3s-.6-.4-.7-.7c-.2-.3-.3-.7-.3-1.1s.1-.8.3-1.1.4-.6.7-.7c.3-.2.7-.3,1.1-.3s.7.1,1,.3.6.4.7.7.3.7.3,1.1-.1.8-.3,1.1c-.2.3-.4.6-.7.7-.3.2-.7.3-1.1.3Zm0-1.1c.2,0,.4-.1.6-.3s.2-.4.2-.8-.1-.6-.2-.8-.4-.3-.6-.3-.4.1-.6.3-.2.5-.2.8c0,.4.1.6.2.8.2.2.4.3.6.3Z"/>
  </g>
  <g>
    <path class="cls-7" d="m141.4,76.5l3.2-7.1h-4.2v-1.3h5.7v1.1l-3.2,7.3h-1.5Z"/>
    <path class="cls-7" d="m150.6,76.6c-.8,0-1.4-.2-2-.5-.6-.4-1-.9-1.3-1.5-.3-.7-.5-1.4-.5-2.3s.1-1.6.5-2.3c.3-.7.7-1.2,1.3-1.5.6-.4,1.2-.5,2-.5s1.4.2,2,.5c.6.4,1,.9,1.3,1.5s.5,1.4.5,2.3-.2,1.6-.5,2.3-.7,1.2-1.3,1.5c-.5.4-1.2.5-2,.5Zm0-1.3c.6,0,1.1-.3,1.5-.8s.6-1.3.6-2.2-.2-1.6-.6-2.2c-.4-.5-.9-.8-1.5-.8s-1.2.3-1.6.8c-.4.5-.6,1.3-.6,2.2s.2,1.6.6,2.2c.5.5,1,.8,1.6.8Z"/>
    <path class="cls-7" d="m157.4,72.2c-.4,0-.7-.1-1-.3-.3-.2-.6-.4-.7-.7-.2-.3-.3-.7-.3-1.1s.1-.8.3-1.1c.2-.3.4-.6.7-.7.3-.2.7-.3,1.1-.3s.7.1,1,.3c.3.2.6.4.7.7.2.3.3.7.3,1.1s-.1.8-.3,1.1c-.2.3-.4.6-.7.7-.3.2-.7.3-1.1.3Zm0-1c.2,0,.4-.1.6-.3.2-.2.3-.4.3-.8s-.1-.6-.2-.8-.4-.3-.6-.3-.4.1-.6.3-.2.5-.2.8c0,.4.1.6.2.8.1.2.3.3.5.3Zm-.4,5.3l4.7-8.4h1.5l-4.7,8.4h-1.5Zm5.8.1c-.4,0-.7-.1-1-.3-.3-.2-.6-.4-.7-.7-.2-.3-.3-.7-.3-1.1s.1-.8.3-1.1c.2-.3.4-.6.7-.7.3-.2.7-.3,1.1-.3s.7.1,1,.3c.3.2.6.4.7.7.2.3.3.7.3,1.1s-.1.8-.3,1.1c-.2.3-.4.6-.7.7-.3.3-.7.3-1.1.3Zm0-1c.2,0,.4-.1.6-.3.2-.2.2-.4.2-.8s-.1-.6-.2-.8-.4-.3-.6-.3-.4.1-.6.3-.2.5-.2.8c0,.4.1.6.2.8.2.2.4.3.6.3Z"/>
  </g>
  <g>
    <g class="cls-4">
      <text class="cls-8" transform="translate(133.4 18.87)"><tspan x="0" y="0" xml:space="preserve">  Depués</tspan></text>
    </g>
    <g class="cls-4">
      <text class="cls-8" transform="translate(133.4 28.47)"><tspan x="0" y="0">de 10 días</tspan></text>
    </g>
  </g>
  <text class="cls-6" transform="translate(70.01 62.3)"><tspan x="0" y="0">Hoy</tspan></text>
</svg>