<?xml version="1.0" encoding="UTF-8"?>
<svg id="Camada_1" data-name="Camada 1" xmlns="http://www.w3.org/2000/svg" xmlns:xlink="http://www.w3.org/1999/xlink" viewBox="0 0 298.95 188">
  <defs>
    <style>
      .cls-1, .cls-2, .cls-3, .cls-4 {
        fill: none;
      }

      .cls-2, .cls-5, .cls-6, .cls-7, .cls-8 {
        isolation: isolate;
      }

      .cls-9, .cls-10, .cls-8 {
        fill: #252525;
      }

      .cls-11, .cls-7 {
        fill: #1ca6c9;
      }

      .cls-3 {
        stroke-dasharray: 0 0 0 0 0 0 2 2;
      }

      .cls-3, .cls-12 {
        stroke: #a0dae8;
      }

      .cls-3, .cls-12, .cls-13 {
        stroke-width: .5px;
      }

      .cls-5 {
        fill: url(#Gradiente_sem_nome);
        opacity: .5;
      }

      .cls-6, .cls-10, .cls-7, .cls-8 {
        font-family: Arial-BoldMT, Arial;
        font-weight: 700;
      }

      .cls-6, .cls-10, .cls-8 {
        font-size: 12px;
      }

      .cls-7 {
        font-size: 10px;
      }

      .cls-4 {
        stroke: #1ca6c9;
        stroke-width: 3px;
      }

      .cls-12, .cls-13 {
        fill: #e9e9f0;
      }

      .cls-13 {
        stroke: #ddebd8;
      }
    </style>
    <linearGradient id="Gradiente_sem_nome" data-name="Gradiente sem nome" x1="178.4" y1="3879" x2="146.4" y2="4094.5" gradientTransform="translate(0 -3895.9)" gradientUnits="userSpaceOnUse">
      <stop offset="0" stop-color="#1ca6c9"/>
      <stop offset="1" stop-color="#1ca6c9" stop-opacity="0"/>
    </linearGradient>
  </defs>
  <rect class="cls-3" x="24.25" y="19.25" width="271.5" height=".5"/>
  <rect class="cls-3" x="24.25" y="40.25" width="271.5" height=".5"/>
  <rect class="cls-12" x=".25" y="61.25" width="295.5" height=".5"/>
  <rect class="cls-3" x="24.25" y="82.25" width="271.5" height=".5"/>
  <rect class="cls-3" x="24.25" y="103.25" width="271.5" height=".5"/>
  <rect class="cls-12" x=".25" y="124.25" width="295.5" height=".5"/>
  <rect class="cls-13" x=".25" y="187.25" width="295.5" height=".5"/>
  <rect class="cls-3" x="24.25" y="145.25" width="271.5" height=".5"/>
  <rect class="cls-3" x="24.25" y="166.25" width="271.5" height=".5"/>
  <rect class="cls-12" x="24.25" y=".25" width=".5" height="187.5"/>
  <path class="cls-5" d="m68.35,19.05H25.05v168.5h271v-20.5h-46.7c-5.4,0-10.4-2.7-13.3-7.1l-23.3-35c-3-4.5-8-7.1-13.3-7.1h-15.6c-5.4,0-10.4-2.7-13.3-7.1l-23.3-35c-3-4.5-8-7.1-13.3-7.1h-15.6c-5.4,0-10.4-2.7-13.3-7.1l-23.3-35c-3-4.8-8-7.5-13.4-7.5h0Z"/>
  <path class="cls-4" d="m25.05,19.05h43.3c5.4,0,10.4,2.7,13.3,7.1l23.3,35c3,4.5,8,7.1,13.3,7.1h15.6c5.4,0,10.4,2.7,13.3,7.1l23.3,35c3,4.5,8,7.1,13.3,7.1h15.6c5.4,0,10.4,2.7,13.3,7.1l23.3,35c3,4.5,8,7.1,13.3,7.1h46.8"/>
  <rect class="cls-1" x="33.75" y="29.15" width="40.4" height="11.3"/>
  <rect class="cls-1" x="32.15" y="45.25" width="40.4" height="26.6"/>
  <g>
    <path class="cls-9" d="m37.55,58.45c-.8,0-1.6-.1-2.2-.4-.7-.3-1.2-.7-1.6-1.4-.5-.6-.7-1.4-.7-2.3h2.3c0,.6.2,1.1.6,1.5.4.4.9.6,1.6.6s1.2-.2,1.5-.6.5-.8.5-1.4c0-.7-.2-1.2-.7-1.5s-1.1-.5-1.8-.5h-.9v-1.9h1c.6,0,1.1-.1,1.5-.4.4-.3.6-.7.6-1.3,0-.5-.2-.8-.5-1.1s-.7-.4-1.3-.4-1,.2-1.4.5c-.3.3-.5.8-.5,1.3h-2.2c0-1.2.5-2.1,1.2-2.8.8-.7,1.7-1,3-1,.9,0,1.6.2,2.2.5.6.3,1,.7,1.4,1.2.3.5.5,1.1.5,1.7,0,.7-.2,1.3-.6,1.8-.4.5-.9.8-1.4,1,.7.1,1.3.5,1.7,1s.7,1.2.7,2.1c0,.7-.2,1.3-.5,1.9-.3.6-.8,1-1.5,1.4-.8.3-1.6.5-2.5.5Z"/>
    <path class="cls-9" d="m44.75,58.25l4.8-10.6h-6.2v-2h8.6v1.6l-4.7,11s-2.5,0-2.5,0Z"/>
  </g>
  <rect class="cls-1" x="258.55" y="147.25" width="40.4" height="26.6"/>
  <path class="cls-9" d="m264.25,160.45c-.9,0-1.6-.2-2.3-.5-.7-.3-1.3-.7-1.7-1.3s-.6-1.2-.6-2,.2-1.4.6-2,.9-1,1.6-1.2c-.6-.3-1-.6-1.4-1.1s-.5-1-.5-1.6.2-1.2.5-1.7.8-.9,1.4-1.2,1.4-.5,2.4-.5,1.7.2,2.4.5c.6.3,1.1.7,1.4,1.2s.5,1.1.5,1.7-.2,1.1-.5,1.6-.8.8-1.4,1.1c.7.3,1.2.7,1.6,1.2.4.6.6,1.2.6,2,0,.7-.2,1.4-.6,2s-1,1-1.7,1.3-1.5.5-2.3.5Zm0-1.9c.8,0,1.4-.2,1.7-.6.4-.4.6-.9.6-1.4,0-.6-.2-1.1-.6-1.5s-1-.5-1.7-.5-1.3.2-1.7.5c-.4.4-.6.9-.6,1.5s.2,1.1.6,1.4c.3.4.9.6,1.7.6Zm0-5.8c.6,0,1.1-.2,1.5-.5s.5-.7.5-1.2c0-.6-.2-1-.5-1.3-.4-.3-.8-.5-1.5-.5-.6,0-1.1.2-1.5.5s-.5.7-.5,1.3c0,.5.2.9.5,1.2s.8.5,1.5.5Z"/>
  <rect class="cls-1" x="229.55" y="114.05" width="58.3" height="23.9"/>
  <g>
    <path class="cls-9" d="m233.05,137.25c-.6,0-1.1-.1-1.5-.4-.4-.3-.8-.6-1-1.1s-.4-1-.4-1.6.1-1.1.4-1.6.6-.8,1-1.1.9-.4,1.5-.4c.4,0,.8.1,1.2.3s.6.4.8.7v-3.5h1.5v8.6h-1.4l-.2-.9c-.2.3-.4.5-.8.7-.1.2-.5.3-1.1.3Zm.4-1.3c.5,0,.9-.2,1.2-.5s.5-.8.5-1.3-.2-.9-.5-1.3-.7-.5-1.2-.5-.9.2-1.2.5-.5.8-.5,1.3.2.9.5,1.3c.3.3.7.5,1.2.5Z"/>
    <path class="cls-9" d="m241.05,137.25c-.6,0-1.1-.1-1.6-.4s-.8-.6-1.1-1.1-.4-1-.4-1.6.1-1.2.4-1.6c.3-.5.6-.9,1.1-1.1.5-.3,1-.4,1.6-.4s1.1.1,1.5.4.8.6,1,1,.4.9.4,1.5v.6h-4.5c0,.5.2.8.5,1.1s.6.4,1.1.4c.3,0,.6-.1.8-.2.2-.1.4-.3.5-.5h1.6c-.1.4-.3.7-.6,1s-.6.5-1,.7-.8.2-1.3.2h0Zm0-5c-.4,0-.7.1-1,.3s-.5.5-.6,1h3c0-.4-.2-.7-.4-.9-.2-.3-.6-.4-1-.4h0Z"/>
    <path class="cls-9" d="m249.15,137.15v-6.6l-1.4.3v-1.2l2-.9h.9v8.4h-1.5Z"/>
    <path class="cls-9" d="m255.85,137.25c-.8,0-1.4-.2-2-.5-.6-.4-1-.9-1.3-1.5s-.5-1.4-.5-2.3.2-1.6.5-2.3.7-1.2,1.3-1.5c.6-.4,1.2-.5,2-.5s1.4.2,2,.5c.6.4,1,.9,1.3,1.5s.5,1.4.5,2.3-.2,1.6-.5,2.3-.7,1.2-1.3,1.5-1.2.5-2,.5Zm0-1.4c.6,0,1.1-.3,1.5-.8s.6-1.3.6-2.2-.2-1.6-.6-2.2c-.4-.5-.9-.8-1.5-.8s-1.2.3-1.6.8c-.4.5-.6,1.3-.6,2.2s.2,1.6.6,2.2c.4.6.9.8,1.6.8Z"/>
    <path class="cls-9" d="m266.45,137.25c-.6,0-1.1-.1-1.5-.4-.4-.3-.8-.6-1-1.1s-.4-1-.4-1.6.1-1.1.4-1.6.6-.8,1-1.1.9-.4,1.5-.4c.4,0,.8.1,1.2.3s.6.4.8.7v-3.5h1.5v8.6h-1.4l-.2-.9c-.2.3-.4.5-.8.7-.2.2-.6.3-1.1.3Zm.3-1.3c.5,0,.9-.2,1.2-.5s.5-.8.5-1.3-.2-.9-.5-1.3-.7-.5-1.2-.5-.9.2-1.2.5c-.3.3-.5.8-.5,1.3s.2.9.5,1.3c.4.3.8.5,1.2.5Z"/>
    <path class="cls-9" d="m271.65,137.15v-6h1.5v6h-1.5Z"/>
    <path class="cls-9" d="m276.85,137.25c-.5,0-.9-.1-1.3-.2-.3-.2-.6-.4-.7-.7-.2-.3-.2-.6-.2-.9,0-.6.2-1,.6-1.3s1.1-.5,1.9-.5h1.5v-.1c0-.4-.1-.7-.3-.9-.2-.2-.5-.3-.9-.3-.3,0-.6.1-.8.2s-.4.4-.4.7h-1.5c0-.4.2-.8.4-1.1.3-.3.6-.6,1-.7.4-.2.8-.3,1.3-.3.8,0,1.5.2,2,.6s.7,1,.7,1.8v3.7h-1.3l-.1-1c-.2.3-.4.6-.7.8-.3.1-.7.2-1.2.2Zm.3-1.2c.4,0,.8-.1,1-.4.2-.3.4-.6.5-1.1h-1.3c-.4,0-.7.1-.9.2s-.3.3-.3.5.1.4.3.5.4.3.7.3h0Z"/>
    <path class="cls-9" d="m284.15,137.25c-.5,0-1-.1-1.4-.3s-.7-.4-1-.7c-.2-.3-.4-.7-.4-1.1h1.5c0,.2.2.4.4.6s.5.2.8.2.6-.1.7-.2c.2-.1.2-.3.2-.5,0-.3-.1-.4-.3-.5-.2-.1-.5-.2-.9-.3-.3-.1-.5-.1-.8-.2s-.5-.2-.7-.3-.4-.3-.5-.5-.2-.4-.2-.7c0-.5.2-1,.6-1.3.4-.4,1-.5,1.8-.5.7,0,1.3.2,1.7.5s.7.8.8,1.4h-1.5c-.1-.4-.4-.7-1-.7-.3,0-.5.1-.7.2-.2.1-.2.3-.2.4,0,.2.1.3.3.4s.5.2.9.3.8.2,1.1.3c.3.1.6.3.8.5.2.2.3.6.3,1s-.1.7-.3,1-.5.5-.9.7-.6.3-1.1.3h0Z"/>
  </g>
  <g>
    <path class="cls-11" d="m15.75,42.25l-7-2.6v-1.4l7-2.6v1.4l-1.6.6v2.7l1.6.6v1.3Zm-2.6-2.3v-2l-2.9,1,2.9,1Z"/>
    <path class="cls-11" d="m15.75,34.75h-7v-1.3h6v-3.1h1v4.4Z"/>
    <path class="cls-11" d="m15.75,28.85h-6v2h-1v-5.4h1v2.1h6v1.3Z"/>
    <path class="cls-11" d="m15.85,21.45c0,.7-.2,1.3-.5,1.8s-.7.9-1.3,1.2c-.5.3-1.2.4-1.9.4s-1.3-.1-1.9-.4c-.5-.3-1-.7-1.3-1.2s-.5-1.1-.5-1.8.2-1.3.5-1.8.7-.9,1.3-1.2c.5-.3,1.2-.4,1.9-.4s1.3.1,1.9.4c.5.3,1,.7,1.3,1.2.4.5.5,1.2.5,1.8Zm-1.1,0c0-.7-.2-1.2-.7-1.6-.4-.4-1-.6-1.8-.6s-1.4.2-1.8.6c-.4.4-.7.9-.7,1.6s.2,1.2.7,1.6c.4.4,1,.6,1.8.6s1.4-.2,1.8-.6c.5-.4.7-.9.7-1.6Z"/>
  </g>
  <g class="cls-2">
    <text class="cls-6" transform="translate(274.65 137.15) rotate(-180) scale(1 -1)"><tspan x="0" y="0">`</tspan></text>
  </g>
  <g class="cls-2">
    <text class="cls-8" transform="translate(230.71 123.11)"><tspan x="0" y="0">Depués</tspan></text>
  </g>
  <g class="cls-2">
    <text class="cls-7" transform="translate(15.75 170.99) rotate(-90)"><tspan x="0" y="0">BAJO</tspan></text>
  </g>
  <g class="cls-2">
    <text class="cls-7" transform="translate(15.75 109.67) rotate(-90)"><tspan x="0" y="0">MEDIO</tspan></text>
  </g>
  <text class="cls-10" transform="translate(32.75 36.95)"><tspan x="0" y="0">Hoy</tspan></text>
</svg>