<svg width="71" height="52" viewBox="0 0 71 52" fill="none" xmlns="http://www.w3.org/2000/svg">
<path d="M35.6385 51.4946C54.7966 51.4946 70.3273 48.8949 70.3273 45.688C70.3273 42.4812 54.7966 39.8814 35.6385 39.8814C16.4804 39.8814 0.949707 42.4812 0.949707 45.688C0.949707 48.8949 16.4804 51.4946 35.6385 51.4946Z" fill="#42593A"/>
<path d="M25.9322 44.2395L6.29297 47.2992V3.44274L25.9322 0.388786V44.2395Z" fill="#F3FDF0" stroke="#42593A" stroke-width="1.08621" stroke-linecap="round" stroke-linejoin="round"/>
<path d="M65.1988 44.2395L45.5654 47.2992V3.44274L65.1988 0.388786V44.2395Z" fill="#F3FDF0" stroke="#42593A" stroke-width="1.08621" stroke-linecap="round" stroke-linejoin="round"/>
<path d="M45.5651 47.2992L25.9316 44.2395V0.388786L45.5651 3.44274V47.2992Z" fill="#F3FDF0" stroke="#42593A" stroke-width="1.08621" stroke-linecap="round" stroke-linejoin="round"/>
<path d="M10.0998 38.8152C10.0998 38.8152 10.0824 38.8152 10.0766 38.8152C9.86222 38.8036 9.69993 38.6124 9.71152 38.3979C9.7289 38.114 9.76366 37.8242 9.81 37.5461C9.84484 37.3317 10.0418 37.1868 10.2562 37.2216C10.4707 37.2564 10.6156 37.4591 10.5807 37.6678C10.5402 37.9285 10.5112 38.1893 10.4938 38.4501C10.4822 38.6587 10.3084 38.8152 10.1056 38.8152H10.0998Z" fill="#FF6542"/>
<path d="M20.8315 36.6306C20.6461 36.6306 20.478 36.4972 20.449 36.3061C20.4143 36.0916 20.5592 35.8946 20.7678 35.854C21.272 35.7671 21.7181 35.5701 22.0717 35.2803C22.2398 35.1412 22.4831 35.1644 22.6222 35.3325C22.7613 35.5005 22.7381 35.7439 22.57 35.883C22.1122 36.2654 21.5328 36.5204 20.8953 36.6306C20.8721 36.6306 20.8489 36.6306 20.8315 36.6306ZM19.2031 36.5379C19.1684 36.5379 19.1336 36.5379 19.0931 36.5204C18.6758 36.3987 18.2934 36.2191 17.963 35.9757C17.8066 35.8656 17.6617 35.7439 17.5226 35.6106C17.3661 35.4599 17.3604 35.2166 17.511 35.0601C17.6617 34.9036 17.9051 34.8978 18.0616 35.0486C18.1716 35.1528 18.2934 35.2513 18.4208 35.3441C18.6816 35.5353 18.9829 35.6744 19.3133 35.7728C19.5219 35.8309 19.6378 36.0511 19.5798 36.2538C19.5277 36.4219 19.377 36.5379 19.2031 36.5379ZM10.6092 36.4103C10.5628 36.4103 10.5222 36.4045 10.4759 36.3872C10.2731 36.3118 10.1688 36.0916 10.2383 35.8888C10.4295 35.3557 10.6729 34.8341 10.9511 34.3358C11.0554 34.1445 11.2988 34.0808 11.4842 34.1909C11.6697 34.2951 11.7392 34.5385 11.6291 34.724C11.3684 35.1818 11.1481 35.6628 10.9685 36.1554C10.9105 36.3176 10.7598 36.4161 10.6034 36.4161L10.6092 36.4103ZM23.1727 34.5965C23.1437 34.5965 23.109 34.5965 23.08 34.5849C22.8714 34.5327 22.7439 34.3242 22.7903 34.1155C22.8366 33.9301 22.8598 33.7388 22.8598 33.5418C22.8598 33.2636 22.8134 32.9797 22.7323 32.6957C22.6685 32.4871 22.7903 32.2727 22.9931 32.209C23.1959 32.1452 23.4161 32.2611 23.4799 32.4697C23.5842 32.8233 23.6421 33.1883 23.6421 33.536C23.6421 33.7968 23.6131 34.0518 23.5552 34.2951C23.5146 34.4748 23.3524 34.5965 23.1785 34.5965H23.1727ZM16.8504 34.3821C16.6997 34.3821 16.5607 34.2951 16.4969 34.1561C16.2593 33.6346 16.0971 33.0609 16.0275 32.4639C15.9985 32.2495 16.155 32.0525 16.3694 32.0293C16.5838 32.0003 16.7809 32.1568 16.8041 32.3713C16.8678 32.8928 17.0068 33.3854 17.2097 33.8374C17.2966 34.0344 17.2097 34.2662 17.0184 34.3531C16.9663 34.3763 16.9083 34.3879 16.8562 34.3879L16.8504 34.3821ZM12.226 33.5592C12.1391 33.5592 12.0521 33.5302 11.9768 33.4723C11.8087 33.339 11.7855 33.0898 11.9189 32.9218C12.2781 32.4813 12.678 32.0641 13.1068 31.6932C13.2691 31.5483 13.5182 31.5657 13.6574 31.728C13.8022 31.8903 13.7848 32.1394 13.6226 32.2785C13.2285 32.6262 12.8577 33.0087 12.5273 33.4143C12.452 33.507 12.3361 33.5592 12.226 33.5592ZM22.3093 31.5425C22.1991 31.5425 22.0948 31.4962 22.0137 31.4093C21.8167 31.1833 21.5907 30.992 21.3473 30.8356C21.185 30.7312 21.0054 30.6386 20.8258 30.5574C20.6287 30.4705 20.5418 30.2387 20.6287 30.0416C20.7156 29.8447 20.9474 29.7519 21.1445 29.8447C21.3647 29.9431 21.5733 30.0532 21.7704 30.1807C22.0775 30.3778 22.3556 30.6154 22.6048 30.8993C22.7497 31.0615 22.7323 31.3107 22.57 31.4498C22.4947 31.5136 22.402 31.5483 22.3093 31.5483V31.5425ZM14.6888 31.3977C14.5556 31.3977 14.4281 31.3282 14.3528 31.2122C14.2426 31.0268 14.3006 30.7892 14.486 30.6733C14.9786 30.372 15.5001 30.117 16.0275 29.92C16.0971 29.8968 16.1666 29.8852 16.2303 29.9026C16.3115 29.6129 16.4158 29.323 16.5317 29.0391C16.6186 28.842 16.8446 28.7494 17.0417 28.8305C17.2386 28.9116 17.3314 29.1434 17.2502 29.3404C17.0474 29.8214 16.9025 30.3256 16.8214 30.8298C16.7867 31.0442 16.5896 31.1891 16.3752 31.1543C16.1782 31.1253 16.0391 30.9515 16.0449 30.7544C15.6508 30.9167 15.2625 31.1137 14.8859 31.3456C14.8222 31.3861 14.7526 31.4035 14.6831 31.4035L14.6888 31.3977ZM17.7544 30.2503C17.5632 30.2503 17.4009 30.1112 17.3661 29.92C17.3314 29.7055 17.4762 29.5085 17.6906 29.4737C18.0789 29.41 18.4903 29.3868 18.8439 29.381C19.0409 29.381 19.2321 29.3868 19.4291 29.4042C19.6436 29.4216 19.8001 29.6129 19.7827 29.8272C19.7653 30.0416 19.574 30.2039 19.3596 30.1807C19.1857 30.1634 19.0003 30.1634 18.8381 30.1576C18.5078 30.1576 18.1658 30.1865 17.8182 30.2387C17.795 30.2387 17.7776 30.2387 17.7544 30.2387V30.2503ZM17.6964 28.1467C17.6211 28.1467 17.54 28.1235 17.4704 28.0771C17.2966 27.9555 17.2502 27.7121 17.3777 27.5324C17.7022 27.0746 18.0731 26.64 18.4961 26.2286C18.6526 26.0779 18.9018 26.0778 19.0467 26.2343C19.1973 26.3908 19.1915 26.6342 19.0409 26.7849C18.6584 27.1616 18.3107 27.5614 18.0152 27.9786C17.9398 28.0887 17.8182 28.1467 17.6964 28.1467ZM20.0377 25.8518C19.9159 25.8518 19.7943 25.7939 19.7189 25.6838C19.5972 25.51 19.6378 25.2608 19.8174 25.1391C20.281 24.8146 20.7736 24.5248 21.2836 24.2698C21.4747 24.1714 21.7123 24.2525 21.8051 24.4437C21.8978 24.6349 21.8225 24.8725 21.6312 24.9653C21.156 25.2029 20.6982 25.4752 20.2695 25.7765C20.1999 25.8229 20.1245 25.846 20.0434 25.846L20.0377 25.8518ZM22.9699 24.3857C22.8076 24.3857 22.6511 24.2814 22.599 24.1191C22.5295 23.9164 22.6454 23.6962 22.8482 23.6266C23.3697 23.4586 23.9144 23.3079 24.4766 23.192C24.691 23.1514 24.8938 23.2847 24.9401 23.4933C24.9866 23.702 24.8475 23.9106 24.6388 23.9569C24.1057 24.067 23.5842 24.2119 23.0916 24.3741C23.051 24.3857 23.0105 24.3915 22.9699 24.3915V24.3857ZM42.6265 24.1076C42.4121 24.1076 42.2382 23.9338 42.2382 23.7193C42.2382 23.5049 42.4063 23.3252 42.6265 23.3252C43.2002 23.3194 43.7333 23.2963 44.249 23.2615C44.4461 23.2441 44.6489 23.4122 44.6663 23.6266C44.6837 23.841 44.5157 24.0264 44.3013 24.0438C43.7681 24.0786 43.2233 24.1018 42.6381 24.1076H42.6265ZM40.9807 24.096C40.9807 24.096 40.9749 24.096 40.9691 24.096C40.4186 24.0844 39.8681 24.0612 39.3118 24.0322C39.0974 24.0207 38.9293 23.8352 38.9409 23.6208C38.9525 23.4064 39.1553 23.2499 39.3523 23.2499C39.8971 23.2789 40.4418 23.3021 40.9865 23.3137C41.2009 23.3137 41.3748 23.4991 41.369 23.7135C41.369 23.928 41.1893 24.096 40.9807 24.096ZM37.695 23.928C37.695 23.928 37.6776 23.928 37.666 23.928L36.0202 23.812C35.8058 23.7946 35.6435 23.6092 35.6551 23.3948C35.6667 23.1804 35.858 23.0239 36.0723 23.0297L37.7123 23.1456C37.9268 23.163 38.089 23.3484 38.0775 23.5628C38.0659 23.7715 37.892 23.928 37.6892 23.928H37.695ZM45.9122 23.8757C45.721 23.8757 45.553 23.7309 45.524 23.5339C45.495 23.3194 45.6457 23.1224 45.8601 23.0934C46.4048 23.0239 46.9379 22.9312 47.4537 22.8211C47.6623 22.7805 47.8709 22.9139 47.9173 23.1224C47.9636 23.331 47.8246 23.5397 47.616 23.586C47.0828 23.6962 46.5265 23.7946 45.9644 23.87C45.947 23.87 45.9296 23.87 45.9122 23.87V23.8757ZM34.4092 23.702C34.4092 23.702 34.3918 23.702 34.386 23.702C33.8413 23.6672 33.2965 23.6381 32.7518 23.615C32.5374 23.6034 32.3693 23.4238 32.3752 23.2094C32.381 22.995 32.578 22.8327 32.7808 22.8327C33.3313 22.8558 33.8819 22.8848 34.4324 22.9196C34.6468 22.9312 34.809 23.1166 34.7974 23.331C34.7858 23.5397 34.6121 23.6962 34.4092 23.6962V23.702ZM26.1861 23.6904C25.9891 23.6904 25.821 23.5455 25.7978 23.3426C25.7747 23.1282 25.9253 22.9312 26.1397 22.908C26.6671 22.8443 27.2292 22.8037 27.8087 22.7747C28.0231 22.7805 28.2086 22.9312 28.2202 23.1456C28.2318 23.36 28.0637 23.5455 27.8493 23.557C27.2872 23.586 26.7424 23.6266 26.2383 23.6846C26.2209 23.6846 26.2093 23.6846 26.1919 23.6846L26.1861 23.6904ZM31.1176 23.5513C31.1176 23.5513 31.1118 23.5513 31.106 23.5513C30.5613 23.5339 30.0166 23.5223 29.4719 23.5223C29.2575 23.5223 29.0836 23.3484 29.0836 23.1282C29.0836 22.9138 29.2575 22.74 29.4719 22.74C30.0224 22.74 30.5787 22.7516 31.1292 22.7689C31.3436 22.7747 31.5117 22.9544 31.5059 23.1688C31.5001 23.3832 31.3262 23.5455 31.1176 23.5455V23.5513ZM49.1227 23.1804C48.9546 23.1804 48.7982 23.0703 48.7518 22.9022C48.688 22.6936 48.804 22.4792 49.0126 22.4155C49.5283 22.259 50.0383 22.0735 50.5251 21.8707C50.7221 21.7896 50.9539 21.8823 51.035 22.0851C51.1161 22.288 51.0234 22.514 50.8206 22.5951C50.3106 22.8095 49.7775 23.0007 49.2386 23.163C49.198 23.1746 49.1632 23.1804 49.1227 23.1804Z" fill="#FF6542"/>
<path d="M52.1946 21.9171C52.0556 21.9171 51.9223 21.8418 51.8469 21.7085C51.7426 21.5172 51.818 21.2796 52.0092 21.1811C52.241 21.0536 52.4786 20.9262 52.7104 20.7871C52.8958 20.677 53.1334 20.7407 53.2435 20.9204C53.3536 21.1058 53.2957 21.3434 53.1102 21.4535C52.8669 21.5984 52.6235 21.7374 52.3801 21.865C52.3221 21.8939 52.2583 21.9113 52.1946 21.9113V21.9171Z" fill="#FF6542"/>
<path d="M61.2468 11.0804C61.2468 13.9258 56.0951 22.1257 56.0951 22.1257C56.0951 22.1257 50.9434 13.9258 50.9434 11.0804C50.9434 8.23509 53.2497 5.92865 56.0951 5.92865C58.9404 5.92865 61.2468 8.23509 61.2468 11.0804Z" stroke="#FF6542" stroke-width="1.08621" stroke-linecap="round" stroke-linejoin="round"/>
<path d="M56.129 13.862C57.5532 13.862 58.7078 12.7074 58.7078 11.2832C58.7078 9.85901 57.5532 8.70449 56.129 8.70449C54.7048 8.70449 53.5503 9.85901 53.5503 11.2832C53.5503 12.7074 54.7048 13.862 56.129 13.862Z" stroke="#FF6542" stroke-width="1.08621" stroke-linecap="round" stroke-linejoin="round"/>
</svg>
