<svg xmlns="http://www.w3.org/2000/svg" width="97" height="20" viewBox="0 0 97 20" fill="none"><rect width="97" height="20" rx="10" fill="#9855CC"></rect><path d="M14 4L15.587 7.81565L19.7063 8.1459L16.5679 10.8343L17.5267 14.8541L14 12.7L10.4733 14.8541L11.4321 10.8343L8.29366 8.1459L12.413 7.81565L14 4Z" fill="white"></path><path d="M24.72 14V6.55H26.02L28.81 10.34H28.19L30.92 6.55H32.22V14H30.85V8.1L31.38 8.23L28.55 12H28.39L25.63 8.23L26.08 8.1V14H24.72ZM35.1858 14.12C34.8058 14.12 34.4758 14.0567 34.1958 13.93C33.9158 13.8033 33.6991 13.6233 33.5458 13.39C33.3924 13.15 33.3158 12.8733 33.3158 12.56C33.3158 12.26 33.3824 11.9933 33.5158 11.76C33.6491 11.52 33.8558 11.32 34.1358 11.16C34.4158 11 34.7691 10.8867 35.1958 10.82L36.9758 10.53V11.53L35.4458 11.79C35.1858 11.8367 34.9924 11.92 34.8658 12.04C34.7391 12.16 34.6758 12.3167 34.6758 12.51C34.6758 12.6967 34.7458 12.8467 34.8858 12.96C35.0324 13.0667 35.2124 13.12 35.4258 13.12C35.6991 13.12 35.9391 13.0633 36.1458 12.95C36.3591 12.83 36.5224 12.6667 36.6358 12.46C36.7558 12.2533 36.8158 12.0267 36.8158 11.78V10.38C36.8158 10.1467 36.7224 9.95333 36.5358 9.8C36.3558 9.64 36.1158 9.56 35.8158 9.56C35.5358 9.56 35.2858 9.63667 35.0658 9.79C34.8524 9.93667 34.6958 10.1333 34.5958 10.38L33.5258 9.86C33.6324 9.57333 33.7991 9.32667 34.0258 9.12C34.2591 8.90667 34.5324 8.74 34.8458 8.62C35.1591 8.5 35.4991 8.44 35.8658 8.44C36.3124 8.44 36.7058 8.52333 37.0458 8.69C37.3858 8.85 37.6491 9.07667 37.8358 9.37C38.0291 9.65667 38.1258 9.99333 38.1258 10.38V14H36.8858V13.07L37.1658 13.05C37.0258 13.2833 36.8591 13.48 36.6658 13.64C36.4724 13.7933 36.2524 13.9133 36.0058 14C35.7591 14.08 35.4858 14.12 35.1858 14.12ZM35.2258 7.6L35.8758 5.87H37.5758L36.5158 7.6H35.2258ZM41.4066 14.12C40.8266 14.12 40.3199 13.9833 39.8866 13.71C39.4599 13.43 39.1666 13.0533 39.0066 12.58L39.9866 12.11C40.1266 12.4167 40.3199 12.6567 40.5666 12.83C40.8199 13.0033 41.0999 13.09 41.4066 13.09C41.6466 13.09 41.8366 13.0367 41.9766 12.93C42.1166 12.8233 42.1866 12.6833 42.1866 12.51C42.1866 12.4033 42.1566 12.3167 42.0966 12.25C42.0432 12.1767 41.9666 12.1167 41.8666 12.07C41.7732 12.0167 41.6699 11.9733 41.5566 11.94L40.6666 11.69C40.2066 11.5567 39.8566 11.3533 39.6166 11.08C39.3832 10.8067 39.2666 10.4833 39.2666 10.11C39.2666 9.77667 39.3499 9.48667 39.5166 9.24C39.6899 8.98667 39.9266 8.79 40.2266 8.65C40.5332 8.51 40.8832 8.44 41.2766 8.44C41.7899 8.44 42.2432 8.56333 42.6366 8.81C43.0299 9.05667 43.3099 9.40333 43.4766 9.85L42.4766 10.32C42.3832 10.0733 42.2266 9.87667 42.0066 9.73C41.7866 9.58333 41.5399 9.51 41.2666 9.51C41.0466 9.51 40.8732 9.56 40.7466 9.66C40.6199 9.76 40.5566 9.89 40.5566 10.05C40.5566 10.15 40.5832 10.2367 40.6366 10.31C40.6899 10.3833 40.7632 10.4433 40.8566 10.49C40.9566 10.5367 41.0699 10.58 41.1966 10.62L42.0666 10.88C42.5132 11.0133 42.8566 11.2133 43.0966 11.48C43.3432 11.7467 43.4666 12.0733 43.4666 12.46C43.4666 12.7867 43.3799 13.0767 43.2066 13.33C43.0332 13.5767 42.7932 13.77 42.4866 13.91C42.1799 14.05 41.8199 14.12 41.4066 14.12ZM46.2506 16V8.56H47.4806V9.64L47.3606 9.37C47.5473 9.07667 47.8006 8.85 48.1206 8.69C48.4406 8.52333 48.8106 8.44 49.2306 8.44C49.744 8.44 50.2073 8.56667 50.6206 8.82C51.034 9.07333 51.3606 9.41333 51.6006 9.84C51.8473 10.2667 51.9706 10.7467 51.9706 11.28C51.9706 11.8067 51.8506 12.2867 51.6106 12.72C51.3706 13.1533 51.044 13.4967 50.6306 13.75C50.2173 13.9967 49.7473 14.12 49.2206 14.12C48.8273 14.12 48.464 14.0433 48.1306 13.89C47.804 13.73 47.544 13.5033 47.3506 13.21L47.5606 12.95V16H46.2506ZM49.0706 12.92C49.3706 12.92 49.6373 12.85 49.8706 12.71C50.104 12.57 50.284 12.3767 50.4106 12.13C50.544 11.8833 50.6106 11.6 50.6106 11.28C50.6106 10.96 50.544 10.68 50.4106 10.44C50.284 10.1933 50.104 10 49.8706 9.86C49.6373 9.71333 49.3706 9.64 49.0706 9.64C48.784 9.64 48.524 9.71 48.2906 9.85C48.064 9.99 47.884 10.1867 47.7506 10.44C47.624 10.6867 47.5606 10.9667 47.5606 11.28C47.5606 11.6 47.624 11.8833 47.7506 12.13C47.884 12.3767 48.064 12.57 48.2906 12.71C48.524 12.85 48.784 12.92 49.0706 12.92ZM55.6294 14.12C55.096 14.12 54.6094 13.9967 54.1694 13.75C53.736 13.5033 53.3894 13.1667 53.1294 12.74C52.876 12.3133 52.7494 11.8267 52.7494 11.28C52.7494 10.7333 52.876 10.2467 53.1294 9.82C53.3894 9.39333 53.736 9.05667 54.1694 8.81C54.6027 8.56333 55.0894 8.44 55.6294 8.44C56.1627 8.44 56.646 8.56333 57.0794 8.81C57.5127 9.05667 57.856 9.39333 58.1094 9.82C58.3694 10.24 58.4994 10.7267 58.4994 11.28C58.4994 11.8267 58.3694 12.3133 58.1094 12.74C57.8494 13.1667 57.5027 13.5033 57.0694 13.75C56.636 13.9967 56.156 14.12 55.6294 14.12ZM55.6294 12.92C55.9227 12.92 56.1794 12.85 56.3994 12.71C56.626 12.57 56.8027 12.3767 56.9294 12.13C57.0627 11.8767 57.1294 11.5933 57.1294 11.28C57.1294 10.96 57.0627 10.68 56.9294 10.44C56.8027 10.1933 56.626 10 56.3994 9.86C56.1794 9.71333 55.9227 9.64 55.6294 9.64C55.3294 9.64 55.066 9.71333 54.8394 9.86C54.6127 10 54.4327 10.1933 54.2994 10.44C54.1727 10.68 54.1094 10.96 54.1094 11.28C54.1094 11.5933 54.1727 11.8767 54.2994 12.13C54.4327 12.3767 54.6127 12.57 54.8394 12.71C55.066 12.85 55.3294 12.92 55.6294 12.92ZM59.4928 16V8.56H60.7228V9.64L60.6028 9.37C60.7895 9.07667 61.0428 8.85 61.3628 8.69C61.6828 8.52333 62.0528 8.44 62.4728 8.44C62.9861 8.44 63.4495 8.56667 63.8628 8.82C64.2761 9.07333 64.6028 9.41333 64.8428 9.84C65.0895 10.2667 65.2128 10.7467 65.2128 11.28C65.2128 11.8067 65.0928 12.2867 64.8528 12.72C64.6128 13.1533 64.2861 13.4967 63.8728 13.75C63.4595 13.9967 62.9895 14.12 62.4628 14.12C62.0695 14.12 61.7061 14.0433 61.3728 13.89C61.0461 13.73 60.7861 13.5033 60.5928 13.21L60.8028 12.95V16H59.4928ZM62.3128 12.92C62.6128 12.92 62.8795 12.85 63.1128 12.71C63.3461 12.57 63.5261 12.3767 63.6528 12.13C63.7861 11.8833 63.8528 11.6 63.8528 11.28C63.8528 10.96 63.7861 10.68 63.6528 10.44C63.5261 10.1933 63.3461 10 63.1128 9.86C62.8795 9.71333 62.6128 9.64 62.3128 9.64C62.0261 9.64 61.7661 9.71 61.5328 9.85C61.3061 9.99 61.1261 10.1867 60.9928 10.44C60.8661 10.6867 60.8028 10.9667 60.8028 11.28C60.8028 11.6 60.8661 11.8833 60.9928 12.13C61.1261 12.3767 61.3061 12.57 61.5328 12.71C61.7661 12.85 62.0261 12.92 62.3128 12.92ZM68.1516 14.12C67.7316 14.12 67.3649 14.0267 67.0516 13.84C66.7449 13.6533 66.5082 13.3933 66.3416 13.06C66.1816 12.7267 66.1016 12.3367 66.1016 11.89V8.56H67.4116V11.78C67.4116 12.0067 67.4549 12.2067 67.5416 12.38C67.6349 12.5467 67.7649 12.68 67.9316 12.78C68.1049 12.8733 68.2982 12.92 68.5116 12.92C68.7249 12.92 68.9149 12.8733 69.0816 12.78C69.2482 12.68 69.3782 12.5433 69.4716 12.37C69.5649 12.1967 69.6116 11.99 69.6116 11.75V8.56H70.9216V14H69.6816V12.93L69.7916 13.12C69.6649 13.4533 69.4549 13.7033 69.1616 13.87C68.8749 14.0367 68.5382 14.12 68.1516 14.12ZM72.1393 14V6.43H73.4493V14H72.1393ZM76.3088 14.12C75.9288 14.12 75.5988 14.0567 75.3188 13.93C75.0388 13.8033 74.8222 13.6233 74.6688 13.39C74.5155 13.15 74.4388 12.8733 74.4388 12.56C74.4388 12.26 74.5055 11.9933 74.6388 11.76C74.7722 11.52 74.9788 11.32 75.2588 11.16C75.5388 11 75.8922 10.8867 76.3188 10.82L78.0988 10.53V11.53L76.5688 11.79C76.3088 11.8367 76.1155 11.92 75.9888 12.04C75.8622 12.16 75.7988 12.3167 75.7988 12.51C75.7988 12.6967 75.8688 12.8467 76.0088 12.96C76.1555 13.0667 76.3355 13.12 76.5488 13.12C76.8222 13.12 77.0622 13.0633 77.2688 12.95C77.4822 12.83 77.6455 12.6667 77.7588 12.46C77.8788 12.2533 77.9388 12.0267 77.9388 11.78V10.38C77.9388 10.1467 77.8455 9.95333 77.6588 9.8C77.4788 9.64 77.2388 9.56 76.9388 9.56C76.6588 9.56 76.4088 9.63667 76.1888 9.79C75.9755 9.93667 75.8188 10.1333 75.7188 10.38L74.6488 9.86C74.7555 9.57333 74.9222 9.32667 75.1488 9.12C75.3822 8.90667 75.6555 8.74 75.9688 8.62C76.2822 8.5 76.6222 8.44 76.9888 8.44C77.4355 8.44 77.8288 8.52333 78.1688 8.69C78.5088 8.85 78.7722 9.07667 78.9588 9.37C79.1522 9.65667 79.2488 9.99333 79.2488 10.38V14H78.0088V13.07L78.2888 13.05C78.1488 13.2833 77.9822 13.48 77.7888 13.64C77.5955 13.7933 77.3755 13.9133 77.1288 14C76.8822 14.08 76.6088 14.12 76.3088 14.12ZM80.4596 14V8.56H81.6896V9.77L81.5896 9.59C81.7163 9.18333 81.9129 8.9 82.1796 8.74C82.4529 8.58 82.7796 8.5 83.1596 8.5H83.4796V9.66H83.0096C82.6363 9.66 82.3363 9.77667 82.1096 10.01C81.8829 10.2367 81.7696 10.5567 81.7696 10.97V14H80.4596Z" fill="white"></path></svg>