<svg xmlns="http://www.w3.org/2000/svg" width="83" height="20" viewBox="0 0 83 20" fill="none"><rect width="83" height="20" rx="10" fill="url(#paint0_linear_10_3305)"></rect><path fill-rule="evenodd" clip-rule="evenodd" d="M6.12458 6.23869C8.38078 6.20877 10.4365 5.36755 12 4C13.5635 5.36755 15.6192 6.20877 17.8754 6.23869C17.9574 6.71566 18 7.20564 18 7.70537C18 11.5348 15.4956 14.7926 12 16C8.50443 14.7926 6 11.5348 6 7.70537C6 7.20564 6.04265 6.71566 6.12458 6.23869ZM14.7803 8.95653C15.0732 8.6703 15.0732 8.20624 14.7803 7.92001C14.4874 7.63379 14.0126 7.63379 13.7197 7.92001L11.25 10.3335L10.2803 9.38586C9.98744 9.09964 9.51256 9.09964 9.21967 9.38586C8.92678 9.67209 8.92678 10.1362 9.21967 10.4224L10.7197 11.8882C11.0126 12.1745 11.4874 12.1745 11.7803 11.8882L14.7803 8.95653Z" fill="white"></path><path d="M22.72 14V6.55H24.02L26.81 10.34H26.19L28.92 6.55H30.22V14H28.85V8.1L29.38 8.23L26.55 12H26.39L23.63 8.23L24.08 8.1V14H22.72ZM34.1158 14.12C33.5558 14.12 33.0658 13.9933 32.6458 13.74C32.2258 13.4867 31.8991 13.1433 31.6658 12.71C31.4324 12.2767 31.3158 11.7967 31.3158 11.27C31.3158 10.7233 31.4324 10.24 31.6658 9.82C31.9058 9.39333 32.2291 9.05667 32.6358 8.81C33.0491 8.56333 33.5091 8.44 34.0158 8.44C34.4424 8.44 34.8158 8.51 35.1358 8.65C35.4624 8.79 35.7391 8.98333 35.9658 9.23C36.1924 9.47667 36.3658 9.76 36.4858 10.08C36.6058 10.3933 36.6658 10.7333 36.6658 11.1C36.6658 11.1933 36.6591 11.29 36.6458 11.39C36.6391 11.49 36.6224 11.5767 36.5958 11.65H32.3958V10.65H35.8558L35.2358 11.12C35.2958 10.8133 35.2791 10.54 35.1858 10.3C35.0991 10.06 34.9524 9.87 34.7458 9.73C34.5458 9.59 34.3024 9.52 34.0158 9.52C33.7424 9.52 33.4991 9.59 33.2858 9.73C33.0724 9.86333 32.9091 10.0633 32.7958 10.33C32.6891 10.59 32.6491 10.9067 32.6758 11.28C32.6491 11.6133 32.6924 11.91 32.8058 12.17C32.9258 12.4233 33.0991 12.62 33.3258 12.76C33.5591 12.9 33.8258 12.97 34.1258 12.97C34.4258 12.97 34.6791 12.9067 34.8858 12.78C35.0991 12.6533 35.2658 12.4833 35.3858 12.27L36.4458 12.79C36.3391 13.05 36.1724 13.28 35.9458 13.48C35.7191 13.68 35.4491 13.8367 35.1358 13.95C34.8291 14.0633 34.4891 14.12 34.1158 14.12ZM36.9088 16.21C36.8222 16.21 36.7322 16.2067 36.6388 16.2C36.5455 16.1933 36.4688 16.1833 36.4088 16.17V15.03C36.5288 15.05 36.6488 15.06 36.7688 15.06C37.0488 15.06 37.2655 14.9933 37.4188 14.86C37.5788 14.7333 37.6588 14.5367 37.6588 14.27V8.56H38.9688V14.27C38.9688 14.6833 38.8855 15.0333 38.7188 15.32C38.5522 15.6133 38.3122 15.8333 37.9988 15.98C37.6922 16.1333 37.3288 16.21 36.9088 16.21ZM37.6588 7.95V6.55H38.9688V7.95H37.6588ZM42.8384 14.12C42.305 14.12 41.8184 13.9967 41.3784 13.75C40.945 13.5033 40.5984 13.1667 40.3384 12.74C40.085 12.3133 39.9584 11.8267 39.9584 11.28C39.9584 10.7333 40.085 10.2467 40.3384 9.82C40.5984 9.39333 40.945 9.05667 41.3784 8.81C41.8117 8.56333 42.2984 8.44 42.8384 8.44C43.3717 8.44 43.855 8.56333 44.2884 8.81C44.7217 9.05667 45.065 9.39333 45.3184 9.82C45.5784 10.24 45.7084 10.7267 45.7084 11.28C45.7084 11.8267 45.5784 12.3133 45.3184 12.74C45.0584 13.1667 44.7117 13.5033 44.2784 13.75C43.845 13.9967 43.365 14.12 42.8384 14.12ZM42.8384 12.92C43.1317 12.92 43.3884 12.85 43.6084 12.71C43.835 12.57 44.0117 12.3767 44.1384 12.13C44.2717 11.8767 44.3384 11.5933 44.3384 11.28C44.3384 10.96 44.2717 10.68 44.1384 10.44C44.0117 10.1933 43.835 10 43.6084 9.86C43.3884 9.71333 43.1317 9.64 42.8384 9.64C42.5384 9.64 42.275 9.71333 42.0484 9.86C41.8217 10 41.6417 10.1933 41.5084 10.44C41.3817 10.68 41.3184 10.96 41.3184 11.28C41.3184 11.5933 41.3817 11.8767 41.5084 12.13C41.6417 12.3767 41.8217 12.57 42.0484 12.71C42.275 12.85 42.5384 12.92 42.8384 12.92ZM46.7018 14V8.56H47.9318V9.77L47.8318 9.59C47.9585 9.18333 48.1551 8.9 48.4218 8.74C48.6951 8.58 49.0218 8.5 49.4018 8.5H49.7218V9.66H49.2518C48.8785 9.66 48.5785 9.77667 48.3518 10.01C48.1251 10.2367 48.0118 10.5567 48.0118 10.97V14H46.7018ZM53.8594 14L51.7194 8.56H53.1494L54.6994 12.84H54.1694L55.7294 8.56H57.1594L55.0194 14H53.8594ZM59.3381 14.12C58.9581 14.12 58.6281 14.0567 58.3481 13.93C58.0681 13.8033 57.8515 13.6233 57.6981 13.39C57.5448 13.15 57.4681 12.8733 57.4681 12.56C57.4681 12.26 57.5348 11.9933 57.6681 11.76C57.8015 11.52 58.0081 11.32 58.2881 11.16C58.5681 11 58.9215 10.8867 59.3481 10.82L61.1281 10.53V11.53L59.5981 11.79C59.3381 11.8367 59.1448 11.92 59.0181 12.04C58.8915 12.16 58.8281 12.3167 58.8281 12.51C58.8281 12.6967 58.8981 12.8467 59.0381 12.96C59.1848 13.0667 59.3648 13.12 59.5781 13.12C59.8515 13.12 60.0915 13.0633 60.2981 12.95C60.5115 12.83 60.6748 12.6667 60.7881 12.46C60.9081 12.2533 60.9681 12.0267 60.9681 11.78V10.38C60.9681 10.1467 60.8748 9.95333 60.6881 9.8C60.5081 9.64 60.2681 9.56 59.9681 9.56C59.6881 9.56 59.4381 9.63667 59.2181 9.79C59.0048 9.93667 58.8481 10.1333 58.7481 10.38L57.6781 9.86C57.7848 9.57333 57.9515 9.32667 58.1781 9.12C58.4115 8.90667 58.6848 8.74 58.9981 8.62C59.3115 8.5 59.6515 8.44 60.0181 8.44C60.4648 8.44 60.8581 8.52333 61.1981 8.69C61.5381 8.85 61.8015 9.07667 61.9881 9.37C62.1815 9.65667 62.2781 9.99333 62.2781 10.38V14H61.0381V13.07L61.3181 13.05C61.1781 13.2833 61.0115 13.48 60.8181 13.64C60.6248 13.7933 60.4048 13.9133 60.1581 14C59.9115 14.08 59.6381 14.12 59.3381 14.12ZM63.4889 14V6.43H64.7989V14H63.4889ZM68.6684 14.12C68.1351 14.12 67.6484 13.9967 67.2084 13.75C66.7751 13.5033 66.4284 13.1667 66.1684 12.74C65.9151 12.3133 65.7884 11.8267 65.7884 11.28C65.7884 10.7333 65.9151 10.2467 66.1684 9.82C66.4284 9.39333 66.7751 9.05667 67.2084 8.81C67.6418 8.56333 68.1284 8.44 68.6684 8.44C69.2018 8.44 69.6851 8.56333 70.1184 8.81C70.5518 9.05667 70.8951 9.39333 71.1484 9.82C71.4084 10.24 71.5384 10.7267 71.5384 11.28C71.5384 11.8267 71.4084 12.3133 71.1484 12.74C70.8884 13.1667 70.5418 13.5033 70.1084 13.75C69.6751 13.9967 69.1951 14.12 68.6684 14.12ZM68.6684 12.92C68.9618 12.92 69.2184 12.85 69.4384 12.71C69.6651 12.57 69.8418 12.3767 69.9684 12.13C70.1018 11.8767 70.1684 11.5933 70.1684 11.28C70.1684 10.96 70.1018 10.68 69.9684 10.44C69.8418 10.1933 69.6651 10 69.4384 9.86C69.2184 9.71333 68.9618 9.64 68.6684 9.64C68.3684 9.64 68.1051 9.71333 67.8784 9.86C67.6518 10 67.4718 10.1933 67.3384 10.44C67.2118 10.68 67.1484 10.96 67.1484 11.28C67.1484 11.5933 67.2118 11.8767 67.3384 12.13C67.4718 12.3767 67.6518 12.57 67.8784 12.71C68.1051 12.85 68.3684 12.92 68.6684 12.92ZM72.5319 14V8.56H73.7619V9.77L73.6619 9.59C73.7885 9.18333 73.9852 8.9 74.2519 8.74C74.5252 8.58 74.8519 8.5 75.2319 8.5H75.5519V9.66H75.0819C74.7085 9.66 74.4085 9.77667 74.1819 10.01C73.9552 10.2367 73.8419 10.5567 73.8419 10.97V14H72.5319Z" fill="white"></path><defs><linearGradient id="paint0_linear_10_3305" x1="41.5" y1="0" x2="41.5" y2="20" gradientUnits="userSpaceOnUse"><stop stop-color="#51A535"></stop><stop offset="1" stop-color="#468725"></stop></linearGradient></defs></svg>