<svg width="61" height="67" viewBox="0 0 61 67" fill="none" xmlns="http://www.w3.org/2000/svg">
<path d="M28.0427 0.397705C28.0074 0.922727 28.1572 1.56279 27.9134 1.95803C24.274 7.88075 22.6467 14.299 23.0755 21.2393C23.9597 35.5388 34.5519 47.9447 48.9275 49.9592C52.2086 50.4193 55.6072 50.0359 58.9529 50.0595C59.3612 50.0624 59.7665 50.1893 60.1748 50.2571C60.0426 50.7467 60.0338 51.3219 59.7636 51.7112C54.8552 58.8108 48.3489 63.6717 39.8833 65.5889C21.2455 69.8127 3.0249 57.0293 0.501677 38.043C-1.88936 20.0536 8.83507 4.62443 26.5064 0.615973C26.6386 0.586477 26.7502 0.471444 26.8706 0.397705C27.2613 0.397705 27.6491 0.397705 28.0397 0.397705H28.0427Z" fill="url(#paint0_linear_20_604)"/>
<defs>
<linearGradient id="paint0_linear_20_604" x1="0.169752" y1="33.4004" x2="60.1719" y2="33.4004" gradientUnits="userSpaceOnUse">
<stop stop-color="#CDD2FF"/>
<stop offset="1" stop-color="#762078"/>
</linearGradient>
</defs>
</svg>
