<svg xmlns="http://www.w3.org/2000/svg" width="189" height="189" viewBox="0 0 189 189" fill="none"><path d="M70.875 100.406L88.5937 118.125L118.125 76.7813M165.375 94.5C165.375 104.486 160.414 113.321 152.83 118.661C153.647 123.329 153.327 128.125 151.898 132.643C150.468 137.161 147.97 141.268 144.616 144.617C141.268 147.97 137.161 150.468 132.643 151.898C128.125 153.327 123.329 153.647 118.66 152.83C115.937 156.708 112.32 159.873 108.114 162.057C103.909 164.241 99.2388 165.379 94.5 165.375C84.5145 165.375 75.6788 160.414 70.3395 152.83C65.6715 153.647 60.8754 153.326 56.3573 151.897C51.8393 150.467 47.7321 147.97 44.3835 144.617C41.0297 141.268 38.5322 137.161 37.1025 132.643C35.6727 128.125 35.3528 123.329 36.1699 118.661C32.2916 115.937 29.1266 112.32 26.943 108.114C24.7593 103.909 23.6212 99.2388 23.625 94.5C23.625 84.5145 28.5863 75.6788 36.1699 70.3395C35.3528 65.6715 35.6727 60.8752 37.1025 56.357C38.5322 51.8388 41.0297 47.7317 44.3835 44.3835C47.7321 41.0303 51.8393 38.5331 56.3573 37.1034C60.8754 35.6737 65.6715 35.3535 70.3395 36.1699C73.063 32.2921 76.6806 29.1275 80.8861 26.9438C85.0917 24.7602 89.7614 23.6218 94.5 23.625C104.485 23.625 113.321 28.5863 118.66 36.1699C123.329 35.3535 128.125 35.6737 132.643 37.1034C137.161 38.5331 141.268 41.0303 144.616 44.3835C147.97 47.7321 150.467 51.8393 151.897 56.3573C153.326 60.8754 153.647 65.6715 152.83 70.3395C156.708 73.0626 159.873 76.6801 162.057 80.8857C164.241 85.0913 165.379 89.7612 165.375 94.5Z" stroke="#053853" stroke-width="8" stroke-linecap="round" stroke-linejoin="round"/></svg>